999
dxflib 3.12.2.0
  0
SECTION
  2
HEADER
  9
$ACADVER
  1
AC1015
  9
$HANDSEED
  5
FFFF
  9
$DIMADEC
 70
0
  9
$DIMASZ
 40
2.5
  9
$DIMAUNIT
 70
0
  9
$DIMAZIN
 70
2
  9
$DIMDEC
 70
4
  9
$DIMEXE
 40
1.25
  9
$DIMEXO
 40
0.625
  9
$DIMGAP
 40
0.625
  9
$DIMLUNIT
 70
2
  9
$DIMSCALE
 40
1.0
  9
$DIMTSZ
 40
0.0
  9
$DIMTXT
 40
2.5
  9
$DIMZIN
 70
8
  9
$DWGCODEPAGE
  3
ANSI_1252
  9
$INSUNITS
 70
4
  9
$LTSCALE
 40
1.0
  9
$MEASUREMENT
 70
1
  9
$PDMODE
 70
0
  9
$PDSIZE
 40
0
  0
ENDSEC
  0
SECTION
  2
TABLES
  0
TABLE
  2
VPORT
  5
8
100
AcDbSymbolTable
 70
1
  0
VPORT
  5
30
100
AcDbSymbolTableRecord
100
AcDbViewportTableRecord
  2
*Active
 70
0
 10
0.0
 20
0.0
 11
1.0
 21
1.0
 12
286.3055555555554861
 22
148.5
 13
0.0
 23
0.0
 14
10.0
 24
10.0
 15
10.0
 25
10.0
 16
0.0
 26
0.0
 36
1.0
 17
0.0
 27
0.0
 37
0.0
 40
297.0
 41
1.92798353909465
 42
50.0
 43
0.0
 44
0.0
 50
0.0
 51
0.0
 71
0
 72
100
 73
1
 74
3
 75
1
 76
1
 77
0
 78
0
281
0
 65
1
110
0.0
120
0.0
130
0.0
111
1.0
121
0.0
131
0.0
112
0.0
122
1.0
132
0.0
 79
0
146
0.0
  0
ENDTAB
  0
TABLE
  2
LTYPE
  5
5
100
AcDbSymbolTable
 70
41
  0
LTYPE
  5
16
100
AcDbSymbolTableRecord
100
AcDbLinetypeTableRecord
  2
Continuous
 70
0
  3
Solid line
 72
65
 73
0
 40
0.0
  0
LTYPE
  5
31
100
AcDbSymbolTableRecord
100
AcDbLinetypeTableRecord
  2
DIVIDE2
 70
0
  3
Divide (.5x) __..__..__..__..__..__..__..__.._
 72
65
 73
6
 40
15.875
 49
6.3499999999999996
 74
0
 49
-3.1749999999999998
 74
0
 49
0.0
 74
0
 49
-3.1749999999999998
 74
0
 49
0.0
 74
0
 49
-3.1749999999999998
 74
0
  0
LTYPE
  5
32
100
AcDbSymbolTableRecord
100
AcDbLinetypeTableRecord
  2
ACAD_ISO05W100
 70
0
  3
ISO long-dash double-dot ____ .. ____ .. ____ . 
 72
65
 73
6
 40
33.0
 49
24.0
 74
0
 49
-3.0
 74
0
 49
0.0
 74
0
 49
-3.0
 74
0
 49
0.0
 74
0
 49
-3.0
 74
0
  0
LTYPE
  5
33
100
AcDbSymbolTableRecord
100
AcDbLinetypeTableRecord
  2
ACAD_ISO14W100
 70
0
  3
ISO dash triple-dot __ . . . __ . . . __ . . . _
 72
65
 73
8
 40
24.0
 49
12.0
 74
0
 49
-3.0
 74
0
 49
0.0
 74
0
 49
-3.0
 74
0
 49
0.0
 74
0
 49
-3.0
 74
0
 49
0.0
 74
0
 49
-3.0
 74
0
  0
LTYPE
  5
34
100
AcDbSymbolTableRecord
100
AcDbLinetypeTableRecord
  2
ACAD_ISO07W100
 70
0
  3
ISO dot . . . . . . . . . . . . . . . . . . . . 
 72
65
 73
2
 40
3.0
 49
0.0
 74
0
 49
-3.0
 74
0
  0
LTYPE
  5
35
100
AcDbSymbolTableRecord
100
AcDbLinetypeTableRecord
  2
ACAD_ISO15W100
 70
0
  3
ISO double-dash triple-dot __ __ . . . __ __ . .
 72
65
 73
10
 40
39.0
 49
12.0
 74
0
 49
-3.0
 74
0
 49
12.0
 74
0
 49
-3.0
 74
0
 49
0.0
 74
0
 49
-3.0
 74
0
 49
0.0
 74
0
 49
-3.0
 74
0
 49
0.0
 74
0
 49
-3.0
 74
0
  0
LTYPE
  5
36
100
AcDbSymbolTableRecord
100
AcDbLinetypeTableRecord
  2
HIDDEN
 70
0
  3
Hidden __ __ __ __ __ __ __ __ __ __ __ __ __ __
 72
65
 73
2
 40
9.5249999999999986
 49
6.3499999999999996
 74
0
 49
-3.1749999999999998
 74
0
  0
LTYPE
  5
37
100
AcDbSymbolTableRecord
100
AcDbLinetypeTableRecord
  2
HIDDEN2
 70
0
  3
Hidden (.5x) _ _ _ _ _ _ _ _ _ _ _ _ _ _ _ _ _ 
 72
65
 73
2
 40
4.7624999999999993
 49
3.1749999999999998
 74
0
 49
-1.5874999999999999
 74
0
  0
LTYPE
  5
38
100
AcDbSymbolTableRecord
100
AcDbLinetypeTableRecord
  2
DASHDOT2
 70
0
  3
Dash dot (.5x) _._._._._._._._._._._._._._._.
 72
65
 73
4
 40
12.6999999999999993
 49
6.3499999999999996
 74
0
 49
-3.1749999999999998
 74
0
 49
0.0
 74
0
 49
-3.1749999999999998
 74
0
  0
LTYPE
  5
39
100
AcDbSymbolTableRecord
100
AcDbLinetypeTableRecord
  2
DASHDOTX2
 70
0
  3
Dash dot (2x) ____  .  ____  .  ____  .  ___
 72
65
 73
4
 40
50.7999999999999972
 49
25.3999999999999986
 74
0
 49
-12.6999999999999993
 74
0
 49
0.0
 74
0
 49
-12.6999999999999993
 74
0
  0
LTYPE
  5
3A
100
AcDbSymbolTableRecord
100
AcDbLinetypeTableRecord
  2
DIVIDEX2
 70
0
  3
Divide (2x) ________  .  .  ________  .  .  _
 72
65
 73
6
 40
63.5
 49
25.3999999999999986
 74
0
 49
-12.6999999999999993
 74
0
 49
0.0
 74
0
 49
-12.6999999999999993
 74
0
 49
0.0
 74
0
 49
-12.6999999999999993
 74
0
  0
LTYPE
  5
3B
100
AcDbSymbolTableRecord
100
AcDbLinetypeTableRecord
  2
PHANTOM2
 70
0
  3
Phantom (.5x) ___ _ _ ___ _ _ ___ _ _ ___ _ _
 72
65
 73
6
 40
31.7500000000000036
 49
15.875
 74
0
 49
-3.1749999999999998
 74
0
 49
3.1749999999999998
 74
0
 49
-3.1749999999999998
 74
0
 49
3.1749999999999998
 74
0
 49
-3.1749999999999998
 74
0
  0
LTYPE
  5
3C
100
AcDbSymbolTableRecord
100
AcDbLinetypeTableRecord
  2
HIDDENX2
 70
0
  3
Hidden (2x) ____ ____ ____ ____ ____ ____ ____ 
 72
65
 73
2
 40
19.0499999999999972
 49
12.6999999999999993
 74
0
 49
-6.3499999999999996
 74
0
  0
LTYPE
  5
3D
100
AcDbSymbolTableRecord
100
AcDbLinetypeTableRecord
  2
PHANTOMX2
 70
0
  3
Phantom (2x) ____________    ____    ____   _
 72
65
 73
6
 40
127.0000000000000142
 49
63.5
 74
0
 49
-12.6999999999999993
 74
0
 49
12.6999999999999993
 74
0
 49
-12.6999999999999993
 74
0
 49
12.6999999999999993
 74
0
 49
-12.6999999999999993
 74
0
  0
LTYPE
  5
3E
100
AcDbSymbolTableRecord
100
AcDbLinetypeTableRecord
  2
ACAD_ISO10W100
 70
0
  3
ISO dash dot __ . __ . __ . __ . __ . __ . __ . 
 72
65
 73
4
 40
18.0
 49
12.0
 74
0
 49
-3.0
 74
0
 49
0.0
 74
0
 49
-3.0
 74
0
  0
LTYPE
  5
3F
100
AcDbSymbolTableRecord
100
AcDbLinetypeTableRecord
  2
ACAD_ISO08W100
 70
0
  3
ISO long-dash short-dash ____ __ ____ __ ____ _
 72
65
 73
4
 40
36.0
 49
24.0
 74
0
 49
-3.0
 74
0
 49
6.0
 74
0
 49
-3.0
 74
0
  0
LTYPE
  5
40
100
AcDbSymbolTableRecord
100
AcDbLinetypeTableRecord
  2
ACAD_ISO04W100
 70
0
  3
ISO long-dash dot ____ . ____ . ____ . ____ . _
 72
65
 73
4
 40
30.0
 49
24.0
 74
0
 49
-3.0
 74
0
 49
0.0
 74
0
 49
-3.0
 74
0
  0
LTYPE
  5
41
100
AcDbSymbolTableRecord
100
AcDbLinetypeTableRecord
  2
DOT
 70
0
  3
Dot . . . . . . . . . . . . . . . . . . . . . . . .
 72
65
 73
2
 40
6.3499999999999996
 49
0.0
 74
0
 49
-6.3499999999999996
 74
0
  0
LTYPE
  5
42
100
AcDbSymbolTableRecord
100
AcDbLinetypeTableRecord
  2
DASHDOT
 70
0
  3
Dash dot __ . __ . __ . __ . __ . __ . __ . __
 72
65
 73
4
 40
25.3999999999999986
 49
12.6999999999999993
 74
0
 49
-6.3499999999999996
 74
0
 49
0.0
 74
0
 49
-6.3499999999999996
 74
0
  0
LTYPE
  5
43
100
AcDbSymbolTableRecord
100
AcDbLinetypeTableRecord
  2
ACAD_ISO03W100
 70
0
  3
ISO dash space __    __    __    __    __    __
 72
65
 73
2
 40
30.0
 49
12.0
 74
0
 49
-18.0
 74
0
  0
LTYPE
  5
44
100
AcDbSymbolTableRecord
100
AcDbLinetypeTableRecord
  2
ACAD_ISO11W100
 70
0
  3
ISO double-dash dot __ __ . __ __ . __ __ . __ _
 72
65
 73
6
 40
33.0
 49
12.0
 74
0
 49
-3.0
 74
0
 49
12.0
 74
0
 49
-3.0
 74
0
 49
0.0
 74
0
 49
-3.0
 74
0
  0
LTYPE
  5
45
100
AcDbSymbolTableRecord
100
AcDbLinetypeTableRecord
  2
DASHEDX2
 70
0
  3
Dashed (2x) ____  ____  ____  ____  ____  ___
 72
65
 73
2
 40
38.0999999999999943
 49
25.3999999999999986
 74
0
 49
-12.6999999999999993
 74
0
  0
LTYPE
  5
46
100
AcDbSymbolTableRecord
100
AcDbLinetypeTableRecord
  2
ACAD_ISO09W100
 70
0
  3
ISO long-dash double-short-dash ____ __ __ ____
 72
65
 73
6
 40
45.0
 49
24.0
 74
0
 49
-3.0
 74
0
 49
6.0
 74
0
 49
-3.0
 74
0
 49
6.0
 74
0
 49
-3.0
 74
0
  0
LTYPE
  5
47
100
AcDbSymbolTableRecord
100
AcDbLinetypeTableRecord
  2
ACAD_ISO02W100
 70
0
  3
ISO dash __ __ __ __ __ __ __ __ __ __ __ __ __
 72
65
 73
2
 40
15.0
 49
12.0
 74
0
 49
-3.0
 74
0
  0
LTYPE
  5
48
100
AcDbSymbolTableRecord
100
AcDbLinetypeTableRecord
  2
CENTERX2
 70
0
  3
Center (2x) ________  __  ________  __  _____
 72
65
 73
4
 40
101.6000000000000085
 49
63.5
 74
0
 49
-12.6999999999999993
 74
0
 49
12.6999999999999993
 74
0
 49
-12.6999999999999993
 74
0
  0
LTYPE
  5
49
100
AcDbSymbolTableRecord
100
AcDbLinetypeTableRecord
  2
BORDERX2
 70
0
  3
Border (2x) ____  ____  .  ____  ____  .  ___
 72
65
 73
6
 40
88.8999999999999915
 49
25.3999999999999986
 74
0
 49
-12.6999999999999993
 74
0
 49
25.3999999999999986
 74
0
 49
-12.6999999999999993
 74
0
 49
0.0
 74
0
 49
-12.6999999999999993
 74
0
  0
LTYPE
  5
4A
100
AcDbSymbolTableRecord
100
AcDbLinetypeTableRecord
  2
ACAD_ISO12W100
 70
0
  3
ISO dash double-dot __ . . __ . . __ . . __ . . 
 72
65
 73
6
 40
21.0
 49
12.0
 74
0
 49
-3.0
 74
0
 49
0.0
 74
0
 49
-3.0
 74
0
 49
0.0
 74
0
 49
-3.0
 74
0
  0
LTYPE
  5
4B
100
AcDbSymbolTableRecord
100
AcDbLinetypeTableRecord
  2
ACAD_ISO06W100
 70
0
  3
ISO long-dash triple-dot ____ ... ____ ... ____
 72
65
 73
8
 40
36.0
 49
24.0
 74
0
 49
-3.0
 74
0
 49
0.0
 74
0
 49
-3.0
 74
0
 49
0.0
 74
0
 49
-3.0
 74
0
 49
0.0
 74
0
 49
-3.0
 74
0
  0
LTYPE
  5
4C
100
AcDbSymbolTableRecord
100
AcDbLinetypeTableRecord
  2
ACAD_ISO13W100
 70
0
  3
ISO double-dash double-dot __ __ . . __ __ . . _
 72
65
 73
8
 40
36.0
 49
12.0
 74
0
 49
-3.0
 74
0
 49
12.0
 74
0
 49
-3.0
 74
0
 49
0.0
 74
0
 49
-3.0
 74
0
 49
0.0
 74
0
 49
-3.0
 74
0
  0
LTYPE
  5
4D
100
AcDbSymbolTableRecord
100
AcDbLinetypeTableRecord
  2
BORDER
 70
0
  3
Border __ __ . __ __ . __ __ . __ __ . __ __ .
 72
65
 73
6
 40
44.4499999999999957
 49
12.6999999999999993
 74
0
 49
-6.3499999999999996
 74
0
 49
12.6999999999999993
 74
0
 49
-6.3499999999999996
 74
0
 49
0.0
 74
0
 49
-6.3499999999999996
 74
0
  0
LTYPE
  5
15
100
AcDbSymbolTableRecord
100
AcDbLinetypeTableRecord
  2
BYLAYER
 70
0
  3

 72
65
 73
0
 40
0.0
  0
LTYPE
  5
4E
100
AcDbSymbolTableRecord
100
AcDbLinetypeTableRecord
  2
DASHED2
 70
0
  3
Dashed (.5x) _ _ _ _ _ _ _ _ _ _ _ _ _ _ _ _ _ 
 72
65
 73
2
 40
9.5249999999999986
 49
6.3499999999999996
 74
0
 49
-3.1749999999999998
 74
0
  0
LTYPE
  5
4F
100
AcDbSymbolTableRecord
100
AcDbLinetypeTableRecord
  2
BORDER2
 70
0
  3
Border (.5x) __.__.__.__.__.__.__.__.__.__.__.
 72
65
 73
6
 40
22.2249999999999979
 49
6.3499999999999996
 74
0
 49
-3.1749999999999998
 74
0
 49
6.3499999999999996
 74
0
 49
-3.1749999999999998
 74
0
 49
0.0
 74
0
 49
-3.1749999999999998
 74
0
  0
LTYPE
  5
50
100
AcDbSymbolTableRecord
100
AcDbLinetypeTableRecord
  2
DOTX2
 70
0
  3
Dot (2x) .  .  .  .  .  .  .  .  .  .  .  .  .  .
 72
65
 73
2
 40
12.6999999999999993
 49
0.0
 74
0
 49
-12.6999999999999993
 74
0
  0
LTYPE
  5
51
100
AcDbSymbolTableRecord
100
AcDbLinetypeTableRecord
  2
PHANTOM
 70
0
  3
Phantom ______  __  __  ______  __  __  ______ 
 72
65
 73
6
 40
63.5000000000000071
 49
31.75
 74
0
 49
-6.3499999999999996
 74
0
 49
6.3499999999999996
 74
0
 49
-6.3499999999999996
 74
0
 49
6.3499999999999996
 74
0
 49
-6.3499999999999996
 74
0
  0
LTYPE
  5
52
100
AcDbSymbolTableRecord
100
AcDbLinetypeTableRecord
  2
DOT2
 70
0
  3
Dot (.5x) ........................................
 72
65
 73
2
 40
3.1749999999999998
 49
0.0
 74
0
 49
-3.1749999999999998
 74
0
  0
LTYPE
  5
53
100
AcDbSymbolTableRecord
100
AcDbLinetypeTableRecord
  2
CENTER2
 70
0
  3
Center (.5x) ___ _ ___ _ ___ _ ___ _ ___ _ ___
 72
65
 73
4
 40
28.5750000000000028
 49
19.0500000000000007
 74
0
 49
-3.1749999999999998
 74
0
 49
3.1749999999999998
 74
0
 49
-3.1749999999999998
 74
0
  0
LTYPE
  5
14
100
AcDbSymbolTableRecord
100
AcDbLinetypeTableRecord
  2
BYBLOCK
 70
0
  3

 72
65
 73
0
 40
0.0
  0
LTYPE
  5
54
100
AcDbSymbolTableRecord
100
AcDbLinetypeTableRecord
  2
DIVIDE
 70
0
  3
Divide ____ . . ____ . . ____ . . ____ . . ____
 72
65
 73
6
 40
31.75
 49
12.6999999999999993
 74
0
 49
-6.3499999999999996
 74
0
 49
0.0
 74
0
 49
-6.3499999999999996
 74
0
 49
0.0
 74
0
 49
-6.3499999999999996
 74
0
  0
LTYPE
  5
55
100
AcDbSymbolTableRecord
100
AcDbLinetypeTableRecord
  2
CENTER
 70
0
  3
Center ____ _ ____ _ ____ _ ____ _ ____ _ ____
 72
65
 73
4
 40
50.8000000000000043
 49
31.75
 74
0
 49
-6.3499999999999996
 74
0
 49
6.3499999999999996
 74
0
 49
-6.3499999999999996
 74
0
  0
LTYPE
  5
56
100
AcDbSymbolTableRecord
100
AcDbLinetypeTableRecord
  2
DASHED
 70
0
  3
Dashed __ __ __ __ __ __ __ __ __ __ __ __ __ _
 72
65
 73
2
 40
19.0499999999999972
 49
12.6999999999999993
 74
0
 49
-6.3499999999999996
 74
0
  0
ENDTAB
  0
TABLE
  2
LAYER
  5
2
100
AcDbSymbolTable
 70
3
  0
LAYER
  5
10
100
AcDbSymbolTableRecord
100
AcDbLayerTableRecord
  2
0
 70
0
 62
7
420
0
  6
Continuous
370
25
390
F
  0
LAYER
  5
57
100
AcDbSymbolTableRecord
100
AcDbLayerTableRecord
  2
text
 70
0
 62
7
420
0
  6
Continuous
370
25
390
F
  0
LAYER
  5
58
100
AcDbSymbolTableRecord
100
AcDbLayerTableRecord
  2
b
 70
0
 62
7
420
0
  6
Continuous
370
25
390
F
  0
ENDTAB
  0
TABLE
  2
STYLE
  5
3
100
AcDbSymbolTable
 70
28
  0
STYLE
  5
59
100
AcDbSymbolTableRecord
100
AcDbTextStyleTableRecord
  2
Standard
 70
0
 40
0.0
 41
1.0
 50
0.0
 71
0
 42
2.5
  3

  4

1001
ACAD
1000
txt
1071
0
  0
STYLE
  5
5A
100
AcDbSymbolTableRecord
100
AcDbTextStyleTableRecord
  2
textstyle0
 70
0
 40
0.0
 41
1.0
 50
0.0
 71
0
 42
1.0
  3

  4

1001
ACAD
1000
Liberation Sans
1071
33554432
  0
STYLE
  5
5B
100
AcDbSymbolTableRecord
100
AcDbTextStyleTableRecord
  2
textstyle1
 70
0
 40
0.0
 41
1.0
 50
0.0
 71
0
 42
1.0
  3

  4

1001
ACAD
1000
Liberation Sans
1071
33554432
  0
STYLE
  5
5C
100
AcDbSymbolTableRecord
100
AcDbTextStyleTableRecord
  2
textstyle2
 70
0
 40
0.0
 41
1.0
 50
0.0
 71
0
 42
1.0
  3

  4

1001
ACAD
1000
Liberation Sans
1071
33554432
  0
STYLE
  5
5D
100
AcDbSymbolTableRecord
100
AcDbTextStyleTableRecord
  2
textstyle3
 70
0
 40
0.0
 41
1.0
 50
0.0
 71
0
 42
1.0
  3

  4

1001
ACAD
1000
Liberation Sans
1071
33554432
  0
STYLE
  5
5E
100
AcDbSymbolTableRecord
100
AcDbTextStyleTableRecord
  2
textstyle4
 70
0
 40
0.0
 41
1.0
 50
0.0
 71
0
 42
1.0
  3

  4

1001
ACAD
1000
Liberation Sans
1071
33554432
  0
STYLE
  5
5F
100
AcDbSymbolTableRecord
100
AcDbTextStyleTableRecord
  2
textstyle5
 70
0
 40
0.0
 41
1.0
 50
0.0
 71
0
 42
1.0
  3

  4

1001
ACAD
1000
Liberation Sans
1071
33554432
  0
STYLE
  5
60
100
AcDbSymbolTableRecord
100
AcDbTextStyleTableRecord
  2
textstyle6
 70
0
 40
0.0
 41
1.0
 50
0.0
 71
0
 42
1.0
  3

  4

1001
ACAD
1000
Liberation Sans
1071
33554432
  0
STYLE
  5
61
100
AcDbSymbolTableRecord
100
AcDbTextStyleTableRecord
  2
textstyle7
 70
0
 40
0.0
 41
1.0
 50
0.0
 71
0
 42
1.0
  3

  4

1001
ACAD
1000
Liberation Sans
1071
33554432
  0
STYLE
  5
62
100
AcDbSymbolTableRecord
100
AcDbTextStyleTableRecord
  2
textstyle8
 70
0
 40
0.0
 41
1.0
 50
0.0
 71
0
 42
1.0
  3

  4

1001
ACAD
1000
Liberation Sans
1071
33554432
  0
STYLE
  5
63
100
AcDbSymbolTableRecord
100
AcDbTextStyleTableRecord
  2
textstyle9
 70
0
 40
0.0
 41
1.0
 50
0.0
 71
0
 42
1.0
  3

  4

1001
ACAD
1000
Liberation Sans
1071
33554432
  0
STYLE
  5
64
100
AcDbSymbolTableRecord
100
AcDbTextStyleTableRecord
  2
textstyle10
 70
0
 40
0.0
 41
1.0
 50
0.0
 71
0
 42
1.0
  3

  4

1001
ACAD
1000
Liberation Sans
1071
33554432
  0
STYLE
  5
65
100
AcDbSymbolTableRecord
100
AcDbTextStyleTableRecord
  2
textstyle11
 70
0
 40
0.0
 41
1.0
 50
0.0
 71
0
 42
1.0
  3

  4

1001
ACAD
1000
Liberation Sans
1071
33554432
  0
STYLE
  5
66
100
AcDbSymbolTableRecord
100
AcDbTextStyleTableRecord
  2
textstyle12
 70
0
 40
0.0
 41
1.0
 50
0.0
 71
0
 42
1.0
  3

  4

1001
ACAD
1000
Liberation Sans
1071
33554432
  0
STYLE
  5
67
100
AcDbSymbolTableRecord
100
AcDbTextStyleTableRecord
  2
textstyle13
 70
0
 40
0.0
 41
1.0
 50
0.0
 71
0
 42
1.0
  3

  4

1001
ACAD
1000
Liberation Sans
1071
33554432
  0
STYLE
  5
68
100
AcDbSymbolTableRecord
100
AcDbTextStyleTableRecord
  2
textstyle14
 70
0
 40
0.0
 41
1.0
 50
0.0
 71
0
 42
1.0
  3

  4

1001
ACAD
1000
Liberation Sans
1071
33554432
  0
STYLE
  5
69
100
AcDbSymbolTableRecord
100
AcDbTextStyleTableRecord
  2
textstyle15
 70
0
 40
0.0
 41
1.0
 50
0.0
 71
0
 42
1.0
  3

  4

1001
ACAD
1000
Liberation Sans
1071
33554432
  0
STYLE
  5
6A
100
AcDbSymbolTableRecord
100
AcDbTextStyleTableRecord
  2
textstyle16
 70
0
 40
0.0
 41
1.0
 50
0.0
 71
0
 42
1.0
  3

  4

1001
ACAD
1000
Liberation Sans
1071
33554432
  0
STYLE
  5
6B
100
AcDbSymbolTableRecord
100
AcDbTextStyleTableRecord
  2
textstyle17
 70
0
 40
0.0
 41
1.0
 50
0.0
 71
0
 42
1.0
  3

  4

1001
ACAD
1000
Liberation Sans
1071
33554432
  0
STYLE
  5
6C
100
AcDbSymbolTableRecord
100
AcDbTextStyleTableRecord
  2
textstyle18
 70
0
 40
0.0
 41
1.0
 50
0.0
 71
0
 42
1.0
  3

  4

1001
ACAD
1000
Liberation Sans
1071
33554432
  0
STYLE
  5
6D
100
AcDbSymbolTableRecord
100
AcDbTextStyleTableRecord
  2
textstyle19
 70
0
 40
0.0
 41
1.0
 50
0.0
 71
0
 42
1.0
  3

  4

1001
ACAD
1000
Liberation Sans
1071
33554432
  0
STYLE
  5
6E
100
AcDbSymbolTableRecord
100
AcDbTextStyleTableRecord
  2
textstyle20
 70
0
 40
0.0
 41
1.0
 50
0.0
 71
0
 42
1.0
  3

  4

1001
ACAD
1000
Liberation Sans
1071
33554432
  0
STYLE
  5
6F
100
AcDbSymbolTableRecord
100
AcDbTextStyleTableRecord
  2
textstyle21
 70
0
 40
0.0
 41
1.0
 50
0.0
 71
0
 42
1.0
  3

  4

1001
ACAD
1000
Liberation Sans
1071
33554432
  0
STYLE
  5
70
100
AcDbSymbolTableRecord
100
AcDbTextStyleTableRecord
  2
textstyle22
 70
0
 40
0.0
 41
1.0
 50
0.0
 71
0
 42
1.0
  3

  4

1001
ACAD
1000
Liberation Sans
1071
33554432
  0
STYLE
  5
71
100
AcDbSymbolTableRecord
100
AcDbTextStyleTableRecord
  2
textstyle23
 70
0
 40
0.0
 41
1.0
 50
0.0
 71
0
 42
1.0
  3

  4

1001
ACAD
1000
Liberation Sans
1071
33554432
  0
STYLE
  5
72
100
AcDbSymbolTableRecord
100
AcDbTextStyleTableRecord
  2
textstyle24
 70
0
 40
0.0
 41
1.0
 50
0.0
 71
0
 42
1.0
  3

  4

1001
ACAD
1000
Liberation Sans
1071
33554432
  0
STYLE
  5
73
100
AcDbSymbolTableRecord
100
AcDbTextStyleTableRecord
  2
textstyle25
 70
0
 40
0.0
 41
1.0
 50
0.0
 71
0
 42
1.0
  3

  4

1001
ACAD
1000
Liberation Sans
1071
33554432
  0
STYLE
  5
74
100
AcDbSymbolTableRecord
100
AcDbTextStyleTableRecord
  2
textstyle26
 70
0
 40
0.0
 41
1.0
 50
0.0
 71
0
 42
1.0
  3

  4

1001
ACAD
1000
Liberation Sans
1071
33554432
  0
ENDTAB
  0
TABLE
  2
VIEW
  5
6
100
AcDbSymbolTable
 70
0
  0
ENDTAB
  0
TABLE
  2
UCS
  5
7
100
AcDbSymbolTable
 70
0
  0
ENDTAB
  0
TABLE
  2
APPID
  5
9
100
AcDbSymbolTable
 70
1
  0
APPID
  5
12
100
AcDbSymbolTableRecord
100
AcDbRegAppTableRecord
  2
ACAD
 70
0
  0
APPID
  5
75
100
AcDbSymbolTableRecord
100
AcDbRegAppTableRecord
  2
QCAD
 70
0
  0
ENDTAB
  0
TABLE
  2
DIMSTYLE
  5
A
100
AcDbSymbolTable
 70
1
100
AcDbDimStyleTable
 71
0
  0
DIMSTYLE
105
27
100
AcDbSymbolTableRecord
100
AcDbDimStyleTableRecord
  2
Standard
 41
2.5
 42
0.625
 43
3.75
 44
1.25
 70
0
 73
0
 74
0
 77
1
 78
8
140
2.5
141
2.5
143
0.03937007874016
147
0.625
171
3
172
1
271
2
272
2
274
3
278
44
283
0
284
8
340
59
  0
ENDTAB
  0
TABLE
  2
BLOCK_RECORD
  5
1
100
AcDbSymbolTable
 70
1
  0
BLOCK_RECORD
  5
1F
100
AcDbSymbolTableRecord
100
AcDbBlockTableRecord
  2
*Model_Space
340
22
  0
BLOCK_RECORD
  5
1B
100
AcDbSymbolTableRecord
100
AcDbBlockTableRecord
  2
*Paper_Space
340
1E
  0
BLOCK_RECORD
  5
23
100
AcDbSymbolTableRecord
100
AcDbBlockTableRecord
  2
*Paper_Space0
340
26
  0
ENDTAB
  0
ENDSEC
  0
SECTION
  2
BLOCKS
  0
BLOCK
  5
20
100
AcDbEntity
  8
0
100
AcDbBlockBegin
  2
*Model_Space
 70
0
 10
0.0
 20
0.0
 30
0.0
  3
*Model_Space
  1

  0
ENDBLK
  5
21
100
AcDbEntity
  8
0
100
AcDbBlockEnd
  0
BLOCK
  5
1C
100
AcDbEntity
 67
1
  8
0
100
AcDbBlockBegin
  2
*Paper_Space
 70
0
 10
0.0
 20
0.0
 30
0.0
  3
*Paper_Space
  1

  0
ENDBLK
  5
1D
100
AcDbEntity
 67
1
  8
0
100
AcDbBlockEnd
  0
BLOCK
  5
24
100
AcDbEntity
  8
0
100
AcDbBlockBegin
  2
*Paper_Space0
 70
0
 10
0.0
 20
0.0
 30
0.0
  3
*Paper_Space0
  1

  0
ENDBLK
  5
25
100
AcDbEntity
  8
0
100
AcDbBlockEnd
  0
ENDSEC
  0
SECTION
  2
ENTITIES
  0
LINE
  5
76
100
AcDbEntity
100
AcDbLine
  8
0
 62
256
370
-1
 48
1.0
  6
BYLAYER
 10
0.0
 20
0.0
 30
0.0
 11
50.0
 21
0.0
 31
0.0
  0
LINE
  5
77
100
AcDbEntity
100
AcDbLine
  8
0
 62
256
370
-1
 48
1.0
  6
BYLAYER
 10
60.0
 20
0.0
 30
0.0
 11
110.0
 21
0.0
 31
0.0
  0
LINE
  5
78
100
AcDbEntity
100
AcDbLine
  8
0
 62
256
370
-1
 48
1.0
  6
BYLAYER
 10
120.0
 20
0.0
 30
0.0
 11
170.0
 21
0.0
 31
0.0
  0
LINE
  5
79
100
AcDbEntity
100
AcDbLine
  8
0
 62
256
370
-1
 48
1.0
  6
BYLAYER
 10
50.0
 20
0.0
 30
0.0
 11
50.0
 21
-24.0
 31
0.0
  0
LINE
  5
7A
100
AcDbEntity
100
AcDbLine
  8
0
 62
256
370
-1
 48
1.0
  6
BYLAYER
 10
110.0
 20
0.0
 30
0.0
 11
110.0
 21
-24.0
 31
0.0
  0
LINE
  5
7B
100
AcDbEntity
100
AcDbLine
  8
0
 62
256
370
-1
 48
1.0
  6
BYLAYER
 10
170.0
 20
0.0
 30
0.0
 11
170.0
 21
-24.0
 31
0.0
  0
LINE
  5
7C
100
AcDbEntity
100
AcDbLine
  8
0
 62
256
370
-1
 48
1.0
  6
BYLAYER
 10
50.0
 20
-24.0
 30
0.0
 11
0.0
 21
-24.0
 31
0.0
  0
LINE
  5
7D
100
AcDbEntity
100
AcDbLine
  8
0
 62
256
370
-1
 48
1.0
  6
BYLAYER
 10
110.0
 20
-24.0
 30
0.0
 11
60.0
 21
-24.0
 31
0.0
  0
LINE
  5
7E
100
AcDbEntity
100
AcDbLine
  8
0
 62
256
370
-1
 48
1.0
  6
BYLAYER
 10
170.0
 20
-24.0
 30
0.0
 11
120.0
 21
-24.0
 31
0.0
  0
LINE
  5
7F
100
AcDbEntity
100
AcDbLine
  8
0
 62
256
370
-1
 48
1.0
  6
BYLAYER
 10
0.0
 20
-24.0
 30
0.0
 11
0.0
 21
0.0
 31
0.0
  0
LINE
  5
80
100
AcDbEntity
100
AcDbLine
  8
0
 62
256
370
-1
 48
1.0
  6
BYLAYER
 10
60.0
 20
-24.0
 30
0.0
 11
60.0
 21
0.0
 31
0.0
  0
LINE
  5
81
100
AcDbEntity
100
AcDbLine
  8
0
 62
256
370
-1
 48
1.0
  6
BYLAYER
 10
120.0
 20
-24.0
 30
0.0
 11
120.0
 21
0.0
 31
0.0
  0
CIRCLE
  5
82
100
AcDbEntity
100
AcDbCircle
  8
b
 62
256
370
-1
 48
1.0
  6
BYLAYER
 10
38.5
 20
-4.4999999999999991
 30
0.0
 40
0.5
  0
CIRCLE
  5
83
100
AcDbEntity
100
AcDbCircle
  8
b
 62
256
370
-1
 48
1.0
  6
BYLAYER
 10
41.0
 20
-4.4999999999999982
 30
0.0
 40
0.5
  0
CIRCLE
  5
84
100
AcDbEntity
100
AcDbCircle
  8
b
 62
256
370
-1
 48
1.0
  6
BYLAYER
 10
28.5
 20
-4.4999999999999991
 30
0.0
 40
0.5
  0
CIRCLE
  5
85
100
AcDbEntity
100
AcDbCircle
  8
b
 62
256
370
-1
 48
1.0
  6
BYLAYER
 10
31.0
 20
-4.4999999999999991
 30
0.0
 40
0.5
  0
CIRCLE
  5
86
100
AcDbEntity
100
AcDbCircle
  8
b
 62
256
370
-1
 48
1.0
  6
BYLAYER
 10
36.0
 20
-4.4999999999999991
 30
0.0
 40
0.5
  0
CIRCLE
  5
87
100
AcDbEntity
100
AcDbCircle
  8
b
 62
256
370
-1
 48
1.0
  6
BYLAYER
 10
23.4999999999999964
 20
-4.5
 30
0.0
 40
0.5
  0
CIRCLE
  5
88
100
AcDbEntity
100
AcDbCircle
  8
b
 62
256
370
-1
 48
1.0
  6
BYLAYER
 10
25.9999999999999964
 20
-4.5
 30
0.0
 40
0.5
  0
CIRCLE
  5
89
100
AcDbEntity
100
AcDbCircle
  8
b
 62
256
370
-1
 48
1.0
  6
BYLAYER
 10
21.0
 20
-19.5
 30
0.0
 40
0.5
  0
CIRCLE
  5
8A
100
AcDbEntity
100
AcDbCircle
  8
b
 62
256
370
-1
 48
1.0
  6
BYLAYER
 10
23.5
 20
-19.4999999999999964
 30
0.0
 40
0.5
  0
CIRCLE
  5
8B
100
AcDbEntity
100
AcDbCircle
  8
b
 62
256
370
-1
 48
1.0
  6
BYLAYER
 10
11.0
 20
-19.5
 30
0.0
 40
0.5
  0
CIRCLE
  5
8C
100
AcDbEntity
100
AcDbCircle
  8
b
 62
256
370
-1
 48
1.0
  6
BYLAYER
 10
13.5
 20
-19.5
 30
0.0
 40
0.5
  0
CIRCLE
  5
8D
100
AcDbEntity
100
AcDbCircle
  8
b
 62
256
370
-1
 48
1.0
  6
BYLAYER
 10
16.0
 20
-19.5
 30
0.0
 40
0.5
  0
CIRCLE
  5
8E
100
AcDbEntity
100
AcDbCircle
  8
b
 62
256
370
-1
 48
1.0
  6
BYLAYER
 10
18.5
 20
-19.5
 30
0.0
 40
0.5
  0
CIRCLE
  5
8F
100
AcDbEntity
100
AcDbCircle
  8
b
 62
256
370
-1
 48
1.0
  6
BYLAYER
 10
5.9999999999999991
 20
-19.5
 30
0.0
 40
0.5
  0
CIRCLE
  5
90
100
AcDbEntity
100
AcDbCircle
  8
b
 62
256
370
-1
 48
1.0
  6
BYLAYER
 10
8.5
 20
-19.5
 30
0.0
 40
0.5
  0
CIRCLE
  5
91
100
AcDbEntity
100
AcDbCircle
  8
b
 62
256
370
-1
 48
1.0
  6
BYLAYER
 10
43.4999999999999929
 20
-19.5
 30
0.0
 40
0.5
  0
CIRCLE
  5
92
100
AcDbEntity
100
AcDbCircle
  8
b
 62
256
370
-1
 48
1.0
  6
BYLAYER
 10
43.4999999999999929
 20
-17.0
 30
0.0
 40
0.5
  0
CIRCLE
  5
93
100
AcDbEntity
100
AcDbCircle
  8
b
 62
256
370
-1
 48
1.0
  6
BYLAYER
 10
43.4999999999999929
 20
-14.5
 30
0.0
 40
0.5
  0
CIRCLE
  5
94
100
AcDbEntity
100
AcDbCircle
  8
b
 62
256
370
-1
 48
1.0
  6
BYLAYER
 10
43.4999999999999929
 20
-12.0
 30
0.0
 40
0.5
  0
CIRCLE
  5
95
100
AcDbEntity
100
AcDbCircle
  8
b
 62
256
370
-1
 48
1.0
  6
BYLAYER
 10
43.4999999999999929
 20
-9.5
 30
0.0
 40
0.5
  0
CIRCLE
  5
96
100
AcDbEntity
100
AcDbCircle
  8
b
 62
256
370
-1
 48
1.0
  6
BYLAYER
 10
31.0
 20
-1.9999999999999978
 30
0.0
 40
0.5
  0
CIRCLE
  5
97
100
AcDbEntity
100
AcDbCircle
  8
b
 62
256
370
-1
 48
1.0
  6
BYLAYER
 10
33.5
 20
-1.9999999999999976
 30
0.0
 40
0.5
  0
CIRCLE
  5
98
100
AcDbEntity
100
AcDbCircle
  8
b
 62
256
370
-1
 48
1.0
  6
BYLAYER
 10
21.0
 20
-1.9999999999999987
 30
0.0
 40
0.5
  0
CIRCLE
  5
99
100
AcDbEntity
100
AcDbCircle
  8
b
 62
256
370
-1
 48
1.0
  6
BYLAYER
 10
23.5
 20
-1.9999999999999984
 30
0.0
 40
0.5
  0
CIRCLE
  5
9A
100
AcDbEntity
100
AcDbCircle
  8
b
 62
256
370
-1
 48
1.0
  6
BYLAYER
 10
26.0
 20
-1.9999999999999982
 30
0.0
 40
0.5
  0
CIRCLE
  5
9B
100
AcDbEntity
100
AcDbCircle
  8
b
 62
256
370
-1
 48
1.0
  6
BYLAYER
 10
28.5
 20
-1.999999999999998
 30
0.0
 40
0.5
  0
CIRCLE
  5
9C
100
AcDbEntity
100
AcDbCircle
  8
b
 62
256
370
-1
 48
1.0
  6
BYLAYER
 10
11.0
 20
-1.9999999999999996
 30
0.0
 40
0.5
  0
CIRCLE
  5
9D
100
AcDbEntity
100
AcDbCircle
  8
b
 62
256
370
-1
 48
1.0
  6
BYLAYER
 10
13.5
 20
-1.9999999999999993
 30
0.0
 40
0.5
  0
CIRCLE
  5
9E
100
AcDbEntity
100
AcDbCircle
  8
b
 62
256
370
-1
 48
1.0
  6
BYLAYER
 10
16.0
 20
-1.9999999999999991
 30
0.0
 40
0.5
  0
CIRCLE
  5
9F
100
AcDbEntity
100
AcDbCircle
  8
b
 62
256
370
-1
 48
1.0
  6
BYLAYER
 10
18.5
 20
-1.9999999999999989
 30
0.0
 40
0.5
  0
CIRCLE
  5
A0
100
AcDbEntity
100
AcDbCircle
  8
b
 62
256
370
-1
 48
1.0
  6
BYLAYER
 10
6.0
 20
-2.0
 30
0.0
 40
0.5
  0
CIRCLE
  5
A1
100
AcDbEntity
100
AcDbCircle
  8
b
 62
256
370
-1
 48
1.0
  6
BYLAYER
 10
8.5
 20
-1.9999999999999998
 30
0.0
 40
0.5
  0
CIRCLE
  5
A2
100
AcDbEntity
100
AcDbCircle
  8
b
 62
256
370
-1
 48
1.0
  6
BYLAYER
 10
71.0
 20
-1.9999999999999996
 30
0.0
 40
0.5
  0
CIRCLE
  5
A3
100
AcDbEntity
100
AcDbCircle
  8
b
 62
256
370
-1
 48
1.0
  6
BYLAYER
 10
73.5
 20
-1.9999999999999993
 30
0.0
 40
0.5
  0
CIRCLE
  5
A4
100
AcDbEntity
100
AcDbCircle
  8
b
 62
256
370
-1
 48
1.0
  6
BYLAYER
 10
76.0
 20
-1.9999999999999991
 30
0.0
 40
0.5
  0
CIRCLE
  5
A5
100
AcDbEntity
100
AcDbCircle
  8
b
 62
256
370
-1
 48
1.0
  6
BYLAYER
 10
78.5
 20
-1.9999999999999989
 30
0.0
 40
0.5
  0
CIRCLE
  5
A6
100
AcDbEntity
100
AcDbCircle
  8
b
 62
256
370
-1
 48
1.0
  6
BYLAYER
 10
66.0
 20
-2.0
 30
0.0
 40
0.5
  0
CIRCLE
  5
A7
100
AcDbEntity
100
AcDbCircle
  8
b
 62
256
370
-1
 48
1.0
  6
BYLAYER
 10
68.5
 20
-1.9999999999999998
 30
0.0
 40
0.5
  0
CIRCLE
  5
A8
100
AcDbEntity
100
AcDbCircle
  8
b
 62
256
370
-1
 48
1.0
  6
BYLAYER
 10
93.5
 20
-1.9999999999999976
 30
0.0
 40
0.5
  0
CIRCLE
  5
A9
100
AcDbEntity
100
AcDbCircle
  8
b
 62
256
370
-1
 48
1.0
  6
BYLAYER
 10
81.0
 20
-1.9999999999999987
 30
0.0
 40
0.5
  0
CIRCLE
  5
AA
100
AcDbEntity
100
AcDbCircle
  8
b
 62
256
370
-1
 48
1.0
  6
BYLAYER
 10
83.5
 20
-1.9999999999999984
 30
0.0
 40
0.5
  0
CIRCLE
  5
AB
100
AcDbEntity
100
AcDbCircle
  8
b
 62
256
370
-1
 48
1.0
  6
BYLAYER
 10
86.0
 20
-1.9999999999999982
 30
0.0
 40
0.5
  0
CIRCLE
  5
AC
100
AcDbEntity
100
AcDbCircle
  8
b
 62
256
370
-1
 48
1.0
  6
BYLAYER
 10
88.5
 20
-1.999999999999998
 30
0.0
 40
0.5
  0
CIRCLE
  5
AD
100
AcDbEntity
100
AcDbCircle
  8
b
 62
256
370
-1
 48
1.0
  6
BYLAYER
 10
106.0
 20
-19.5
 30
0.0
 40
0.5
  0
CIRCLE
  5
AE
100
AcDbEntity
100
AcDbCircle
  8
b
 62
256
370
-1
 48
1.0
  6
BYLAYER
 10
106.0
 20
-17.0
 30
0.0
 40
0.5
  0
CIRCLE
  5
AF
100
AcDbEntity
100
AcDbCircle
  8
b
 62
256
370
-1
 48
1.0
  6
BYLAYER
 10
96.0
 20
-6.9999999999999991
 30
0.0
 40
0.5
  0
CIRCLE
  5
B0
100
AcDbEntity
100
AcDbCircle
  8
b
 62
256
370
-1
 48
1.0
  6
BYLAYER
 10
33.5
 20
-7.0
 30
0.0
 40
0.5
  0
CIRCLE
  5
B1
100
AcDbEntity
100
AcDbCircle
  8
b
 62
256
370
-1
 48
1.0
  6
BYLAYER
 10
33.5
 20
-4.5
 30
0.0
 40
0.5
  0
CIRCLE
  5
B2
100
AcDbEntity
100
AcDbCircle
  8
b
 62
256
370
-1
 48
1.0
  6
BYLAYER
 10
98.5
 20
-4.4999999999999991
 30
0.0
 40
0.5
  0
CIRCLE
  5
B3
100
AcDbEntity
100
AcDbCircle
  8
b
 62
256
370
-1
 48
1.0
  6
BYLAYER
 10
101.0
 20
-4.4999999999999982
 30
0.0
 40
0.5
  0
CIRCLE
  5
B4
100
AcDbEntity
100
AcDbCircle
  8
b
 62
256
370
-1
 48
1.0
  6
BYLAYER
 10
88.5
 20
-4.4999999999999991
 30
0.0
 40
0.5
  0
CIRCLE
  5
B5
100
AcDbEntity
100
AcDbCircle
  8
b
 62
256
370
-1
 48
1.0
  6
BYLAYER
 10
91.0
 20
-4.4999999999999991
 30
0.0
 40
0.5
  0
CIRCLE
  5
B6
100
AcDbEntity
100
AcDbCircle
  8
b
 62
256
370
-1
 48
1.0
  6
BYLAYER
 10
96.0
 20
-4.4999999999999991
 30
0.0
 40
0.5
  0
CIRCLE
  5
B7
100
AcDbEntity
100
AcDbCircle
  8
b
 62
256
370
-1
 48
1.0
  6
BYLAYER
 10
83.5
 20
-4.5
 30
0.0
 40
0.5
  0
CIRCLE
  5
B8
100
AcDbEntity
100
AcDbCircle
  8
b
 62
256
370
-1
 48
1.0
  6
BYLAYER
 10
93.5
 20
-7.0
 30
0.0
 40
0.5
  0
CIRCLE
  5
B9
100
AcDbEntity
100
AcDbCircle
  8
b
 62
256
370
-1
 48
1.0
  6
BYLAYER
 10
66.0
 20
-19.5
 30
0.0
 40
0.5
  0
CIRCLE
  5
BA
100
AcDbEntity
100
AcDbCircle
  8
b
 62
256
370
-1
 48
1.0
  6
BYLAYER
 10
68.5
 20
-19.5
 30
0.0
 40
0.5
  0
CIRCLE
  5
BB
100
AcDbEntity
100
AcDbCircle
  8
b
 62
256
370
-1
 48
1.0
  6
BYLAYER
 10
103.5
 20
-19.5
 30
0.0
 40
0.5
  0
CIRCLE
  5
BC
100
AcDbEntity
100
AcDbCircle
  8
b
 62
256
370
-1
 48
1.0
  6
BYLAYER
 10
103.5
 20
-17.0
 30
0.0
 40
0.5
  0
CIRCLE
  5
BD
100
AcDbEntity
100
AcDbCircle
  8
b
 62
256
370
-1
 48
1.0
  6
BYLAYER
 10
103.5
 20
-14.5
 30
0.0
 40
0.5
  0
CIRCLE
  5
BE
100
AcDbEntity
100
AcDbCircle
  8
b
 62
256
370
-1
 48
1.0
  6
BYLAYER
 10
103.5
 20
-12.0
 30
0.0
 40
0.5
  0
CIRCLE
  5
BF
100
AcDbEntity
100
AcDbCircle
  8
b
 62
256
370
-1
 48
1.0
  6
BYLAYER
 10
103.5
 20
-9.5
 30
0.0
 40
0.5
  0
CIRCLE
  5
C0
100
AcDbEntity
100
AcDbCircle
  8
b
 62
256
370
-1
 48
1.0
  6
BYLAYER
 10
91.0
 20
-1.9999999999999978
 30
0.0
 40
0.5
  0
CIRCLE
  5
C1
100
AcDbEntity
100
AcDbCircle
  8
b
 62
256
370
-1
 48
1.0
  6
BYLAYER
 10
93.5
 20
-4.5
 30
0.0
 40
0.5
  0
CIRCLE
  5
C2
100
AcDbEntity
100
AcDbCircle
  8
b
 62
256
370
-1
 48
1.0
  6
BYLAYER
 10
86.0
 20
-4.5
 30
0.0
 40
0.5
  0
CIRCLE
  5
C3
100
AcDbEntity
100
AcDbCircle
  8
b
 62
256
370
-1
 48
1.0
  6
BYLAYER
 10
81.0
 20
-19.5
 30
0.0
 40
0.5
  0
CIRCLE
  5
C4
100
AcDbEntity
100
AcDbCircle
  8
b
 62
256
370
-1
 48
1.0
  6
BYLAYER
 10
83.5
 20
-19.4999999999999964
 30
0.0
 40
0.5
  0
CIRCLE
  5
C5
100
AcDbEntity
100
AcDbCircle
  8
b
 62
256
370
-1
 48
1.0
  6
BYLAYER
 10
71.0
 20
-19.5
 30
0.0
 40
0.5
  0
CIRCLE
  5
C6
100
AcDbEntity
100
AcDbCircle
  8
b
 62
256
370
-1
 48
1.0
  6
BYLAYER
 10
73.5
 20
-19.5
 30
0.0
 40
0.5
  0
CIRCLE
  5
C7
100
AcDbEntity
100
AcDbCircle
  8
b
 62
256
370
-1
 48
1.0
  6
BYLAYER
 10
76.0
 20
-19.5
 30
0.0
 40
0.5
  0
CIRCLE
  5
C8
100
AcDbEntity
100
AcDbCircle
  8
b
 62
256
370
-1
 48
1.0
  6
BYLAYER
 10
78.5
 20
-19.5
 30
0.0
 40
0.5
  0
CIRCLE
  5
C9
100
AcDbEntity
100
AcDbCircle
  8
b
 62
256
370
-1
 48
1.0
  6
BYLAYER
 10
45.9999999999999929
 20
-19.5
 30
0.0
 40
0.5
  0
CIRCLE
  5
CA
100
AcDbEntity
100
AcDbCircle
  8
b
 62
256
370
-1
 48
1.0
  6
BYLAYER
 10
45.9999999999999929
 20
-17.0
 30
0.0
 40
0.5
  0
CIRCLE
  5
CB
100
AcDbEntity
100
AcDbCircle
  8
b
 62
256
370
-1
 48
1.0
  6
BYLAYER
 10
36.0
 20
-6.9999999999999991
 30
0.0
 40
0.5
  0
CIRCLE
  5
CC
100
AcDbEntity
100
AcDbCircle
  8
b
 62
256
370
-1
 48
1.0
  6
BYLAYER
 10
131.0
 20
-1.9999999999999996
 30
0.0
 40
0.5
  0
CIRCLE
  5
CD
100
AcDbEntity
100
AcDbCircle
  8
b
 62
256
370
-1
 48
1.0
  6
BYLAYER
 10
133.5
 20
-1.9999999999999993
 30
0.0
 40
0.5
  0
CIRCLE
  5
CE
100
AcDbEntity
100
AcDbCircle
  8
b
 62
256
370
-1
 48
1.0
  6
BYLAYER
 10
136.0
 20
-1.9999999999999991
 30
0.0
 40
0.5
  0
CIRCLE
  5
CF
100
AcDbEntity
100
AcDbCircle
  8
b
 62
256
370
-1
 48
1.0
  6
BYLAYER
 10
138.5
 20
-1.9999999999999989
 30
0.0
 40
0.5
  0
CIRCLE
  5
D0
100
AcDbEntity
100
AcDbCircle
  8
b
 62
256
370
-1
 48
1.0
  6
BYLAYER
 10
126.0
 20
-2.0
 30
0.0
 40
0.5
  0
CIRCLE
  5
D1
100
AcDbEntity
100
AcDbCircle
  8
b
 62
256
370
-1
 48
1.0
  6
BYLAYER
 10
128.5
 20
-1.9999999999999998
 30
0.0
 40
0.5
  0
CIRCLE
  5
D2
100
AcDbEntity
100
AcDbCircle
  8
b
 62
256
370
-1
 48
1.0
  6
BYLAYER
 10
153.5
 20
-1.9999999999999976
 30
0.0
 40
0.5
  0
CIRCLE
  5
D3
100
AcDbEntity
100
AcDbCircle
  8
b
 62
256
370
-1
 48
1.0
  6
BYLAYER
 10
141.0
 20
-1.9999999999999987
 30
0.0
 40
0.5
  0
CIRCLE
  5
D4
100
AcDbEntity
100
AcDbCircle
  8
b
 62
256
370
-1
 48
1.0
  6
BYLAYER
 10
143.5
 20
-1.9999999999999984
 30
0.0
 40
0.5
  0
CIRCLE
  5
D5
100
AcDbEntity
100
AcDbCircle
  8
b
 62
256
370
-1
 48
1.0
  6
BYLAYER
 10
146.0
 20
-1.9999999999999982
 30
0.0
 40
0.5
  0
CIRCLE
  5
D6
100
AcDbEntity
100
AcDbCircle
  8
b
 62
256
370
-1
 48
1.0
  6
BYLAYER
 10
148.5
 20
-1.999999999999998
 30
0.0
 40
0.5
  0
CIRCLE
  5
D7
100
AcDbEntity
100
AcDbCircle
  8
b
 62
256
370
-1
 48
1.0
  6
BYLAYER
 10
166.0
 20
-19.5
 30
0.0
 40
0.5
  0
CIRCLE
  5
D8
100
AcDbEntity
100
AcDbCircle
  8
b
 62
256
370
-1
 48
1.0
  6
BYLAYER
 10
166.0
 20
-17.0
 30
0.0
 40
0.5
  0
CIRCLE
  5
D9
100
AcDbEntity
100
AcDbCircle
  8
b
 62
256
370
-1
 48
1.0
  6
BYLAYER
 10
156.0
 20
-6.9999999999999991
 30
0.0
 40
0.5
  0
CIRCLE
  5
DA
100
AcDbEntity
100
AcDbCircle
  8
b
 62
256
370
-1
 48
1.0
  6
BYLAYER
 10
158.5
 20
-4.4999999999999991
 30
0.0
 40
0.5
  0
CIRCLE
  5
DB
100
AcDbEntity
100
AcDbCircle
  8
b
 62
256
370
-1
 48
1.0
  6
BYLAYER
 10
161.0
 20
-4.4999999999999982
 30
0.0
 40
0.5
  0
CIRCLE
  5
DC
100
AcDbEntity
100
AcDbCircle
  8
b
 62
256
370
-1
 48
1.0
  6
BYLAYER
 10
148.5
 20
-4.4999999999999991
 30
0.0
 40
0.5
  0
CIRCLE
  5
DD
100
AcDbEntity
100
AcDbCircle
  8
b
 62
256
370
-1
 48
1.0
  6
BYLAYER
 10
151.0
 20
-4.4999999999999991
 30
0.0
 40
0.5
  0
CIRCLE
  5
DE
100
AcDbEntity
100
AcDbCircle
  8
b
 62
256
370
-1
 48
1.0
  6
BYLAYER
 10
156.0
 20
-4.4999999999999991
 30
0.0
 40
0.5
  0
CIRCLE
  5
DF
100
AcDbEntity
100
AcDbCircle
  8
b
 62
256
370
-1
 48
1.0
  6
BYLAYER
 10
143.5
 20
-4.5
 30
0.0
 40
0.5
  0
CIRCLE
  5
E0
100
AcDbEntity
100
AcDbCircle
  8
b
 62
256
370
-1
 48
1.0
  6
BYLAYER
 10
153.5
 20
-7.0
 30
0.0
 40
0.5
  0
CIRCLE
  5
E1
100
AcDbEntity
100
AcDbCircle
  8
b
 62
256
370
-1
 48
1.0
  6
BYLAYER
 10
126.0
 20
-19.5
 30
0.0
 40
0.5
  0
CIRCLE
  5
E2
100
AcDbEntity
100
AcDbCircle
  8
b
 62
256
370
-1
 48
1.0
  6
BYLAYER
 10
128.5
 20
-19.5
 30
0.0
 40
0.5
  0
CIRCLE
  5
E3
100
AcDbEntity
100
AcDbCircle
  8
b
 62
256
370
-1
 48
1.0
  6
BYLAYER
 10
163.5
 20
-19.5
 30
0.0
 40
0.5
  0
CIRCLE
  5
E4
100
AcDbEntity
100
AcDbCircle
  8
b
 62
256
370
-1
 48
1.0
  6
BYLAYER
 10
163.5
 20
-17.0
 30
0.0
 40
0.5
  0
CIRCLE
  5
E5
100
AcDbEntity
100
AcDbCircle
  8
b
 62
256
370
-1
 48
1.0
  6
BYLAYER
 10
163.5
 20
-14.5
 30
0.0
 40
0.5
  0
CIRCLE
  5
E6
100
AcDbEntity
100
AcDbCircle
  8
b
 62
256
370
-1
 48
1.0
  6
BYLAYER
 10
163.5
 20
-12.0
 30
0.0
 40
0.5
  0
CIRCLE
  5
E7
100
AcDbEntity
100
AcDbCircle
  8
b
 62
256
370
-1
 48
1.0
  6
BYLAYER
 10
163.5
 20
-9.5
 30
0.0
 40
0.5
  0
CIRCLE
  5
E8
100
AcDbEntity
100
AcDbCircle
  8
b
 62
256
370
-1
 48
1.0
  6
BYLAYER
 10
151.0
 20
-1.9999999999999978
 30
0.0
 40
0.5
  0
CIRCLE
  5
E9
100
AcDbEntity
100
AcDbCircle
  8
b
 62
256
370
-1
 48
1.0
  6
BYLAYER
 10
153.5
 20
-4.5
 30
0.0
 40
0.5
  0
CIRCLE
  5
EA
100
AcDbEntity
100
AcDbCircle
  8
b
 62
256
370
-1
 48
1.0
  6
BYLAYER
 10
146.0
 20
-4.5
 30
0.0
 40
0.5
  0
CIRCLE
  5
EB
100
AcDbEntity
100
AcDbCircle
  8
b
 62
256
370
-1
 48
1.0
  6
BYLAYER
 10
141.0
 20
-19.5
 30
0.0
 40
0.5
  0
CIRCLE
  5
EC
100
AcDbEntity
100
AcDbCircle
  8
b
 62
256
370
-1
 48
1.0
  6
BYLAYER
 10
143.5
 20
-19.4999999999999964
 30
0.0
 40
0.5
  0
CIRCLE
  5
ED
100
AcDbEntity
100
AcDbCircle
  8
b
 62
256
370
-1
 48
1.0
  6
BYLAYER
 10
131.0
 20
-19.5
 30
0.0
 40
0.5
  0
CIRCLE
  5
EE
100
AcDbEntity
100
AcDbCircle
  8
b
 62
256
370
-1
 48
1.0
  6
BYLAYER
 10
133.5
 20
-19.5
 30
0.0
 40
0.5
  0
CIRCLE
  5
EF
100
AcDbEntity
100
AcDbCircle
  8
b
 62
256
370
-1
 48
1.0
  6
BYLAYER
 10
136.0
 20
-19.5
 30
0.0
 40
0.5
  0
CIRCLE
  5
F0
100
AcDbEntity
100
AcDbCircle
  8
b
 62
256
370
-1
 48
1.0
  6
BYLAYER
 10
138.5
 20
-19.5
 30
0.0
 40
0.5
  0
CIRCLE
  5
F1
100
AcDbEntity
100
AcDbCircle
  8
b
 62
256
370
-1
 48
1.0
  6
BYLAYER
 10
31.0
 20
-21.9999999999999964
 30
0.0
 40
0.5
  0
CIRCLE
  5
F2
100
AcDbEntity
100
AcDbCircle
  8
b
 62
256
370
-1
 48
1.0
  6
BYLAYER
 10
33.5
 20
-21.9999999999999964
 30
0.0
 40
0.5
  0
CIRCLE
  5
F3
100
AcDbEntity
100
AcDbCircle
  8
b
 62
256
370
-1
 48
1.0
  6
BYLAYER
 10
36.0
 20
-21.9999999999999964
 30
0.0
 40
0.5
  0
CIRCLE
  5
F4
100
AcDbEntity
100
AcDbCircle
  8
b
 62
256
370
-1
 48
1.0
  6
BYLAYER
 10
38.5
 20
-21.9999999999999964
 30
0.0
 40
0.5
  0
CIRCLE
  5
F5
100
AcDbEntity
100
AcDbCircle
  8
b
 62
256
370
-1
 48
1.0
  6
BYLAYER
 10
41.0
 20
-21.9999999999999964
 30
0.0
 40
0.5
  0
CIRCLE
  5
F6
100
AcDbEntity
100
AcDbCircle
  8
b
 62
256
370
-1
 48
1.0
  6
BYLAYER
 10
21.0
 20
-22.0
 30
0.0
 40
0.5
  0
CIRCLE
  5
F7
100
AcDbEntity
100
AcDbCircle
  8
b
 62
256
370
-1
 48
1.0
  6
BYLAYER
 10
23.5
 20
-22.0
 30
0.0
 40
0.5
  0
CIRCLE
  5
F8
100
AcDbEntity
100
AcDbCircle
  8
b
 62
256
370
-1
 48
1.0
  6
BYLAYER
 10
26.0
 20
-22.0
 30
0.0
 40
0.5
  0
CIRCLE
  5
F9
100
AcDbEntity
100
AcDbCircle
  8
b
 62
256
370
-1
 48
1.0
  6
BYLAYER
 10
28.5
 20
-21.9999999999999964
 30
0.0
 40
0.5
  0
CIRCLE
  5
FA
100
AcDbEntity
100
AcDbCircle
  8
b
 62
256
370
-1
 48
1.0
  6
BYLAYER
 10
43.5
 20
-21.9999999999999964
 30
0.0
 40
0.5
  0
CIRCLE
  5
FB
100
AcDbEntity
100
AcDbCircle
  8
b
 62
256
370
-1
 48
1.0
  6
BYLAYER
 10
11.0
 20
-22.0
 30
0.0
 40
0.5
  0
CIRCLE
  5
FC
100
AcDbEntity
100
AcDbCircle
  8
b
 62
256
370
-1
 48
1.0
  6
BYLAYER
 10
13.5
 20
-22.0
 30
0.0
 40
0.5
  0
CIRCLE
  5
FD
100
AcDbEntity
100
AcDbCircle
  8
b
 62
256
370
-1
 48
1.0
  6
BYLAYER
 10
16.0
 20
-22.0
 30
0.0
 40
0.5
  0
CIRCLE
  5
FE
100
AcDbEntity
100
AcDbCircle
  8
b
 62
256
370
-1
 48
1.0
  6
BYLAYER
 10
18.5
 20
-22.0
 30
0.0
 40
0.5
  0
CIRCLE
  5
FF
100
AcDbEntity
100
AcDbCircle
  8
b
 62
256
370
-1
 48
1.0
  6
BYLAYER
 10
6.0
 20
-22.0
 30
0.0
 40
0.5
  0
CIRCLE
  5
100
100
AcDbEntity
100
AcDbCircle
  8
b
 62
256
370
-1
 48
1.0
  6
BYLAYER
 10
8.5
 20
-22.0
 30
0.0
 40
0.5
  0
CIRCLE
  5
101
100
AcDbEntity
100
AcDbCircle
  8
b
 62
256
370
-1
 48
1.0
  6
BYLAYER
 10
91.0
 20
-21.9999999999999964
 30
0.0
 40
0.5
  0
CIRCLE
  5
102
100
AcDbEntity
100
AcDbCircle
  8
b
 62
256
370
-1
 48
1.0
  6
BYLAYER
 10
93.5
 20
-21.9999999999999964
 30
0.0
 40
0.5
  0
CIRCLE
  5
103
100
AcDbEntity
100
AcDbCircle
  8
b
 62
256
370
-1
 48
1.0
  6
BYLAYER
 10
71.0
 20
-22.0
 30
0.0
 40
0.5
  0
CIRCLE
  5
104
100
AcDbEntity
100
AcDbCircle
  8
b
 62
256
370
-1
 48
1.0
  6
BYLAYER
 10
73.5
 20
-22.0
 30
0.0
 40
0.5
  0
CIRCLE
  5
105
100
AcDbEntity
100
AcDbCircle
  8
b
 62
256
370
-1
 48
1.0
  6
BYLAYER
 10
76.0
 20
-22.0
 30
0.0
 40
0.5
  0
CIRCLE
  5
106
100
AcDbEntity
100
AcDbCircle
  8
b
 62
256
370
-1
 48
1.0
  6
BYLAYER
 10
78.5
 20
-22.0
 30
0.0
 40
0.5
  0
CIRCLE
  5
107
100
AcDbEntity
100
AcDbCircle
  8
b
 62
256
370
-1
 48
1.0
  6
BYLAYER
 10
66.0
 20
-22.0
 30
0.0
 40
0.5
  0
CIRCLE
  5
108
100
AcDbEntity
100
AcDbCircle
  8
b
 62
256
370
-1
 48
1.0
  6
BYLAYER
 10
68.5
 20
-22.0
 30
0.0
 40
0.5
  0
CIRCLE
  5
109
100
AcDbEntity
100
AcDbCircle
  8
b
 62
256
370
-1
 48
1.0
  6
BYLAYER
 10
96.0
 20
-21.9999999999999964
 30
0.0
 40
0.5
  0
CIRCLE
  5
10A
100
AcDbEntity
100
AcDbCircle
  8
b
 62
256
370
-1
 48
1.0
  6
BYLAYER
 10
98.5
 20
-21.9999999999999964
 30
0.0
 40
0.5
  0
CIRCLE
  5
10B
100
AcDbEntity
100
AcDbCircle
  8
b
 62
256
370
-1
 48
1.0
  6
BYLAYER
 10
101.0
 20
-21.9999999999999964
 30
0.0
 40
0.5
  0
CIRCLE
  5
10C
100
AcDbEntity
100
AcDbCircle
  8
b
 62
256
370
-1
 48
1.0
  6
BYLAYER
 10
81.0
 20
-22.0
 30
0.0
 40
0.5
  0
CIRCLE
  5
10D
100
AcDbEntity
100
AcDbCircle
  8
b
 62
256
370
-1
 48
1.0
  6
BYLAYER
 10
83.5
 20
-22.0
 30
0.0
 40
0.5
  0
CIRCLE
  5
10E
100
AcDbEntity
100
AcDbCircle
  8
b
 62
256
370
-1
 48
1.0
  6
BYLAYER
 10
86.0
 20
-22.0
 30
0.0
 40
0.5
  0
CIRCLE
  5
10F
100
AcDbEntity
100
AcDbCircle
  8
b
 62
256
370
-1
 48
1.0
  6
BYLAYER
 10
88.5
 20
-21.9999999999999964
 30
0.0
 40
0.5
  0
CIRCLE
  5
110
100
AcDbEntity
100
AcDbCircle
  8
b
 62
256
370
-1
 48
1.0
  6
BYLAYER
 10
103.5
 20
-21.9999999999999964
 30
0.0
 40
0.5
  0
CIRCLE
  5
111
100
AcDbEntity
100
AcDbCircle
  8
b
 62
256
370
-1
 48
1.0
  6
BYLAYER
 10
151.0
 20
-21.9999999999999964
 30
0.0
 40
0.5
  0
CIRCLE
  5
112
100
AcDbEntity
100
AcDbCircle
  8
b
 62
256
370
-1
 48
1.0
  6
BYLAYER
 10
153.5
 20
-21.9999999999999964
 30
0.0
 40
0.5
  0
CIRCLE
  5
113
100
AcDbEntity
100
AcDbCircle
  8
b
 62
256
370
-1
 48
1.0
  6
BYLAYER
 10
131.0
 20
-22.0
 30
0.0
 40
0.5
  0
CIRCLE
  5
114
100
AcDbEntity
100
AcDbCircle
  8
b
 62
256
370
-1
 48
1.0
  6
BYLAYER
 10
133.5
 20
-22.0
 30
0.0
 40
0.5
  0
CIRCLE
  5
115
100
AcDbEntity
100
AcDbCircle
  8
b
 62
256
370
-1
 48
1.0
  6
BYLAYER
 10
136.0
 20
-22.0
 30
0.0
 40
0.5
  0
CIRCLE
  5
116
100
AcDbEntity
100
AcDbCircle
  8
b
 62
256
370
-1
 48
1.0
  6
BYLAYER
 10
138.5
 20
-22.0
 30
0.0
 40
0.5
  0
CIRCLE
  5
117
100
AcDbEntity
100
AcDbCircle
  8
b
 62
256
370
-1
 48
1.0
  6
BYLAYER
 10
126.0
 20
-22.0
 30
0.0
 40
0.5
  0
CIRCLE
  5
118
100
AcDbEntity
100
AcDbCircle
  8
b
 62
256
370
-1
 48
1.0
  6
BYLAYER
 10
128.5
 20
-22.0
 30
0.0
 40
0.5
  0
CIRCLE
  5
119
100
AcDbEntity
100
AcDbCircle
  8
b
 62
256
370
-1
 48
1.0
  6
BYLAYER
 10
156.0
 20
-21.9999999999999964
 30
0.0
 40
0.5
  0
CIRCLE
  5
11A
100
AcDbEntity
100
AcDbCircle
  8
b
 62
256
370
-1
 48
1.0
  6
BYLAYER
 10
158.5
 20
-21.9999999999999964
 30
0.0
 40
0.5
  0
CIRCLE
  5
11B
100
AcDbEntity
100
AcDbCircle
  8
b
 62
256
370
-1
 48
1.0
  6
BYLAYER
 10
161.0
 20
-21.9999999999999964
 30
0.0
 40
0.5
  0
CIRCLE
  5
11C
100
AcDbEntity
100
AcDbCircle
  8
b
 62
256
370
-1
 48
1.0
  6
BYLAYER
 10
141.0
 20
-22.0
 30
0.0
 40
0.5
  0
CIRCLE
  5
11D
100
AcDbEntity
100
AcDbCircle
  8
b
 62
256
370
-1
 48
1.0
  6
BYLAYER
 10
143.5
 20
-22.0
 30
0.0
 40
0.5
  0
CIRCLE
  5
11E
100
AcDbEntity
100
AcDbCircle
  8
b
 62
256
370
-1
 48
1.0
  6
BYLAYER
 10
146.0
 20
-22.0
 30
0.0
 40
0.5
  0
CIRCLE
  5
11F
100
AcDbEntity
100
AcDbCircle
  8
b
 62
256
370
-1
 48
1.0
  6
BYLAYER
 10
148.5
 20
-21.9999999999999964
 30
0.0
 40
0.5
  0
CIRCLE
  5
120
100
AcDbEntity
100
AcDbCircle
  8
b
 62
256
370
-1
 48
1.0
  6
BYLAYER
 10
163.5
 20
-21.9999999999999964
 30
0.0
 40
0.5
  0
ARC
  5
121
100
AcDbEntity
  8
b
 62
256
370
-1
 48
1.0
  6
BYLAYER
100
AcDbCircle
 10
6.0
 20
-2.0
 30
0.0
 40
1.0
100
AcDbArc
 50
300.0
 51
239.9999999999999432
  0
ARC
  5
122
100
AcDbEntity
  8
b
 62
256
370
-1
 48
1.0
  6
BYLAYER
100
AcDbCircle
 10
66.0
 20
-2.0
 30
0.0
 40
1.0
100
AcDbArc
 50
300.0
 51
239.9999999999999432
  0
ARC
  5
123
100
AcDbEntity
  8
b
 62
256
370
-1
 48
1.0
  6
BYLAYER
100
AcDbCircle
 10
126.0
 20
-2.0
 30
0.0
 40
1.0
100
AcDbArc
 50
300.0
 51
239.9999999999999432
  0
ARC
  5
124
100
AcDbEntity
  8
b
 62
256
370
-1
 48
1.0
  6
BYLAYER
100
AcDbCircle
 10
8.5
 20
-2.0
 30
0.0
 40
1.0
100
AcDbArc
 50
300.0
 51
239.9999999999999432
  0
ARC
  5
125
100
AcDbEntity
  8
b
 62
256
370
-1
 48
1.0
  6
BYLAYER
100
AcDbCircle
 10
68.5
 20
-2.0
 30
0.0
 40
1.0
100
AcDbArc
 50
300.0
 51
239.9999999999999432
  0
ARC
  5
126
100
AcDbEntity
  8
b
 62
256
370
-1
 48
1.0
  6
BYLAYER
100
AcDbCircle
 10
128.5
 20
-2.0
 30
0.0
 40
1.0
100
AcDbArc
 50
300.0
 51
239.9999999999999432
  0
CIRCLE
  5
127
100
AcDbEntity
100
AcDbCircle
  8
b
 62
256
370
-1
 48
1.0
  6
BYLAYER
 10
11.0
 20
-1.9999999999999996
 30
0.0
 40
1.0
  0
CIRCLE
  5
128
100
AcDbEntity
100
AcDbCircle
  8
b
 62
256
370
-1
 48
1.0
  6
BYLAYER
 10
71.0
 20
-1.9999999999999996
 30
0.0
 40
1.0
  0
CIRCLE
  5
129
100
AcDbEntity
100
AcDbCircle
  8
b
 62
256
370
-1
 48
1.0
  6
BYLAYER
 10
131.0
 20
-1.9999999999999996
 30
0.0
 40
1.0
  0
CIRCLE
  5
12A
100
AcDbEntity
100
AcDbCircle
  8
b
 62
256
370
-1
 48
1.0
  6
BYLAYER
 10
13.5
 20
-1.9999999999999991
 30
0.0
 40
1.0
  0
CIRCLE
  5
12B
100
AcDbEntity
100
AcDbCircle
  8
b
 62
256
370
-1
 48
1.0
  6
BYLAYER
 10
73.5
 20
-1.9999999999999991
 30
0.0
 40
1.0
  0
CIRCLE
  5
12C
100
AcDbEntity
100
AcDbCircle
  8
b
 62
256
370
-1
 48
1.0
  6
BYLAYER
 10
133.5
 20
-1.9999999999999991
 30
0.0
 40
1.0
  0
CIRCLE
  5
12D
100
AcDbEntity
100
AcDbCircle
  8
b
 62
256
370
-1
 48
1.0
  6
BYLAYER
 10
23.4999999999999964
 20
-4.5
 30
0.0
 40
1.0
  0
CIRCLE
  5
12E
100
AcDbEntity
100
AcDbCircle
  8
b
 62
256
370
-1
 48
1.0
  6
BYLAYER
 10
5.9999999999999991
 20
-19.5
 30
0.0
 40
1.0
  0
CIRCLE
  5
12F
100
AcDbEntity
100
AcDbCircle
  8
b
 62
256
370
-1
 48
1.0
  6
BYLAYER
 10
16.0
 20
-1.9999999999999991
 30
0.0
 40
1.0
  0
CIRCLE
  5
130
100
AcDbEntity
100
AcDbCircle
  8
b
 62
256
370
-1
 48
1.0
  6
BYLAYER
 10
83.5
 20
-4.5
 30
0.0
 40
1.0
  0
CIRCLE
  5
131
100
AcDbEntity
100
AcDbCircle
  8
b
 62
256
370
-1
 48
1.0
  6
BYLAYER
 10
66.0
 20
-19.5
 30
0.0
 40
1.0
  0
CIRCLE
  5
132
100
AcDbEntity
100
AcDbCircle
  8
b
 62
256
370
-1
 48
1.0
  6
BYLAYER
 10
76.0
 20
-1.9999999999999991
 30
0.0
 40
1.0
  0
CIRCLE
  5
133
100
AcDbEntity
100
AcDbCircle
  8
b
 62
256
370
-1
 48
1.0
  6
BYLAYER
 10
143.5
 20
-4.5
 30
0.0
 40
1.0
  0
CIRCLE
  5
134
100
AcDbEntity
100
AcDbCircle
  8
b
 62
256
370
-1
 48
1.0
  6
BYLAYER
 10
126.0
 20
-19.5
 30
0.0
 40
1.0
  0
CIRCLE
  5
135
100
AcDbEntity
100
AcDbCircle
  8
b
 62
256
370
-1
 48
1.0
  6
BYLAYER
 10
136.0
 20
-1.9999999999999991
 30
0.0
 40
1.0
  0
CIRCLE
  5
136
100
AcDbEntity
100
AcDbCircle
  8
b
 62
256
370
-1
 48
1.0
  6
BYLAYER
 10
25.9999999999999964
 20
-4.5
 30
0.0
 40
1.0
  0
CIRCLE
  5
137
100
AcDbEntity
100
AcDbCircle
  8
b
 62
256
370
-1
 48
1.0
  6
BYLAYER
 10
8.5
 20
-19.5
 30
0.0
 40
1.0
  0
CIRCLE
  5
138
100
AcDbEntity
100
AcDbCircle
  8
b
 62
256
370
-1
 48
1.0
  6
BYLAYER
 10
18.5
 20
-1.9999999999999991
 30
0.0
 40
1.0
  0
CIRCLE
  5
139
100
AcDbEntity
100
AcDbCircle
  8
b
 62
256
370
-1
 48
1.0
  6
BYLAYER
 10
86.0
 20
-4.5
 30
0.0
 40
1.0
  0
CIRCLE
  5
13A
100
AcDbEntity
100
AcDbCircle
  8
b
 62
256
370
-1
 48
1.0
  6
BYLAYER
 10
68.5
 20
-19.5
 30
0.0
 40
1.0
  0
CIRCLE
  5
13B
100
AcDbEntity
100
AcDbCircle
  8
b
 62
256
370
-1
 48
1.0
  6
BYLAYER
 10
78.5
 20
-1.9999999999999991
 30
0.0
 40
1.0
  0
CIRCLE
  5
13C
100
AcDbEntity
100
AcDbCircle
  8
b
 62
256
370
-1
 48
1.0
  6
BYLAYER
 10
146.0
 20
-4.5
 30
0.0
 40
1.0
  0
CIRCLE
  5
13D
100
AcDbEntity
100
AcDbCircle
  8
b
 62
256
370
-1
 48
1.0
  6
BYLAYER
 10
128.5
 20
-19.5
 30
0.0
 40
1.0
  0
CIRCLE
  5
13E
100
AcDbEntity
100
AcDbCircle
  8
b
 62
256
370
-1
 48
1.0
  6
BYLAYER
 10
138.5
 20
-1.9999999999999991
 30
0.0
 40
1.0
  0
CIRCLE
  5
13F
100
AcDbEntity
100
AcDbCircle
  8
b
 62
256
370
-1
 48
1.0
  6
BYLAYER
 10
28.5
 20
-4.4999999999999991
 30
0.0
 40
1.0
  0
CIRCLE
  5
140
100
AcDbEntity
100
AcDbCircle
  8
b
 62
256
370
-1
 48
1.0
  6
BYLAYER
 10
11.0
 20
-19.5
 30
0.0
 40
1.0
  0
CIRCLE
  5
141
100
AcDbEntity
100
AcDbCircle
  8
b
 62
256
370
-1
 48
1.0
  6
BYLAYER
 10
21.0
 20
-1.9999999999999987
 30
0.0
 40
1.0
  0
CIRCLE
  5
142
100
AcDbEntity
100
AcDbCircle
  8
b
 62
256
370
-1
 48
1.0
  6
BYLAYER
 10
88.5
 20
-4.4999999999999991
 30
0.0
 40
1.0
  0
CIRCLE
  5
143
100
AcDbEntity
100
AcDbCircle
  8
b
 62
256
370
-1
 48
1.0
  6
BYLAYER
 10
71.0
 20
-19.5
 30
0.0
 40
1.0
  0
CIRCLE
  5
144
100
AcDbEntity
100
AcDbCircle
  8
b
 62
256
370
-1
 48
1.0
  6
BYLAYER
 10
81.0
 20
-1.9999999999999987
 30
0.0
 40
1.0
  0
ARC
  5
145
100
AcDbEntity
  8
b
 62
256
370
-1
 48
1.0
  6
BYLAYER
100
AcDbCircle
 10
103.5
 20
-17.0
 30
0.0
 40
1.0
100
AcDbArc
 50
29.9999999999999289
 51
330.0000000000000568
  0
ARC
  5
146
100
AcDbEntity
  8
b
 62
256
370
-1
 48
1.0
  6
BYLAYER
100
AcDbCircle
 10
106.0
 20
-17.0
 30
0.0
 40
1.0
100
AcDbArc
 50
209.9999999999999432
 51
150.0000000000000853
  0
ARC
  5
147
100
AcDbEntity
  8
b
 62
256
370
-1
 48
1.0
  6
BYLAYER
100
AcDbCircle
 10
103.5
 20
-14.5
 30
0.0
 40
1.0
100
AcDbArc
 50
30.0000000000003091
 51
330.0000000000001705
  0
ARC
  5
148
100
AcDbEntity
  8
b
 62
256
370
-1
 48
1.0
  6
BYLAYER
100
AcDbCircle
 10
103.5
 20
-9.5
 30
0.0
 40
1.0
100
AcDbArc
 50
209.9999999999999432
 51
150.0000000000000853
  0
ARC
  5
149
100
AcDbEntity
  8
b
 62
256
370
-1
 48
1.0
  6
BYLAYER
100
AcDbCircle
 10
43.4999999999999929
 20
-17.0
 30
0.0
 40
1.0
100
AcDbArc
 50
29.9999999999999289
 51
330.0000000000000568
  0
ARC
  5
14A
100
AcDbEntity
  8
b
 62
256
370
-1
 48
1.0
  6
BYLAYER
100
AcDbCircle
 10
45.9999999999999929
 20
-17.0
 30
0.0
 40
1.0
100
AcDbArc
 50
209.9999999999999432
 51
150.0000000000000853
  0
ARC
  5
14B
100
AcDbEntity
  8
b
 62
256
370
-1
 48
1.0
  6
BYLAYER
100
AcDbCircle
 10
43.4999999999999929
 20
-14.5
 30
0.0
 40
1.0
100
AcDbArc
 50
30.0000000000003091
 51
330.0000000000001705
  0
ARC
  5
14C
100
AcDbEntity
  8
b
 62
256
370
-1
 48
1.0
  6
BYLAYER
100
AcDbCircle
 10
43.4999999999999929
 20
-9.5
 30
0.0
 40
1.0
100
AcDbArc
 50
209.9999999999999432
 51
150.0000000000000853
  0
CIRCLE
  5
14D
100
AcDbEntity
100
AcDbCircle
  8
b
 62
256
370
-1
 48
1.0
  6
BYLAYER
 10
148.5
 20
-4.4999999999999991
 30
0.0
 40
1.0
  0
CIRCLE
  5
14E
100
AcDbEntity
100
AcDbCircle
  8
b
 62
256
370
-1
 48
1.0
  6
BYLAYER
 10
131.0
 20
-19.5
 30
0.0
 40
1.0
  0
CIRCLE
  5
14F
100
AcDbEntity
100
AcDbCircle
  8
b
 62
256
370
-1
 48
1.0
  6
BYLAYER
 10
141.0
 20
-1.9999999999999987
 30
0.0
 40
1.0
  0
ARC
  5
150
100
AcDbEntity
  8
b
 62
256
370
-1
 48
1.0
  6
BYLAYER
100
AcDbCircle
 10
163.5
 20
-17.0
 30
0.0
 40
1.0
100
AcDbArc
 50
29.9999999999999289
 51
330.0000000000000568
  0
ARC
  5
151
100
AcDbEntity
  8
b
 62
256
370
-1
 48
1.0
  6
BYLAYER
100
AcDbCircle
 10
166.0
 20
-17.0
 30
0.0
 40
1.0
100
AcDbArc
 50
209.9999999999999432
 51
150.0000000000000853
  0
ARC
  5
152
100
AcDbEntity
  8
b
 62
256
370
-1
 48
1.0
  6
BYLAYER
100
AcDbCircle
 10
163.5
 20
-14.5
 30
0.0
 40
1.0
100
AcDbArc
 50
30.0000000000003091
 51
330.0000000000001705
  0
ARC
  5
153
100
AcDbEntity
  8
b
 62
256
370
-1
 48
1.0
  6
BYLAYER
100
AcDbCircle
 10
163.5
 20
-9.5
 30
0.0
 40
1.0
100
AcDbArc
 50
209.9999999999999432
 51
150.0000000000000853
  0
CIRCLE
  5
154
100
AcDbEntity
100
AcDbCircle
  8
b
 62
256
370
-1
 48
1.0
  6
BYLAYER
 10
31.0
 20
-4.4999999999999991
 30
0.0
 40
1.0
  0
CIRCLE
  5
155
100
AcDbEntity
100
AcDbCircle
  8
b
 62
256
370
-1
 48
1.0
  6
BYLAYER
 10
13.5
 20
-19.5
 30
0.0
 40
1.0
  0
CIRCLE
  5
156
100
AcDbEntity
100
AcDbCircle
  8
b
 62
256
370
-1
 48
1.0
  6
BYLAYER
 10
23.5
 20
-1.9999999999999982
 30
0.0
 40
1.0
  0
CIRCLE
  5
157
100
AcDbEntity
100
AcDbCircle
  8
b
 62
256
370
-1
 48
1.0
  6
BYLAYER
 10
91.0
 20
-4.4999999999999991
 30
0.0
 40
1.0
  0
CIRCLE
  5
158
100
AcDbEntity
100
AcDbCircle
  8
b
 62
256
370
-1
 48
1.0
  6
BYLAYER
 10
73.5
 20
-19.5
 30
0.0
 40
1.0
  0
CIRCLE
  5
159
100
AcDbEntity
100
AcDbCircle
  8
b
 62
256
370
-1
 48
1.0
  6
BYLAYER
 10
83.5
 20
-1.9999999999999982
 30
0.0
 40
1.0
  0
CIRCLE
  5
15A
100
AcDbEntity
100
AcDbCircle
  8
b
 62
256
370
-1
 48
1.0
  6
BYLAYER
 10
151.0
 20
-4.4999999999999991
 30
0.0
 40
1.0
  0
CIRCLE
  5
15B
100
AcDbEntity
100
AcDbCircle
  8
b
 62
256
370
-1
 48
1.0
  6
BYLAYER
 10
133.5
 20
-19.5
 30
0.0
 40
1.0
  0
CIRCLE
  5
15C
100
AcDbEntity
100
AcDbCircle
  8
b
 62
256
370
-1
 48
1.0
  6
BYLAYER
 10
143.5
 20
-1.9999999999999982
 30
0.0
 40
1.0
  0
ARC
  5
15D
100
AcDbEntity
  8
b
 62
256
370
-1
 48
1.0
  6
BYLAYER
100
AcDbCircle
 10
16.0
 20
-19.5
 30
0.0
 40
1.0
100
AcDbArc
 50
120.0000000000001137
 51
59.9999999999999645
  0
CIRCLE
  5
15E
100
AcDbEntity
100
AcDbCircle
  8
b
 62
256
370
-1
 48
1.0
  6
BYLAYER
 10
26.0
 20
-1.9999999999999982
 30
0.0
 40
1.0
  0
CIRCLE
  5
15F
100
AcDbEntity
100
AcDbCircle
  8
b
 62
256
370
-1
 48
1.0
  6
BYLAYER
 10
86.0
 20
-1.9999999999999982
 30
0.0
 40
1.0
  0
ARC
  5
160
100
AcDbEntity
  8
b
 62
256
370
-1
 48
1.0
  6
BYLAYER
100
AcDbCircle
 10
76.0
 20
-19.5
 30
0.0
 40
1.0
100
AcDbArc
 50
120.0000000000001137
 51
59.9999999999999645
  0
CIRCLE
  5
161
100
AcDbEntity
100
AcDbCircle
  8
b
 62
256
370
-1
 48
1.0
  6
BYLAYER
 10
146.0
 20
-1.9999999999999982
 30
0.0
 40
1.0
  0
ARC
  5
162
100
AcDbEntity
  8
b
 62
256
370
-1
 48
1.0
  6
BYLAYER
100
AcDbCircle
 10
136.0
 20
-19.5
 30
0.0
 40
1.0
100
AcDbArc
 50
120.0000000000001137
 51
59.9999999999999645
  0
ARC
  5
163
100
AcDbEntity
  8
b
 62
256
370
-1
 48
1.0
  6
BYLAYER
100
AcDbCircle
 10
18.5
 20
-19.5
 30
0.0
 40
1.0
100
AcDbArc
 50
120.0000000000000284
 51
59.999999999999865
  0
CIRCLE
  5
164
100
AcDbEntity
100
AcDbCircle
  8
b
 62
256
370
-1
 48
1.0
  6
BYLAYER
 10
28.5
 20
-1.9999999999999982
 30
0.0
 40
1.0
  0
CIRCLE
  5
165
100
AcDbEntity
100
AcDbCircle
  8
b
 62
256
370
-1
 48
1.0
  6
BYLAYER
 10
88.5
 20
-1.9999999999999982
 30
0.0
 40
1.0
  0
ARC
  5
166
100
AcDbEntity
  8
b
 62
256
370
-1
 48
1.0
  6
BYLAYER
100
AcDbCircle
 10
96.0
 20
-6.9999999999999991
 30
0.0
 40
1.0
100
AcDbArc
 50
300.0
 51
60.0
  0
ARC
  5
167
100
AcDbEntity
  8
b
 62
256
370
-1
 48
1.0
  6
BYLAYER
100
AcDbCircle
 10
96.0
 20
-6.9999999999999991
 30
0.0
 40
1.0
100
AcDbArc
 50
120.0000000000000142
 51
239.9999999999999432
  0
ARC
  5
168
100
AcDbEntity
  8
b
 62
256
370
-1
 48
1.0
  6
BYLAYER
100
AcDbCircle
 10
78.5
 20
-19.5
 30
0.0
 40
1.0
100
AcDbArc
 50
120.0000000000000284
 51
59.999999999999865
  0
ARC
  5
169
100
AcDbEntity
  8
b
 62
256
370
-1
 48
1.0
  6
BYLAYER
100
AcDbCircle
 10
96.0
 20
-4.4999999999999991
 30
0.0
 40
1.0
100
AcDbArc
 50
300.0
 51
240.0
  0
ARC
  5
16A
100
AcDbEntity
  8
b
 62
256
370
-1
 48
1.0
  6
BYLAYER
100
AcDbCircle
 10
93.5
 20
-7.0
 30
0.0
 40
1.0
100
AcDbArc
 50
300.0
 51
60.0
  0
ARC
  5
16B
100
AcDbEntity
  8
b
 62
256
370
-1
 48
1.0
  6
BYLAYER
100
AcDbCircle
 10
93.5
 20
-7.0
 30
0.0
 40
1.0
100
AcDbArc
 50
120.0000000000000142
 51
239.9999999999999432
  0
ARC
  5
16C
100
AcDbEntity
  8
b
 62
256
370
-1
 48
1.0
  6
BYLAYER
100
AcDbCircle
 10
93.5
 20
-4.5
 30
0.0
 40
1.0
100
AcDbArc
 50
300.0
 51
240.0
  0
ARC
  5
16D
100
AcDbEntity
  8
b
 62
256
370
-1
 48
1.0
  6
BYLAYER
100
AcDbCircle
 10
36.0
 20
-4.4999999999999991
 30
0.0
 40
1.0
100
AcDbArc
 50
300.0
 51
240.0
  0
ARC
  5
16E
100
AcDbEntity
  8
b
 62
256
370
-1
 48
1.0
  6
BYLAYER
100
AcDbCircle
 10
33.5
 20
-7.0
 30
0.0
 40
1.0
100
AcDbArc
 50
300.0
 51
60.0
  0
ARC
  5
16F
100
AcDbEntity
  8
b
 62
256
370
-1
 48
1.0
  6
BYLAYER
100
AcDbCircle
 10
33.5
 20
-7.0
 30
0.0
 40
1.0
100
AcDbArc
 50
120.0000000000000142
 51
239.9999999999999432
  0
ARC
  5
170
100
AcDbEntity
  8
b
 62
256
370
-1
 48
1.0
  6
BYLAYER
100
AcDbCircle
 10
33.5
 20
-4.5
 30
0.0
 40
1.0
100
AcDbArc
 50
300.0
 51
240.0
  0
ARC
  5
171
100
AcDbEntity
  8
b
 62
256
370
-1
 48
1.0
  6
BYLAYER
100
AcDbCircle
 10
36.0
 20
-6.9999999999999991
 30
0.0
 40
1.0
100
AcDbArc
 50
300.0
 51
60.0
  0
ARC
  5
172
100
AcDbEntity
  8
b
 62
256
370
-1
 48
1.0
  6
BYLAYER
100
AcDbCircle
 10
36.0
 20
-6.9999999999999991
 30
0.0
 40
1.0
100
AcDbArc
 50
120.0000000000000142
 51
239.9999999999999432
  0
CIRCLE
  5
173
100
AcDbEntity
100
AcDbCircle
  8
b
 62
256
370
-1
 48
1.0
  6
BYLAYER
 10
148.5
 20
-1.9999999999999982
 30
0.0
 40
1.0
  0
ARC
  5
174
100
AcDbEntity
  8
b
 62
256
370
-1
 48
1.0
  6
BYLAYER
100
AcDbCircle
 10
156.0
 20
-6.9999999999999991
 30
0.0
 40
1.0
100
AcDbArc
 50
300.0
 51
60.0
  0
ARC
  5
175
100
AcDbEntity
  8
b
 62
256
370
-1
 48
1.0
  6
BYLAYER
100
AcDbCircle
 10
156.0
 20
-6.9999999999999991
 30
0.0
 40
1.0
100
AcDbArc
 50
120.0000000000000142
 51
239.9999999999999432
  0
ARC
  5
176
100
AcDbEntity
  8
b
 62
256
370
-1
 48
1.0
  6
BYLAYER
100
AcDbCircle
 10
138.5
 20
-19.5
 30
0.0
 40
1.0
100
AcDbArc
 50
120.0000000000000284
 51
59.999999999999865
  0
ARC
  5
177
100
AcDbEntity
  8
b
 62
256
370
-1
 48
1.0
  6
BYLAYER
100
AcDbCircle
 10
156.0
 20
-4.4999999999999991
 30
0.0
 40
1.0
100
AcDbArc
 50
300.0
 51
240.0
  0
ARC
  5
178
100
AcDbEntity
  8
b
 62
256
370
-1
 48
1.0
  6
BYLAYER
100
AcDbCircle
 10
153.5
 20
-7.0
 30
0.0
 40
1.0
100
AcDbArc
 50
300.0
 51
60.0
  0
ARC
  5
179
100
AcDbEntity
  8
b
 62
256
370
-1
 48
1.0
  6
BYLAYER
100
AcDbCircle
 10
153.5
 20
-7.0
 30
0.0
 40
1.0
100
AcDbArc
 50
120.0000000000000142
 51
239.9999999999999432
  0
ARC
  5
17A
100
AcDbEntity
  8
b
 62
256
370
-1
 48
1.0
  6
BYLAYER
100
AcDbCircle
 10
153.5
 20
-4.5
 30
0.0
 40
1.0
100
AcDbArc
 50
300.0
 51
240.0
  0
ARC
  5
17B
100
AcDbEntity
  8
b
 62
256
370
-1
 48
1.0
  6
BYLAYER
100
AcDbCircle
 10
21.0
 20
-19.5
 30
0.0
 40
1.0
100
AcDbArc
 50
120.0000000000000284
 51
60.0000000000002487
  0
CIRCLE
  5
17C
100
AcDbEntity
100
AcDbCircle
  8
b
 62
256
370
-1
 48
1.0
  6
BYLAYER
 10
31.0
 20
-1.9999999999999978
 30
0.0
 40
1.0
  0
CIRCLE
  5
17D
100
AcDbEntity
100
AcDbCircle
  8
b
 62
256
370
-1
 48
1.0
  6
BYLAYER
 10
91.0
 20
-1.9999999999999978
 30
0.0
 40
1.0
  0
ARC
  5
17E
100
AcDbEntity
  8
b
 62
256
370
-1
 48
1.0
  6
BYLAYER
100
AcDbCircle
 10
98.5
 20
-4.4999999999999991
 30
0.0
 40
1.0
100
AcDbArc
 50
300.0
 51
60.0000000000000071
  0
ARC
  5
17F
100
AcDbEntity
  8
b
 62
256
370
-1
 48
1.0
  6
BYLAYER
100
AcDbCircle
 10
98.5
 20
-4.4999999999999991
 30
0.0
 40
1.0
100
AcDbArc
 50
120.0
 51
239.9999999999998295
  0
ARC
  5
180
100
AcDbEntity
  8
b
 62
256
370
-1
 48
1.0
  6
BYLAYER
100
AcDbCircle
 10
81.0
 20
-19.5
 30
0.0
 40
1.0
100
AcDbArc
 50
120.0000000000000284
 51
60.0000000000002487
  0
ARC
  5
181
100
AcDbEntity
  8
b
 62
256
370
-1
 48
1.0
  6
BYLAYER
100
AcDbCircle
 10
38.5
 20
-4.4999999999999991
 30
0.0
 40
1.0
100
AcDbArc
 50
300.0
 51
60.0000000000000071
  0
ARC
  5
182
100
AcDbEntity
  8
b
 62
256
370
-1
 48
1.0
  6
BYLAYER
100
AcDbCircle
 10
38.5
 20
-4.4999999999999991
 30
0.0
 40
1.0
100
AcDbArc
 50
120.0
 51
239.9999999999998295
  0
CIRCLE
  5
183
100
AcDbEntity
100
AcDbCircle
  8
b
 62
256
370
-1
 48
1.0
  6
BYLAYER
 10
151.0
 20
-1.9999999999999978
 30
0.0
 40
1.0
  0
ARC
  5
184
100
AcDbEntity
  8
b
 62
256
370
-1
 48
1.0
  6
BYLAYER
100
AcDbCircle
 10
158.5
 20
-4.4999999999999991
 30
0.0
 40
1.0
100
AcDbArc
 50
300.0
 51
60.0000000000000071
  0
ARC
  5
185
100
AcDbEntity
  8
b
 62
256
370
-1
 48
1.0
  6
BYLAYER
100
AcDbCircle
 10
158.5
 20
-4.4999999999999991
 30
0.0
 40
1.0
100
AcDbArc
 50
120.0
 51
239.9999999999998295
  0
ARC
  5
186
100
AcDbEntity
  8
b
 62
256
370
-1
 48
1.0
  6
BYLAYER
100
AcDbCircle
 10
141.0
 20
-19.5
 30
0.0
 40
1.0
100
AcDbArc
 50
120.0000000000000284
 51
60.0000000000002487
  0
CIRCLE
  5
187
100
AcDbEntity
100
AcDbCircle
  8
b
 62
256
370
-1
 48
1.0
  6
BYLAYER
 10
43.4999999999999929
 20
-12.0
 30
0.0
 40
1.0
  0
CIRCLE
  5
188
100
AcDbEntity
100
AcDbCircle
  8
b
 62
256
370
-1
 48
1.0
  6
BYLAYER
 10
33.5
 20
-1.9999999999999973
 30
0.0
 40
1.0
  0
ARC
  5
189
100
AcDbEntity
  8
b
 62
256
370
-1
 48
1.0
  6
BYLAYER
100
AcDbCircle
 10
43.4999999999999929
 20
-19.5
 30
0.0
 40
1.0
100
AcDbArc
 50
29.9999999999999289
 51
330.0000000000000568
  0
ARC
  5
18A
100
AcDbEntity
  8
b
 62
256
370
-1
 48
1.0
  6
BYLAYER
100
AcDbCircle
 10
45.9999999999999929
 20
-19.5
 30
0.0
 40
1.0
100
AcDbArc
 50
209.9999999999999432
 51
150.0000000000000853
  0
ARC
  5
18B
100
AcDbEntity
  8
b
 62
256
370
-1
 48
1.0
  6
BYLAYER
100
AcDbCircle
 10
41.0
 20
-4.4999999999999982
 30
0.0
 40
1.0
100
AcDbArc
 50
299.9999999999995453
 51
239.9999999999995168
  0
ARC
  5
18C
100
AcDbEntity
  8
b
 62
256
370
-1
 48
1.0
  6
BYLAYER
100
AcDbCircle
 10
23.5
 20
-19.4999999999999964
 30
0.0
 40
1.0
100
AcDbArc
 50
29.9999999999999538
 51
329.9999999999998295
  0
CIRCLE
  5
18D
100
AcDbEntity
100
AcDbCircle
  8
b
 62
256
370
-1
 48
1.0
  6
BYLAYER
 10
163.5
 20
-12.0
 30
0.0
 40
1.0
  0
ARC
  5
18E
100
AcDbEntity
  8
b
 62
256
370
-1
 48
1.0
  6
BYLAYER
100
AcDbCircle
 10
163.5
 20
-19.5
 30
0.0
 40
1.0
100
AcDbArc
 50
29.9999999999999289
 51
330.0000000000000568
  0
ARC
  5
18F
100
AcDbEntity
  8
b
 62
256
370
-1
 48
1.0
  6
BYLAYER
100
AcDbCircle
 10
166.0
 20
-19.5
 30
0.0
 40
1.0
100
AcDbArc
 50
209.9999999999999432
 51
150.0000000000000853
  0
CIRCLE
  5
190
100
AcDbEntity
100
AcDbCircle
  8
b
 62
256
370
-1
 48
1.0
  6
BYLAYER
 10
153.5
 20
-1.9999999999999973
 30
0.0
 40
1.0
  0
ARC
  5
191
100
AcDbEntity
  8
b
 62
256
370
-1
 48
1.0
  6
BYLAYER
100
AcDbCircle
 10
161.0
 20
-4.4999999999999982
 30
0.0
 40
1.0
100
AcDbArc
 50
299.9999999999995453
 51
239.9999999999995168
  0
ARC
  5
192
100
AcDbEntity
  8
b
 62
256
370
-1
 48
1.0
  6
BYLAYER
100
AcDbCircle
 10
143.5
 20
-19.4999999999999964
 30
0.0
 40
1.0
100
AcDbArc
 50
29.9999999999999538
 51
329.9999999999998295
  0
CIRCLE
  5
193
100
AcDbEntity
100
AcDbCircle
  8
b
 62
256
370
-1
 48
1.0
  6
BYLAYER
 10
103.5
 20
-12.0
 30
0.0
 40
1.0
  0
ARC
  5
194
100
AcDbEntity
  8
b
 62
256
370
-1
 48
1.0
  6
BYLAYER
100
AcDbCircle
 10
103.5
 20
-19.5
 30
0.0
 40
1.0
100
AcDbArc
 50
29.9999999999999289
 51
330.0000000000000568
  0
ARC
  5
195
100
AcDbEntity
  8
b
 62
256
370
-1
 48
1.0
  6
BYLAYER
100
AcDbCircle
 10
106.0
 20
-19.5
 30
0.0
 40
1.0
100
AcDbArc
 50
209.9999999999999432
 51
150.0000000000000853
  0
CIRCLE
  5
196
100
AcDbEntity
100
AcDbCircle
  8
b
 62
256
370
-1
 48
1.0
  6
BYLAYER
 10
93.5
 20
-1.9999999999999973
 30
0.0
 40
1.0
  0
ARC
  5
197
100
AcDbEntity
  8
b
 62
256
370
-1
 48
1.0
  6
BYLAYER
100
AcDbCircle
 10
101.0
 20
-4.4999999999999982
 30
0.0
 40
1.0
100
AcDbArc
 50
299.9999999999995453
 51
239.9999999999995168
  0
ARC
  5
198
100
AcDbEntity
  8
b
 62
256
370
-1
 48
1.0
  6
BYLAYER
100
AcDbCircle
 10
83.5
 20
-19.4999999999999964
 30
0.0
 40
1.0
100
AcDbArc
 50
29.9999999999999538
 51
329.9999999999998295
  0
CIRCLE
  5
199
100
AcDbEntity
100
AcDbCircle
  8
b
 62
256
370
-1
 48
1.0
  6
BYLAYER
 10
6.0
 20
-22.0
 30
0.0
 40
1.0
  0
CIRCLE
  5
19A
100
AcDbEntity
100
AcDbCircle
  8
b
 62
256
370
-1
 48
1.0
  6
BYLAYER
 10
8.5
 20
-22.0
 30
0.0
 40
1.0
  0
CIRCLE
  5
19B
100
AcDbEntity
100
AcDbCircle
  8
b
 62
256
370
-1
 48
1.0
  6
BYLAYER
 10
128.5
 20
-22.0
 30
0.0
 40
1.0
  0
CIRCLE
  5
19C
100
AcDbEntity
100
AcDbCircle
  8
b
 62
256
370
-1
 48
1.0
  6
BYLAYER
 10
126.0
 20
-22.0
 30
0.0
 40
1.0
  0
CIRCLE
  5
19D
100
AcDbEntity
100
AcDbCircle
  8
b
 62
256
370
-1
 48
1.0
  6
BYLAYER
 10
68.5
 20
-22.0
 30
0.0
 40
1.0
  0
CIRCLE
  5
19E
100
AcDbEntity
100
AcDbCircle
  8
b
 62
256
370
-1
 48
1.0
  6
BYLAYER
 10
66.0
 20
-22.0
 30
0.0
 40
1.0
  0
CIRCLE
  5
19F
100
AcDbEntity
100
AcDbCircle
  8
b
 62
256
370
-1
 48
1.0
  6
BYLAYER
 10
11.0
 20
-22.0
 30
0.0
 40
1.0
  0
CIRCLE
  5
1A0
100
AcDbEntity
100
AcDbCircle
  8
b
 62
256
370
-1
 48
1.0
  6
BYLAYER
 10
131.0
 20
-22.0
 30
0.0
 40
1.0
  0
CIRCLE
  5
1A1
100
AcDbEntity
100
AcDbCircle
  8
b
 62
256
370
-1
 48
1.0
  6
BYLAYER
 10
71.0
 20
-22.0
 30
0.0
 40
1.0
  0
CIRCLE
  5
1A2
100
AcDbEntity
100
AcDbCircle
  8
b
 62
256
370
-1
 48
1.0
  6
BYLAYER
 10
13.5
 20
-22.0
 30
0.0
 40
1.0
  0
CIRCLE
  5
1A3
100
AcDbEntity
100
AcDbCircle
  8
b
 62
256
370
-1
 48
1.0
  6
BYLAYER
 10
133.5
 20
-22.0
 30
0.0
 40
1.0
  0
CIRCLE
  5
1A4
100
AcDbEntity
100
AcDbCircle
  8
b
 62
256
370
-1
 48
1.0
  6
BYLAYER
 10
73.5
 20
-22.0
 30
0.0
 40
1.0
  0
CIRCLE
  5
1A5
100
AcDbEntity
100
AcDbCircle
  8
b
 62
256
370
-1
 48
1.0
  6
BYLAYER
 10
16.0
 20
-22.0
 30
0.0
 40
1.0
  0
CIRCLE
  5
1A6
100
AcDbEntity
100
AcDbCircle
  8
b
 62
256
370
-1
 48
1.0
  6
BYLAYER
 10
136.0
 20
-22.0
 30
0.0
 40
1.0
  0
CIRCLE
  5
1A7
100
AcDbEntity
100
AcDbCircle
  8
b
 62
256
370
-1
 48
1.0
  6
BYLAYER
 10
76.0
 20
-22.0
 30
0.0
 40
1.0
  0
CIRCLE
  5
1A8
100
AcDbEntity
100
AcDbCircle
  8
b
 62
256
370
-1
 48
1.0
  6
BYLAYER
 10
18.5
 20
-22.0
 30
0.0
 40
1.0
  0
CIRCLE
  5
1A9
100
AcDbEntity
100
AcDbCircle
  8
b
 62
256
370
-1
 48
1.0
  6
BYLAYER
 10
138.5
 20
-22.0
 30
0.0
 40
1.0
  0
CIRCLE
  5
1AA
100
AcDbEntity
100
AcDbCircle
  8
b
 62
256
370
-1
 48
1.0
  6
BYLAYER
 10
78.5
 20
-22.0
 30
0.0
 40
1.0
  0
CIRCLE
  5
1AB
100
AcDbEntity
100
AcDbCircle
  8
b
 62
256
370
-1
 48
1.0
  6
BYLAYER
 10
21.0
 20
-22.0
 30
0.0
 40
1.0
  0
CIRCLE
  5
1AC
100
AcDbEntity
100
AcDbCircle
  8
b
 62
256
370
-1
 48
1.0
  6
BYLAYER
 10
141.0
 20
-22.0
 30
0.0
 40
1.0
  0
CIRCLE
  5
1AD
100
AcDbEntity
100
AcDbCircle
  8
b
 62
256
370
-1
 48
1.0
  6
BYLAYER
 10
81.0
 20
-22.0
 30
0.0
 40
1.0
  0
CIRCLE
  5
1AE
100
AcDbEntity
100
AcDbCircle
  8
b
 62
256
370
-1
 48
1.0
  6
BYLAYER
 10
23.5
 20
-22.0
 30
0.0
 40
1.0
  0
CIRCLE
  5
1AF
100
AcDbEntity
100
AcDbCircle
  8
b
 62
256
370
-1
 48
1.0
  6
BYLAYER
 10
143.5
 20
-22.0
 30
0.0
 40
1.0
  0
CIRCLE
  5
1B0
100
AcDbEntity
100
AcDbCircle
  8
b
 62
256
370
-1
 48
1.0
  6
BYLAYER
 10
83.5
 20
-22.0
 30
0.0
 40
1.0
  0
CIRCLE
  5
1B1
100
AcDbEntity
100
AcDbCircle
  8
b
 62
256
370
-1
 48
1.0
  6
BYLAYER
 10
26.0
 20
-22.0
 30
0.0
 40
1.0
  0
CIRCLE
  5
1B2
100
AcDbEntity
100
AcDbCircle
  8
b
 62
256
370
-1
 48
1.0
  6
BYLAYER
 10
146.0
 20
-22.0
 30
0.0
 40
1.0
  0
CIRCLE
  5
1B3
100
AcDbEntity
100
AcDbCircle
  8
b
 62
256
370
-1
 48
1.0
  6
BYLAYER
 10
86.0
 20
-22.0
 30
0.0
 40
1.0
  0
CIRCLE
  5
1B4
100
AcDbEntity
100
AcDbCircle
  8
b
 62
256
370
-1
 48
1.0
  6
BYLAYER
 10
28.5
 20
-21.9999999999999964
 30
0.0
 40
1.0
  0
CIRCLE
  5
1B5
100
AcDbEntity
100
AcDbCircle
  8
b
 62
256
370
-1
 48
1.0
  6
BYLAYER
 10
148.5
 20
-21.9999999999999964
 30
0.0
 40
1.0
  0
CIRCLE
  5
1B6
100
AcDbEntity
100
AcDbCircle
  8
b
 62
256
370
-1
 48
1.0
  6
BYLAYER
 10
88.5
 20
-21.9999999999999964
 30
0.0
 40
1.0
  0
CIRCLE
  5
1B7
100
AcDbEntity
100
AcDbCircle
  8
b
 62
256
370
-1
 48
1.0
  6
BYLAYER
 10
31.0
 20
-21.9999999999999964
 30
0.0
 40
1.0
  0
CIRCLE
  5
1B8
100
AcDbEntity
100
AcDbCircle
  8
b
 62
256
370
-1
 48
1.0
  6
BYLAYER
 10
151.0
 20
-21.9999999999999964
 30
0.0
 40
1.0
  0
CIRCLE
  5
1B9
100
AcDbEntity
100
AcDbCircle
  8
b
 62
256
370
-1
 48
1.0
  6
BYLAYER
 10
91.0
 20
-21.9999999999999964
 30
0.0
 40
1.0
  0
CIRCLE
  5
1BA
100
AcDbEntity
100
AcDbCircle
  8
b
 62
256
370
-1
 48
1.0
  6
BYLAYER
 10
33.5
 20
-21.9999999999999964
 30
0.0
 40
1.0
  0
CIRCLE
  5
1BB
100
AcDbEntity
100
AcDbCircle
  8
b
 62
256
370
-1
 48
1.0
  6
BYLAYER
 10
153.5
 20
-21.9999999999999964
 30
0.0
 40
1.0
  0
CIRCLE
  5
1BC
100
AcDbEntity
100
AcDbCircle
  8
b
 62
256
370
-1
 48
1.0
  6
BYLAYER
 10
93.5
 20
-21.9999999999999964
 30
0.0
 40
1.0
  0
ARC
  5
1BD
100
AcDbEntity
  8
b
 62
256
370
-1
 48
1.0
  6
BYLAYER
100
AcDbCircle
 10
36.0
 20
-21.9999999999999964
 30
0.0
 40
1.0
100
AcDbArc
 50
120.0000000000000284
 51
60.0000000000000782
  0
ARC
  5
1BE
100
AcDbEntity
  8
b
 62
256
370
-1
 48
1.0
  6
BYLAYER
100
AcDbCircle
 10
156.0
 20
-21.9999999999999964
 30
0.0
 40
1.0
100
AcDbArc
 50
120.0000000000000284
 51
60.0000000000000782
  0
ARC
  5
1BF
100
AcDbEntity
  8
b
 62
256
370
-1
 48
1.0
  6
BYLAYER
100
AcDbCircle
 10
96.0
 20
-21.9999999999999964
 30
0.0
 40
1.0
100
AcDbArc
 50
120.0000000000000284
 51
60.0000000000000782
  0
CIRCLE
  5
1C0
100
AcDbEntity
100
AcDbCircle
  8
b
 62
256
370
-1
 48
1.0
  6
BYLAYER
 10
38.5
 20
-21.9999999999999964
 30
0.0
 40
1.0
  0
CIRCLE
  5
1C1
100
AcDbEntity
100
AcDbCircle
  8
b
 62
256
370
-1
 48
1.0
  6
BYLAYER
 10
158.5
 20
-21.9999999999999964
 30
0.0
 40
1.0
  0
CIRCLE
  5
1C2
100
AcDbEntity
100
AcDbCircle
  8
b
 62
256
370
-1
 48
1.0
  6
BYLAYER
 10
98.5
 20
-21.9999999999999964
 30
0.0
 40
1.0
  0
ARC
  5
1C3
100
AcDbEntity
  8
b
 62
256
370
-1
 48
1.0
  6
BYLAYER
100
AcDbCircle
 10
41.0
 20
-21.9999999999999964
 30
0.0
 40
1.0
100
AcDbArc
 50
113.5781784782021901
 51
59.9999999999999645
  0
ARC
  5
1C4
100
AcDbEntity
  8
b
 62
256
370
-1
 48
1.0
  6
BYLAYER
100
AcDbCircle
 10
161.0
 20
-21.9999999999999964
 30
0.0
 40
1.0
100
AcDbArc
 50
113.5781784782021901
 51
59.9999999999999645
  0
ARC
  5
1C5
100
AcDbEntity
  8
b
 62
256
370
-1
 48
1.0
  6
BYLAYER
100
AcDbCircle
 10
101.0
 20
-21.9999999999999964
 30
0.0
 40
1.0
100
AcDbArc
 50
113.5781784782021901
 51
59.9999999999999645
  0
CIRCLE
  5
1C6
100
AcDbEntity
100
AcDbCircle
  8
b
 62
256
370
-1
 48
1.0
  6
BYLAYER
 10
43.5
 20
-21.9999999999999964
 30
0.0
 40
1.0
  0
CIRCLE
  5
1C7
100
AcDbEntity
100
AcDbCircle
  8
b
 62
256
370
-1
 48
1.0
  6
BYLAYER
 10
163.5
 20
-21.9999999999999964
 30
0.0
 40
1.0
  0
CIRCLE
  5
1C8
100
AcDbEntity
100
AcDbCircle
  8
b
 62
256
370
-1
 48
1.0
  6
BYLAYER
 10
103.5
 20
-21.9999999999999964
 30
0.0
 40
1.0
  0
LINE
  5
1C9
100
AcDbEntity
100
AcDbLine
  8
b
 62
256
370
-1
 48
1.0
  6
BYLAYER
 10
40.5999999999999943
 20
-21.0834848610088308
 30
0.0
 11
40.5999999999999943
 21
-20.0
 31
0.0
  0
LINE
  5
1CA
100
AcDbEntity
100
AcDbLine
  8
b
 62
256
370
-1
 48
1.0
  6
BYLAYER
 10
160.5999999999999943
 20
-21.0834848610088308
 30
0.0
 11
160.5999999999999943
 21
-20.0
 31
0.0
  0
LINE
  5
1CB
100
AcDbEntity
100
AcDbLine
  8
b
 62
256
370
-1
 48
1.0
  6
BYLAYER
 10
100.5999999999999943
 20
-21.0834848610088308
 30
0.0
 11
100.5999999999999943
 21
-20.0
 31
0.0
  0
MTEXT
  5
1CC
100
AcDbEntity
100
AcDbMText
  8
text
 62
256
370
-1
 48
1.0
  6
BYLAYER
 10
5.0
 20
-3.7999999999999998
 30
0.0
 40
1.0
 41
0.0
 71
3
 72
1
  1
SDA
  7
textstyle26
 50
0.0
 73
2
 44
1.0
  0
MTEXT
  5
1CD
100
AcDbEntity
100
AcDbMText
  8
text
 62
256
370
-1
 48
1.0
  6
BYLAYER
 10
38.3329614418996911
 20
-17.6685230801501767
 30
0.0
 40
1.0
 41
0.0
 71
1
 72
1
  1
3V
  7
textstyle25
 50
0.0
 73
2
 44
1.0
  0
MTEXT
  5
1CE
100
AcDbEntity
100
AcDbMText
  8
text
 62
256
370
-1
 48
1.0
  6
BYLAYER
 10
35.5326414189303748
 20
-0.271453023684749
 30
0.0
 40
1.0
 41
0.0
 71
3
 72
1
  1
SCL
  7
textstyle24
 50
90.0
 73
2
 44
1.0
  0
MTEXT
  5
1CF
100
AcDbEntity
100
AcDbMText
  8
text
 62
256
370
-1
 48
1.0
  6
BYLAYER
 10
9.6124257453170561
 20
-3.9182614897640344
 30
0.0
 40
1.0
 41
0.0
 71
1
 72
1
  1
SCL
  7
textstyle23
 50
0.0
 73
2
 44
1.0
  0
MTEXT
  5
1D0
100
AcDbEntity
100
AcDbMText
  8
text
 62
256
370
-1
 48
1.0
  6
BYLAYER
 10
42.0
 20
-7.0
 30
0.0
 40
1.0
 41
0.0
 71
1
 72
1
  1
3V
  7
textstyle22
 50
0.0
 73
2
 44
1.0
  0
MTEXT
  5
1D1
100
AcDbEntity
100
AcDbMText
  8
text
 62
256
370
-1
 48
1.0
  6
BYLAYER
 10
46.7999999999999972
 20
-13.9999999999999982
 30
0.0
 40
1.0
 41
0.0
 71
1
 72
1
  1
\H0.8;GND
  7
textstyle21
 50
0.0
 73
2
 44
1.0
  0
MTEXT
  5
1D2
100
AcDbEntity
100
AcDbMText
  8
text
 62
256
370
-1
 48
1.0
  6
BYLAYER
 10
31.0
 20
-8.0
 30
0.0
 40
1.0
 41
0.0
 71
3
 72
1
  1
SDA
  7
textstyle20
 50
90.0
 73
2
 44
1.0
  0
MTEXT
  5
1D3
100
AcDbEntity
100
AcDbMText
  8
text
 62
256
370
-1
 48
1.0
  6
BYLAYER
 10
125.0
 20
-3.8000000000000012
 30
0.0
 40
1.0
 41
0.0
 71
3
 72
1
  1
SDA
  7
textstyle19
 50
0.0
 73
2
 44
1.0
  0
MTEXT
  5
1D4
100
AcDbEntity
100
AcDbMText
  8
text
 62
256
370
-1
 48
1.0
  6
BYLAYER
 10
129.6124257453170685
 20
-3.9182614897640402
 30
0.0
 40
1.0
 41
0.0
 71
1
 72
1
  1
SCL
  7
textstyle18
 50
0.0
 73
2
 44
1.0
  0
MTEXT
  5
1D5
100
AcDbEntity
100
AcDbMText
  8
text
 62
256
370
-1
 48
1.0
  6
BYLAYER
 10
158.3329614418996698
 20
-17.6685230801502016
 30
0.0
 40
1.0
 41
0.0
 71
1
 72
1
  1
3V
  7
textstyle17
 50
0.0
 73
2
 44
1.0
  0
MTEXT
  5
1D6
100
AcDbEntity
100
AcDbMText
  8
text
 62
256
370
-1
 48
1.0
  6
BYLAYER
 10
162.0
 20
-7.0000000000000124
 30
0.0
 40
1.0
 41
0.0
 71
1
 72
1
  1
3V
  7
textstyle16
 50
0.0
 73
2
 44
1.0
  0
MTEXT
  5
1D7
100
AcDbEntity
100
AcDbMText
  8
text
 62
256
370
-1
 48
1.0
  6
BYLAYER
 10
166.7999999999999829
 20
-14.0000000000000053
 30
0.0
 40
1.0
 41
0.0
 71
1
 72
1
  1
\H0.8;GND
  7
textstyle15
 50
0.0
 73
2
 44
1.0
  0
MTEXT
  5
1D8
100
AcDbEntity
100
AcDbMText
  8
text
 62
256
370
-1
 48
1.0
  6
BYLAYER
 10
151.0
 20
-8.0000000000000178
 30
0.0
 40
1.0
 41
0.0
 71
3
 72
1
  1
SDA
  7
textstyle14
 50
90.0
 73
2
 44
1.0
  0
MTEXT
  5
1D9
100
AcDbEntity
100
AcDbMText
  8
text
 62
256
370
-1
 48
1.0
  6
BYLAYER
 10
167.1999999999999886
 20
-16.5
 30
0.0
 40
1.0
 41
0.0
 71
1
 72
1
  1
\H0.8;SCL
  7
textstyle13
 50
0.0
 73
2
 44
1.0
  0
MTEXT
  5
1DA
100
AcDbEntity
100
AcDbMText
  8
text
 62
256
370
-1
 48
1.0
  6
BYLAYER
 10
167.1725272666256501
 20
-18.968089468790204
 30
0.0
 40
1.0
 41
0.0
 71
1
 72
1
  1
\H0.8;SDA
  7
textstyle12
 50
0.0
 73
2
 44
1.0
  0
MTEXT
  5
1DB
100
AcDbEntity
100
AcDbMText
  8
text
 62
256
370
-1
 48
1.0
  6
BYLAYER
 10
155.5326414189303819
 20
-0.2714530236846038
 30
0.0
 40
1.0
 41
0.0
 71
3
 72
1
  1
SCL
  7
textstyle11
 50
90.0
 73
2
 44
1.0
  0
MTEXT
  5
1DC
100
AcDbEntity
100
AcDbMText
  8
text
 62
256
370
-1
 48
1.0
  6
BYLAYER
 10
65.0
 20
-3.8000000000000012
 30
0.0
 40
1.0
 41
0.0
 71
3
 72
1
  1
SDA
  7
textstyle10
 50
0.0
 73
2
 44
1.0
  0
MTEXT
  5
1DD
100
AcDbEntity
100
AcDbMText
  8
text
 62
256
370
-1
 48
1.0
  6
BYLAYER
 10
69.6124257453170543
 20
-3.9182614897640402
 30
0.0
 40
1.0
 41
0.0
 71
1
 72
1
  1
SCL
  7
textstyle9
 50
0.0
 73
2
 44
1.0
  0
MTEXT
  5
1DE
100
AcDbEntity
100
AcDbMText
  8
text
 62
256
370
-1
 48
1.0
  6
BYLAYER
 10
98.332961441899684
 20
-17.6685230801502016
 30
0.0
 40
1.0
 41
0.0
 71
1
 72
1
  1
3V
  7
textstyle8
 50
0.0
 73
2
 44
1.0
  0
MTEXT
  5
1DF
100
AcDbEntity
100
AcDbMText
  8
text
 62
256
370
-1
 48
1.0
  6
BYLAYER
 10
102.0
 20
-7.0000000000000124
 30
0.0
 40
1.0
 41
0.0
 71
1
 72
1
  1
3V
  7
textstyle7
 50
0.0
 73
2
 44
1.0
  0
MTEXT
  5
1E0
100
AcDbEntity
100
AcDbMText
  8
text
 62
256
370
-1
 48
1.0
  6
BYLAYER
 10
106.7999999999999829
 20
-14.0000000000000053
 30
0.0
 40
1.0
 41
0.0
 71
1
 72
1
  1
\H0.8;GND
  7
textstyle6
 50
0.0
 73
2
 44
1.0
  0
MTEXT
  5
1E1
100
AcDbEntity
100
AcDbMText
  8
text
 62
256
370
-1
 48
1.0
  6
BYLAYER
 10
91.0
 20
-8.0000000000000178
 30
0.0
 40
1.0
 41
0.0
 71
3
 72
1
  1
SDA
  7
textstyle5
 50
90.0
 73
2
 44
1.0
  0
MTEXT
  5
1E2
100
AcDbEntity
100
AcDbMText
  8
text
 62
256
370
-1
 48
1.0
  6
BYLAYER
 10
107.1999999999999886
 20
-16.5
 30
0.0
 40
1.0
 41
0.0
 71
1
 72
1
  1
\H0.8;SCL
  7
textstyle4
 50
0.0
 73
2
 44
1.0
  0
MTEXT
  5
1E3
100
AcDbEntity
100
AcDbMText
  8
text
 62
256
370
-1
 48
1.0
  6
BYLAYER
 10
107.1725272666256501
 20
-18.968089468790204
 30
0.0
 40
1.0
 41
0.0
 71
1
 72
1
  1
\H0.8;SDA
  7
textstyle3
 50
0.0
 73
2
 44
1.0
  0
MTEXT
  5
1E4
100
AcDbEntity
100
AcDbMText
  8
text
 62
256
370
-1
 48
1.0
  6
BYLAYER
 10
95.5326414189303819
 20
-0.2714530236846038
 30
0.0
 40
1.0
 41
0.0
 71
3
 72
1
  1
SCL
  7
textstyle2
 50
90.0
 73
2
 44
1.0
  0
MTEXT
  5
1E5
100
AcDbEntity
100
AcDbMText
  8
text
 62
256
370
-1
 48
1.0
  6
BYLAYER
 10
47.1999999999999957
 20
-16.5
 30
0.0
 40
1.0
 41
0.0
 71
1
 72
1
  1
\H0.8;SCL
  7
textstyle1
 50
0.0
 73
2
 44
1.0
  0
MTEXT
  5
1E6
100
AcDbEntity
100
AcDbMText
  8
text
 62
256
370
-1
 48
1.0
  6
BYLAYER
 10
47.1725272666256501
 20
-18.9680894687902217
 30
0.0
 40
1.0
 41
0.0
 71
1
 72
1
  1
\H0.8;SDA
  7
textstyle0
 50
0.0
 73
2
 44
1.0
  0
LINE
  5
1E7
100
AcDbEntity
100
AcDbLine
  8
b
 62
256
370
-1
 48
1.0
  6
BYLAYER
 10
35.5
 20
-21.133974596215559
 30
0.0
 11
35.5
 21
-17.0
 31
0.0
  0
LINE
  5
1E8
100
AcDbEntity
100
AcDbLine
  8
b
 62
256
370
-1
 48
1.0
  6
BYLAYER
 10
155.5
 20
-21.133974596215559
 30
0.0
 11
155.5
 21
-17.0
 31
0.0
  0
LINE
  5
1E9
100
AcDbEntity
100
AcDbLine
  8
b
 62
256
370
-1
 48
1.0
  6
BYLAYER
 10
95.5
 20
-21.133974596215559
 30
0.0
 11
95.5
 21
-17.0
 31
0.0
  0
LINE
  5
1EA
100
AcDbEntity
100
AcDbLine
  8
b
 62
256
370
-1
 48
1.0
  6
BYLAYER
 10
36.5
 20
-17.0
 30
0.0
 11
36.5
 21
-21.1339745962155554
 31
0.0
  0
LINE
  5
1EB
100
AcDbEntity
100
AcDbLine
  8
b
 62
256
370
-1
 48
1.0
  6
BYLAYER
 10
156.5
 20
-17.0
 30
0.0
 11
156.5
 21
-21.1339745962155554
 31
0.0
  0
LINE
  5
1EC
100
AcDbEntity
100
AcDbLine
  8
b
 62
256
370
-1
 48
1.0
  6
BYLAYER
 10
96.5
 20
-17.0
 30
0.0
 11
96.5
 21
-21.1339745962155554
 31
0.0
  0
LINE
  5
1ED
100
AcDbEntity
100
AcDbLine
  8
b
 62
256
370
-1
 48
1.0
  6
BYLAYER
 10
15.4999999999999982
 20
-18.6339745962155625
 30
0.0
 11
15.4999999999999982
 21
-17.0
 31
0.0
  0
LINE
  5
1EE
100
AcDbEntity
100
AcDbLine
  8
b
 62
256
370
-1
 48
1.0
  6
BYLAYER
 10
135.5
 20
-18.6339745962155625
 30
0.0
 11
135.5
 21
-17.0
 31
0.0
  0
LINE
  5
1EF
100
AcDbEntity
100
AcDbLine
  8
b
 62
256
370
-1
 48
1.0
  6
BYLAYER
 10
75.5
 20
-18.6339745962155625
 30
0.0
 11
75.5
 21
-17.0
 31
0.0
  0
LINE
  5
1F0
100
AcDbEntity
100
AcDbLine
  8
b
 62
256
370
-1
 48
1.0
  6
BYLAYER
 10
135.5
 20
-17.0
 30
0.0
 11
125.5
 21
-17.0
 31
0.0
  0
LINE
  5
1F1
100
AcDbEntity
100
AcDbLine
  8
b
 62
256
370
-1
 48
1.0
  6
BYLAYER
 10
75.5
 20
-17.0
 30
0.0
 11
65.5
 21
-17.0
 31
0.0
  0
LINE
  5
1F2
100
AcDbEntity
100
AcDbLine
  8
b
 62
256
370
-1
 48
1.0
  6
BYLAYER
 10
15.4999999999999982
 20
-17.0
 30
0.0
 11
5.4999999999999991
 21
-17.0
 31
0.0
  0
LINE
  5
1F3
100
AcDbEntity
100
AcDbLine
  8
b
 62
256
370
-1
 48
1.0
  6
BYLAYER
 10
125.5
 20
-17.0
 30
0.0
 11
125.5
 21
-2.8660254037844286
 31
0.0
  0
LINE
  5
1F4
100
AcDbEntity
100
AcDbLine
  8
b
 62
256
370
-1
 48
1.0
  6
BYLAYER
 10
65.5
 20
-17.0
 30
0.0
 11
65.5
 21
-2.8660254037844286
 31
0.0
  0
LINE
  5
1F5
100
AcDbEntity
100
AcDbLine
  8
b
 62
256
370
-1
 48
1.0
  6
BYLAYER
 10
5.4999999999999991
 20
-17.0
 30
0.0
 11
5.4999999999999991
 21
-2.8660254037844286
 31
0.0
  0
LINE
  5
1F6
100
AcDbEntity
100
AcDbLine
  8
b
 62
256
370
-1
 48
1.0
  6
BYLAYER
 10
6.4999999999999991
 20
-2.8660254037844379
 30
0.0
 11
6.4999999999999991
 21
-10.9999999999999982
 31
0.0
  0
LINE
  5
1F7
100
AcDbEntity
100
AcDbLine
  8
b
 62
256
370
-1
 48
1.0
  6
BYLAYER
 10
6.4999999999999991
 20
-12.9999999999999964
 30
0.0
 11
6.4999999999999991
 21
-15.9999999999999982
 31
0.0
  0
LINE
  5
1F8
100
AcDbEntity
100
AcDbLine
  8
b
 62
256
370
-1
 48
1.0
  6
BYLAYER
 10
126.5
 20
-2.8660254037844379
 30
0.0
 11
126.5
 21
-10.9999999999999982
 31
0.0
  0
LINE
  5
1F9
100
AcDbEntity
100
AcDbLine
  8
b
 62
256
370
-1
 48
1.0
  6
BYLAYER
 10
126.5
 20
-12.9999999999999964
 30
0.0
 11
126.5
 21
-15.9999999999999982
 31
0.0
  0
LINE
  5
1FA
100
AcDbEntity
100
AcDbLine
  8
b
 62
256
370
-1
 48
1.0
  6
BYLAYER
 10
66.5
 20
-2.8660254037844379
 30
0.0
 11
66.5
 21
-10.9999999999999982
 31
0.0
  0
LINE
  5
1FB
100
AcDbEntity
100
AcDbLine
  8
b
 62
256
370
-1
 48
1.0
  6
BYLAYER
 10
66.5
 20
-12.9999999999999964
 30
0.0
 11
66.5
 21
-15.9999999999999982
 31
0.0
  0
LINE
  5
1FC
100
AcDbEntity
100
AcDbLine
  8
b
 62
256
370
-1
 48
1.0
  6
BYLAYER
 10
126.5
 20
-15.9999999999999982
 30
0.0
 11
136.5
 21
-15.9999999999999982
 31
0.0
  0
LINE
  5
1FD
100
AcDbEntity
100
AcDbLine
  8
b
 62
256
370
-1
 48
1.0
  6
BYLAYER
 10
66.5
 20
-15.9999999999999982
 30
0.0
 11
76.5
 21
-15.9999999999999982
 31
0.0
  0
LINE
  5
1FE
100
AcDbEntity
100
AcDbLine
  8
b
 62
256
370
-1
 48
1.0
  6
BYLAYER
 10
6.4999999999999991
 20
-15.9999999999999982
 30
0.0
 11
16.5
 21
-15.9999999999999982
 31
0.0
  0
LINE
  5
1FF
100
AcDbEntity
100
AcDbLine
  8
b
 62
256
370
-1
 48
1.0
  6
BYLAYER
 10
136.5
 20
-15.9999999999999982
 30
0.0
 11
136.5
 21
-18.6339745962155625
 31
0.0
  0
LINE
  5
200
100
AcDbEntity
100
AcDbLine
  8
b
 62
256
370
-1
 48
1.0
  6
BYLAYER
 10
76.5
 20
-15.9999999999999982
 30
0.0
 11
76.5
 21
-18.6339745962155625
 31
0.0
  0
LINE
  5
201
100
AcDbEntity
100
AcDbLine
  8
b
 62
256
370
-1
 48
1.0
  6
BYLAYER
 10
16.5
 20
-15.9999999999999982
 30
0.0
 11
16.5
 21
-18.6339745962155625
 31
0.0
  0
LINE
  5
202
100
AcDbEntity
100
AcDbLine
  8
b
 62
256
370
-1
 48
1.0
  6
BYLAYER
 10
138.0
 20
-18.6339745962155625
 30
0.0
 11
138.0
 21
-15.4999999999999982
 31
0.0
  0
LINE
  5
203
100
AcDbEntity
100
AcDbLine
  8
b
 62
256
370
-1
 48
1.0
  6
BYLAYER
 10
78.0
 20
-18.6339745962155625
 30
0.0
 11
78.0
 21
-15.4999999999999982
 31
0.0
  0
LINE
  5
204
100
AcDbEntity
100
AcDbLine
  8
b
 62
256
370
-1
 48
1.0
  6
BYLAYER
 10
18.0
 20
-18.6339745962155625
 30
0.0
 11
18.0
 21
-15.4999999999999982
 31
0.0
  0
LINE
  5
205
100
AcDbEntity
100
AcDbLine
  8
b
 62
256
370
-1
 48
1.0
  6
BYLAYER
 10
138.0
 20
-15.4999999999999982
 30
0.0
 11
138.0
 21
-14.9999999999999982
 31
0.0
  0
LINE
  5
206
100
AcDbEntity
100
AcDbLine
  8
b
 62
256
370
-1
 48
1.0
  6
BYLAYER
 10
78.0
 20
-15.4999999999999982
 30
0.0
 11
78.0
 21
-14.9999999999999982
 31
0.0
  0
LINE
  5
207
100
AcDbEntity
100
AcDbLine
  8
b
 62
256
370
-1
 48
1.0
  6
BYLAYER
 10
18.0
 20
-15.4999999999999982
 30
0.0
 11
18.0
 21
-14.9999999999999982
 31
0.0
  0
LINE
  5
208
100
AcDbEntity
100
AcDbLine
  8
b
 62
256
370
-1
 48
1.0
  6
BYLAYER
 10
138.0
 20
-14.9999999999999982
 30
0.0
 11
128.0
 21
-14.9999999999999964
 31
0.0
  0
LINE
  5
209
100
AcDbEntity
100
AcDbLine
  8
b
 62
256
370
-1
 48
1.0
  6
BYLAYER
 10
78.0
 20
-14.9999999999999982
 30
0.0
 11
68.0
 21
-14.9999999999999964
 31
0.0
  0
LINE
  5
20A
100
AcDbEntity
100
AcDbLine
  8
b
 62
256
370
-1
 48
1.0
  6
BYLAYER
 10
18.0
 20
-14.9999999999999982
 30
0.0
 11
7.9999999999999991
 21
-14.9999999999999964
 31
0.0
  0
LINE
  5
20B
100
AcDbEntity
100
AcDbLine
  8
b
 62
256
370
-1
 48
1.0
  6
BYLAYER
 10
7.9999999999999991
 20
-2.8660254037844379
 30
0.0
 11
8.0
 21
-14.9999999999999982
 31
0.0
  0
LINE
  5
20C
100
AcDbEntity
100
AcDbLine
  8
b
 62
256
370
-1
 48
1.0
  6
BYLAYER
 10
128.0
 20
-2.8660254037844379
 30
0.0
 11
128.0
 21
-14.9999999999999982
 31
0.0
  0
LINE
  5
20D
100
AcDbEntity
100
AcDbLine
  8
b
 62
256
370
-1
 48
1.0
  6
BYLAYER
 10
68.0
 20
-2.8660254037844379
 30
0.0
 11
68.0
 21
-14.9999999999999982
 31
0.0
  0
LINE
  5
20E
100
AcDbEntity
100
AcDbLine
  8
b
 62
256
370
-1
 48
1.0
  6
BYLAYER
 10
9.0
 20
-13.9999999999999982
 30
0.0
 11
9.0
 21
-2.8660254037843895
 31
0.0
  0
LINE
  5
20F
100
AcDbEntity
100
AcDbLine
  8
b
 62
256
370
-1
 48
1.0
  6
BYLAYER
 10
129.0
 20
-13.9999999999999982
 30
0.0
 11
129.0
 21
-2.8660254037843895
 31
0.0
  0
LINE
  5
210
100
AcDbEntity
100
AcDbLine
  8
b
 62
256
370
-1
 48
1.0
  6
BYLAYER
 10
69.0
 20
-13.9999999999999982
 30
0.0
 11
69.0
 21
-2.8660254037843895
 31
0.0
  0
LINE
  5
211
100
AcDbEntity
100
AcDbLine
  8
b
 62
256
370
-1
 48
1.0
  6
BYLAYER
 10
9.0
 20
-13.9999999999999982
 30
0.0
 11
35.5
 21
-13.9999999999999982
 31
0.0
  0
LINE
  5
212
100
AcDbEntity
100
AcDbLine
  8
b
 62
256
370
-1
 48
1.0
  6
BYLAYER
 10
129.0
 20
-13.9999999999999982
 30
0.0
 11
155.5
 21
-13.9999999999999982
 31
0.0
  0
LINE
  5
213
100
AcDbEntity
100
AcDbLine
  8
b
 62
256
370
-1
 48
1.0
  6
BYLAYER
 10
69.0
 20
-13.9999999999999982
 30
0.0
 11
95.5
 21
-13.9999999999999982
 31
0.0
  0
LINE
  5
214
100
AcDbEntity
100
AcDbLine
  8
b
 62
256
370
-1
 48
1.0
  6
BYLAYER
 10
19.0
 20
-14.9999999999999964
 30
0.0
 11
19.0
 21
-18.6339745962155625
 31
0.0
  0
LINE
  5
215
100
AcDbEntity
100
AcDbLine
  8
b
 62
256
370
-1
 48
1.0
  6
BYLAYER
 10
139.0
 20
-14.9999999999999964
 30
0.0
 11
139.0
 21
-18.6339745962155625
 31
0.0
  0
LINE
  5
216
100
AcDbEntity
100
AcDbLine
  8
b
 62
256
370
-1
 48
1.0
  6
BYLAYER
 10
79.0
 20
-14.9999999999999964
 30
0.0
 11
79.0
 21
-18.6339745962155625
 31
0.0
  0
LINE
  5
217
100
AcDbEntity
100
AcDbLine
  8
b
 62
256
370
-1
 48
1.0
  6
BYLAYER
 10
20.5
 20
-18.6339745962155625
 30
0.0
 11
20.5
 21
-15.9999999999999982
 31
0.0
  0
LINE
  5
218
100
AcDbEntity
100
AcDbLine
  8
b
 62
256
370
-1
 48
1.0
  6
BYLAYER
 10
140.5
 20
-18.6339745962155625
 30
0.0
 11
140.5
 21
-15.9999999999999982
 31
0.0
  0
LINE
  5
219
100
AcDbEntity
100
AcDbLine
  8
b
 62
256
370
-1
 48
1.0
  6
BYLAYER
 10
80.5
 20
-18.6339745962155625
 30
0.0
 11
80.5
 21
-15.9999999999999982
 31
0.0
  0
LINE
  5
21A
100
AcDbEntity
100
AcDbLine
  8
b
 62
256
370
-1
 48
1.0
  6
BYLAYER
 10
20.5
 20
-15.9999999999999982
 30
0.0
 11
38.0
 21
-15.9999999999999982
 31
0.0
  0
LINE
  5
21B
100
AcDbEntity
100
AcDbLine
  8
b
 62
256
370
-1
 48
1.0
  6
BYLAYER
 10
140.5
 20
-15.9999999999999982
 30
0.0
 11
158.0
 21
-15.9999999999999982
 31
0.0
  0
LINE
  5
21C
100
AcDbEntity
100
AcDbLine
  8
b
 62
256
370
-1
 48
1.0
  6
BYLAYER
 10
80.5
 20
-15.9999999999999982
 30
0.0
 11
98.0
 21
-15.9999999999999982
 31
0.0
  0
LINE
  5
21D
100
AcDbEntity
100
AcDbLine
  8
b
 62
256
370
-1
 48
1.0
  6
BYLAYER
 10
35.5
 20
-17.0
 30
0.0
 11
21.4999999999999964
 21
-17.0
 31
0.0
  0
LINE
  5
21E
100
AcDbEntity
100
AcDbLine
  8
b
 62
256
370
-1
 48
1.0
  6
BYLAYER
 10
155.5
 20
-17.0
 30
0.0
 11
141.5
 21
-17.0
 31
0.0
  0
LINE
  5
21F
100
AcDbEntity
100
AcDbLine
  8
b
 62
256
370
-1
 48
1.0
  6
BYLAYER
 10
95.5
 20
-17.0
 30
0.0
 11
81.5
 21
-17.0
 31
0.0
  0
LINE
  5
220
100
AcDbEntity
100
AcDbLine
  8
b
 62
256
370
-1
 48
1.0
  6
BYLAYER
 10
21.4999999999999964
 20
-17.0
 30
0.0
 11
21.4999999999999964
 21
-18.633974596215559
 31
0.0
  0
LINE
  5
221
100
AcDbEntity
100
AcDbLine
  8
b
 62
256
370
-1
 48
1.0
  6
BYLAYER
 10
141.5
 20
-17.0
 30
0.0
 11
141.5
 21
-18.633974596215559
 31
0.0
  0
LINE
  5
222
100
AcDbEntity
100
AcDbLine
  8
b
 62
256
370
-1
 48
1.0
  6
BYLAYER
 10
81.5
 20
-17.0
 30
0.0
 11
81.5
 21
-18.633974596215559
 31
0.0
  0
LINE
  5
223
100
AcDbEntity
100
AcDbLine
  8
b
 62
256
370
-1
 48
1.0
  6
BYLAYER
 10
24.3660254037844375
 20
-20.0
 30
0.0
 11
35.0
 21
-20.0
 31
0.0
  0
LINE
  5
224
100
AcDbEntity
100
AcDbLine
  8
b
 62
256
370
-1
 48
1.0
  6
BYLAYER
 10
144.3660254037844481
 20
-20.0
 30
0.0
 11
155.0
 21
-20.0
 31
0.0
  0
LINE
  5
225
100
AcDbEntity
100
AcDbLine
  8
b
 62
256
370
-1
 48
1.0
  6
BYLAYER
 10
84.3660254037844339
 20
-20.0
 30
0.0
 11
95.0
 21
-20.0
 31
0.0
  0
LINE
  5
226
100
AcDbEntity
100
AcDbLine
  8
b
 62
256
370
-1
 48
1.0
  6
BYLAYER
 10
35.0
 20
-20.0
 30
0.0
 11
35.0
 21
-18.0
 31
0.0
  0
LINE
  5
227
100
AcDbEntity
100
AcDbLine
  8
b
 62
256
370
-1
 48
1.0
  6
BYLAYER
 10
155.0
 20
-20.0
 30
0.0
 11
155.0
 21
-18.0
 31
0.0
  0
LINE
  5
228
100
AcDbEntity
100
AcDbLine
  8
b
 62
256
370
-1
 48
1.0
  6
BYLAYER
 10
95.0
 20
-20.0
 30
0.0
 11
95.0
 21
-18.0
 31
0.0
  0
LINE
  5
229
100
AcDbEntity
100
AcDbLine
  8
b
 62
256
370
-1
 48
1.0
  6
BYLAYER
 10
35.0
 20
-18.0
 30
0.0
 11
34.0
 21
-18.0
 31
0.0
  0
LINE
  5
22A
100
AcDbEntity
100
AcDbLine
  8
b
 62
256
370
-1
 48
1.0
  6
BYLAYER
 10
155.0
 20
-18.0
 30
0.0
 11
154.0
 21
-18.0
 31
0.0
  0
LINE
  5
22B
100
AcDbEntity
100
AcDbLine
  8
b
 62
256
370
-1
 48
1.0
  6
BYLAYER
 10
95.0
 20
-18.0
 30
0.0
 11
94.0
 21
-18.0
 31
0.0
  0
LINE
  5
22C
100
AcDbEntity
100
AcDbLine
  8
b
 62
256
370
-1
 48
1.0
  6
BYLAYER
 10
34.0
 20
-18.0
 30
0.0
 11
34.0
 21
-19.0
 31
0.0
  0
LINE
  5
22D
100
AcDbEntity
100
AcDbLine
  8
b
 62
256
370
-1
 48
1.0
  6
BYLAYER
 10
154.0
 20
-18.0
 30
0.0
 11
154.0
 21
-19.0
 31
0.0
  0
LINE
  5
22E
100
AcDbEntity
100
AcDbLine
  8
b
 62
256
370
-1
 48
1.0
  6
BYLAYER
 10
94.0
 20
-18.0
 30
0.0
 11
94.0
 21
-19.0
 31
0.0
  0
LINE
  5
22F
100
AcDbEntity
100
AcDbLine
  8
b
 62
256
370
-1
 48
1.0
  6
BYLAYER
 10
34.0
 20
-19.0
 30
0.0
 11
24.3660254037844268
 21
-19.0
 31
0.0
  0
LINE
  5
230
100
AcDbEntity
100
AcDbLine
  8
b
 62
256
370
-1
 48
1.0
  6
BYLAYER
 10
154.0
 20
-19.0
 30
0.0
 11
144.3660254037844197
 21
-19.0
 31
0.0
  0
LINE
  5
231
100
AcDbEntity
100
AcDbLine
  8
b
 62
256
370
-1
 48
1.0
  6
BYLAYER
 10
94.0
 20
-19.0
 30
0.0
 11
84.3660254037844197
 21
-19.0
 31
0.0
  0
LINE
  5
232
100
AcDbEntity
100
AcDbLine
  8
b
 62
256
370
-1
 48
1.0
  6
BYLAYER
 10
37.0
 20
-18.0
 30
0.0
 11
37.0
 21
-20.0
 31
0.0
  0
LINE
  5
233
100
AcDbEntity
100
AcDbLine
  8
b
 62
256
370
-1
 48
1.0
  6
BYLAYER
 10
157.0
 20
-18.0
 30
0.0
 11
157.0
 21
-20.0
 31
0.0
  0
LINE
  5
234
100
AcDbEntity
100
AcDbLine
  8
b
 62
256
370
-1
 48
1.0
  6
BYLAYER
 10
97.0
 20
-18.0
 30
0.0
 11
97.0
 21
-20.0
 31
0.0
  0
LINE
  5
235
100
AcDbEntity
100
AcDbLine
  8
b
 62
256
370
-1
 48
1.0
  6
BYLAYER
 10
37.0
 20
-18.0
 30
0.0
 11
38.0
 21
-18.0
 31
0.0
  0
LINE
  5
236
100
AcDbEntity
100
AcDbLine
  8
b
 62
256
370
-1
 48
1.0
  6
BYLAYER
 10
157.0
 20
-18.0
 30
0.0
 11
158.0
 21
-18.0
 31
0.0
  0
LINE
  5
237
100
AcDbEntity
100
AcDbLine
  8
b
 62
256
370
-1
 48
1.0
  6
BYLAYER
 10
97.0
 20
-18.0
 30
0.0
 11
98.0
 21
-18.0
 31
0.0
  0
LINE
  5
238
100
AcDbEntity
100
AcDbLine
  8
b
 62
256
370
-1
 48
1.0
  6
BYLAYER
 10
38.0
 20
-18.0
 30
0.0
 11
38.0
 21
-19.0
 31
0.0
  0
LINE
  5
239
100
AcDbEntity
100
AcDbLine
  8
b
 62
256
370
-1
 48
1.0
  6
BYLAYER
 10
158.0
 20
-18.0
 30
0.0
 11
158.0
 21
-19.0
 31
0.0
  0
LINE
  5
23A
100
AcDbEntity
100
AcDbLine
  8
b
 62
256
370
-1
 48
1.0
  6
BYLAYER
 10
98.0
 20
-18.0
 30
0.0
 11
98.0
 21
-19.0
 31
0.0
  0
LINE
  5
23B
100
AcDbEntity
100
AcDbLine
  8
b
 62
256
370
-1
 48
1.0
  6
BYLAYER
 10
38.0
 20
-19.0
 30
0.0
 11
40.4999999999999929
 21
-19.0
 31
0.0
  0
LINE
  5
23C
100
AcDbEntity
100
AcDbLine
  8
b
 62
256
370
-1
 48
1.0
  6
BYLAYER
 10
158.0
 20
-19.0
 30
0.0
 11
160.5
 21
-19.0
 31
0.0
  0
LINE
  5
23D
100
AcDbEntity
100
AcDbLine
  8
b
 62
256
370
-1
 48
1.0
  6
BYLAYER
 10
98.0
 20
-19.0
 30
0.0
 11
100.5
 21
-19.0
 31
0.0
  0
LINE
  5
23E
100
AcDbEntity
100
AcDbLine
  8
b
 62
256
370
-1
 48
1.0
  6
BYLAYER
 10
38.0
 20
-3.6339745962155607
 30
0.0
 11
38.0
 21
-1.4999999999999998
 31
0.0
  0
LINE
  5
23F
100
AcDbEntity
100
AcDbLine
  8
b
 62
256
370
-1
 48
1.0
  6
BYLAYER
 10
158.0
 20
-3.6339745962155607
 30
0.0
 11
158.0
 21
-1.4999999999999998
 31
0.0
  0
LINE
  5
240
100
AcDbEntity
100
AcDbLine
  8
b
 62
256
370
-1
 48
1.0
  6
BYLAYER
 10
98.0
 20
-3.6339745962155607
 30
0.0
 11
98.0
 21
-1.4999999999999998
 31
0.0
  0
LINE
  5
241
100
AcDbEntity
100
AcDbLine
  8
b
 62
256
370
-1
 48
1.0
  6
BYLAYER
 10
38.0
 20
-1.4999999999999998
 30
0.0
 11
46.4999999999999929
 21
-1.4999999999999998
 31
0.0
  0
LINE
  5
242
100
AcDbEntity
100
AcDbLine
  8
b
 62
256
370
-1
 48
1.0
  6
BYLAYER
 10
158.0
 20
-1.4999999999999998
 30
0.0
 11
166.5
 21
-1.4999999999999998
 31
0.0
  0
LINE
  5
243
100
AcDbEntity
100
AcDbLine
  8
b
 62
256
370
-1
 48
1.0
  6
BYLAYER
 10
98.0
 20
-1.4999999999999998
 30
0.0
 11
106.5
 21
-1.4999999999999998
 31
0.0
  0
LINE
  5
244
100
AcDbEntity
100
AcDbLine
  8
b
 62
256
370
-1
 48
1.0
  6
BYLAYER
 10
46.4999999999999929
 20
-1.4999999999999998
 30
0.0
 11
46.4999999999999929
 21
-14.9999999999999982
 31
0.0
  0
LINE
  5
245
100
AcDbEntity
100
AcDbLine
  8
b
 62
256
370
-1
 48
1.0
  6
BYLAYER
 10
166.5
 20
-1.4999999999999998
 30
0.0
 11
166.5
 21
-14.9999999999999982
 31
0.0
  0
LINE
  5
246
100
AcDbEntity
100
AcDbLine
  8
b
 62
256
370
-1
 48
1.0
  6
BYLAYER
 10
106.5
 20
-1.4999999999999998
 30
0.0
 11
106.5
 21
-14.9999999999999982
 31
0.0
  0
LINE
  5
247
100
AcDbEntity
100
AcDbLine
  8
b
 62
256
370
-1
 48
1.0
  6
BYLAYER
 10
46.4999999999999929
 20
-14.9999999999999982
 30
0.0
 11
44.3660254037844339
 21
-14.9999999999999982
 31
0.0
  0
LINE
  5
248
100
AcDbEntity
100
AcDbLine
  8
b
 62
256
370
-1
 48
1.0
  6
BYLAYER
 10
106.5
 20
-14.9999999999999982
 30
0.0
 11
104.3660254037844339
 21
-14.9999999999999982
 31
0.0
  0
LINE
  5
249
100
AcDbEntity
100
AcDbLine
  8
b
 62
256
370
-1
 48
1.0
  6
BYLAYER
 10
166.5
 20
-14.9999999999999982
 30
0.0
 11
164.3660254037844197
 21
-14.9999999999999982
 31
0.0
  0
LINE
  5
24A
100
AcDbEntity
100
AcDbLine
  8
b
 62
256
370
-1
 48
1.0
  6
BYLAYER
 10
44.3660254037844268
 20
-13.9999999999999964
 30
0.0
 11
45.5
 21
-14.0
 31
0.0
  0
LINE
  5
24B
100
AcDbEntity
100
AcDbLine
  8
b
 62
256
370
-1
 48
1.0
  6
BYLAYER
 10
104.3660254037844197
 20
-13.9999999999999964
 30
0.0
 11
105.5
 21
-14.0
 31
0.0
  0
LINE
  5
24C
100
AcDbEntity
100
AcDbLine
  8
b
 62
256
370
-1
 48
1.0
  6
BYLAYER
 10
164.3660254037844197
 20
-13.9999999999999964
 30
0.0
 11
165.5
 21
-14.0
 31
0.0
  0
LINE
  5
24D
100
AcDbEntity
100
AcDbLine
  8
b
 62
256
370
-1
 48
1.0
  6
BYLAYER
 10
45.5
 20
-14.0
 30
0.0
 11
45.4999999999999929
 21
-2.5
 31
0.0
  0
LINE
  5
24E
100
AcDbEntity
100
AcDbLine
  8
b
 62
256
370
-1
 48
1.0
  6
BYLAYER
 10
105.5
 20
-14.0
 30
0.0
 11
105.5
 21
-2.5
 31
0.0
  0
LINE
  5
24F
100
AcDbEntity
100
AcDbLine
  8
b
 62
256
370
-1
 48
1.0
  6
BYLAYER
 10
165.5
 20
-14.0
 30
0.0
 11
165.5
 21
-2.5
 31
0.0
  0
LINE
  5
250
100
AcDbEntity
100
AcDbLine
  8
b
 62
256
370
-1
 48
1.0
  6
BYLAYER
 10
45.4999999999999929
 20
-2.5
 30
0.0
 11
39.0
 21
-2.5
 31
0.0
  0
LINE
  5
251
100
AcDbEntity
100
AcDbLine
  8
b
 62
256
370
-1
 48
1.0
  6
BYLAYER
 10
105.5
 20
-2.5
 30
0.0
 11
99.0
 21
-2.5
 31
0.0
  0
LINE
  5
252
100
AcDbEntity
100
AcDbLine
  8
b
 62
256
370
-1
 48
1.0
  6
BYLAYER
 10
165.5
 20
-2.5
 30
0.0
 11
159.0
 21
-2.5
 31
0.0
  0
LINE
  5
253
100
AcDbEntity
100
AcDbLine
  8
b
 62
256
370
-1
 48
1.0
  6
BYLAYER
 10
39.0
 20
-2.5
 30
0.0
 11
39.0
 21
-3.6339745962155603
 31
0.0
  0
LINE
  5
254
100
AcDbEntity
100
AcDbLine
  8
b
 62
256
370
-1
 48
1.0
  6
BYLAYER
 10
99.0
 20
-2.5
 30
0.0
 11
99.0
 21
-3.6339745962155603
 31
0.0
  0
LINE
  5
255
100
AcDbEntity
100
AcDbLine
  8
b
 62
256
370
-1
 48
1.0
  6
BYLAYER
 10
159.0
 20
-2.5
 30
0.0
 11
159.0
 21
-3.6339745962155603
 31
0.0
  0
LINE
  5
256
100
AcDbEntity
100
AcDbLine
  8
b
 62
256
370
-1
 48
1.0
  6
BYLAYER
 10
44.3660254037844339
 20
-16.5
 30
0.0
 11
45.1339745962155519
 21
-16.5
 31
0.0
  0
LINE
  5
257
100
AcDbEntity
100
AcDbLine
  8
b
 62
256
370
-1
 48
1.0
  6
BYLAYER
 10
104.3660254037844339
 20
-16.5
 30
0.0
 11
105.1339745962155519
 21
-16.5
 31
0.0
  0
LINE
  5
258
100
AcDbEntity
100
AcDbLine
  8
b
 62
256
370
-1
 48
1.0
  6
BYLAYER
 10
164.3660254037844197
 20
-16.5
 30
0.0
 11
165.1339745962155519
 21
-16.5
 31
0.0
  0
LINE
  5
259
100
AcDbEntity
100
AcDbLine
  8
b
 62
256
370
-1
 48
1.0
  6
BYLAYER
 10
44.3660254037844339
 20
-17.5
 30
0.0
 11
45.1339745962155519
 21
-17.5
 31
0.0
  0
LINE
  5
25A
100
AcDbEntity
100
AcDbLine
  8
b
 62
256
370
-1
 48
1.0
  6
BYLAYER
 10
104.3660254037844339
 20
-17.5
 30
0.0
 11
105.1339745962155519
 21
-17.5
 31
0.0
  0
LINE
  5
25B
100
AcDbEntity
100
AcDbLine
  8
b
 62
256
370
-1
 48
1.0
  6
BYLAYER
 10
164.3660254037844197
 20
-17.5
 30
0.0
 11
165.1339745962155519
 21
-17.5
 31
0.0
  0
LINE
  5
25C
100
AcDbEntity
100
AcDbLine
  8
b
 62
256
370
-1
 48
1.0
  6
BYLAYER
 10
44.3660254037844339
 20
-19.0
 30
0.0
 11
45.1339745962155519
 21
-19.0
 31
0.0
  0
LINE
  5
25D
100
AcDbEntity
100
AcDbLine
  8
b
 62
256
370
-1
 48
1.0
  6
BYLAYER
 10
104.3660254037844339
 20
-19.0
 30
0.0
 11
105.1339745962155519
 21
-19.0
 31
0.0
  0
LINE
  5
25E
100
AcDbEntity
100
AcDbLine
  8
b
 62
256
370
-1
 48
1.0
  6
BYLAYER
 10
164.3660254037844197
 20
-19.0
 30
0.0
 11
165.1339745962155519
 21
-19.0
 31
0.0
  0
LINE
  5
25F
100
AcDbEntity
100
AcDbLine
  8
b
 62
256
370
-1
 48
1.0
  6
BYLAYER
 10
44.3660254037844339
 20
-20.0
 30
0.0
 11
45.1339745962155519
 21
-20.0
 31
0.0
  0
LINE
  5
260
100
AcDbEntity
100
AcDbLine
  8
b
 62
256
370
-1
 48
1.0
  6
BYLAYER
 10
104.3660254037844339
 20
-20.0
 30
0.0
 11
105.1339745962155519
 21
-20.0
 31
0.0
  0
LINE
  5
261
100
AcDbEntity
100
AcDbLine
  8
b
 62
256
370
-1
 48
1.0
  6
BYLAYER
 10
164.3660254037844197
 20
-20.0
 30
0.0
 11
165.1339745962155519
 21
-20.0
 31
0.0
  0
LINE
  5
262
100
AcDbEntity
100
AcDbLine
  8
b
 62
256
370
-1
 48
1.0
  6
BYLAYER
 10
41.5
 20
-21.133974596215559
 30
0.0
 11
41.5
 21
-20.0
 31
0.0
  0
LINE
  5
263
100
AcDbEntity
100
AcDbLine
  8
b
 62
256
370
-1
 48
1.0
  6
BYLAYER
 10
101.5
 20
-21.133974596215559
 30
0.0
 11
101.5
 21
-20.0
 31
0.0
  0
LINE
  5
264
100
AcDbEntity
100
AcDbLine
  8
b
 62
256
370
-1
 48
1.0
  6
BYLAYER
 10
161.5
 20
-21.133974596215559
 30
0.0
 11
161.5
 21
-20.0
 31
0.0
  0
LINE
  5
265
100
AcDbEntity
100
AcDbLine
  8
b
 62
256
370
-1
 48
1.0
  6
BYLAYER
 10
37.0
 20
-20.0
 30
0.0
 11
40.5999999999999943
 21
-19.9999999999999964
 31
0.0
  0
LINE
  5
266
100
AcDbEntity
100
AcDbLine
  8
b
 62
256
370
-1
 48
1.0
  6
BYLAYER
 10
97.0
 20
-20.0
 30
0.0
 11
100.5999999999999943
 21
-19.9999999999999964
 31
0.0
  0
LINE
  5
267
100
AcDbEntity
100
AcDbLine
  8
b
 62
256
370
-1
 48
1.0
  6
BYLAYER
 10
157.0
 20
-20.0
 30
0.0
 11
160.5999999999999943
 21
-19.9999999999999964
 31
0.0
  0
LINE
  5
268
100
AcDbEntity
100
AcDbLine
  8
b
 62
256
370
-1
 48
1.0
  6
BYLAYER
 10
41.4999999999999929
 20
-20.0
 30
0.0
 11
41.4999999999999929
 21
-10.0
 31
0.0
  0
LINE
  5
269
100
AcDbEntity
100
AcDbLine
  8
b
 62
256
370
-1
 48
1.0
  6
BYLAYER
 10
101.5
 20
-20.0
 30
0.0
 11
101.5
 21
-10.0
 31
0.0
  0
LINE
  5
26A
100
AcDbEntity
100
AcDbLine
  8
b
 62
256
370
-1
 48
1.0
  6
BYLAYER
 10
161.5
 20
-20.0
 30
0.0
 11
161.5
 21
-10.0
 31
0.0
  0
LINE
  5
26B
100
AcDbEntity
100
AcDbLine
  8
b
 62
256
370
-1
 48
1.0
  6
BYLAYER
 10
41.4999999999999929
 20
-10.0
 30
0.0
 11
42.6339745962155519
 21
-10.0
 31
0.0
  0
LINE
  5
26C
100
AcDbEntity
100
AcDbLine
  8
b
 62
256
370
-1
 48
1.0
  6
BYLAYER
 10
101.5
 20
-10.0
 30
0.0
 11
102.6339745962155519
 21
-10.0
 31
0.0
  0
LINE
  5
26D
100
AcDbEntity
100
AcDbLine
  8
b
 62
256
370
-1
 48
1.0
  6
BYLAYER
 10
161.5
 20
-10.0
 30
0.0
 11
162.6339745962155519
 21
-10.0
 31
0.0
  0
LINE
  5
26E
100
AcDbEntity
100
AcDbLine
  8
b
 62
256
370
-1
 48
1.0
  6
BYLAYER
 10
42.6339745962155519
 20
-9.0
 30
0.0
 11
41.4999999999999929
 21
-9.0
 31
0.0
  0
LINE
  5
26F
100
AcDbEntity
100
AcDbLine
  8
b
 62
256
370
-1
 48
1.0
  6
BYLAYER
 10
102.6339745962155519
 20
-9.0
 30
0.0
 11
101.5
 21
-9.0
 31
0.0
  0
LINE
  5
270
100
AcDbEntity
100
AcDbLine
  8
b
 62
256
370
-1
 48
1.0
  6
BYLAYER
 10
162.6339745962155519
 20
-9.0
 30
0.0
 11
161.5
 21
-9.0
 31
0.0
  0
LINE
  5
271
100
AcDbEntity
100
AcDbLine
  8
b
 62
256
370
-1
 48
1.0
  6
BYLAYER
 10
41.4999999999999929
 20
-9.0
 30
0.0
 11
41.4999999999999929
 21
-5.3660254037844375
 31
0.0
  0
LINE
  5
272
100
AcDbEntity
100
AcDbLine
  8
b
 62
256
370
-1
 48
1.0
  6
BYLAYER
 10
101.5
 20
-9.0
 30
0.0
 11
101.5
 21
-5.3660254037844375
 31
0.0
  0
LINE
  5
273
100
AcDbEntity
100
AcDbLine
  8
b
 62
256
370
-1
 48
1.0
  6
BYLAYER
 10
161.5
 20
-9.0
 30
0.0
 11
161.5
 21
-5.3660254037844375
 31
0.0
  0
LINE
  5
274
100
AcDbEntity
100
AcDbLine
  8
b
 62
256
370
-1
 48
1.0
  6
BYLAYER
 10
40.4999999999999929
 20
-5.366025403784433
 30
0.0
 11
40.4999999999999929
 21
-19.0
 31
0.0
  0
LINE
  5
275
100
AcDbEntity
100
AcDbLine
  8
b
 62
256
370
-1
 48
1.0
  6
BYLAYER
 10
100.5
 20
-5.366025403784433
 30
0.0
 11
100.5
 21
-19.0
 31
0.0
  0
LINE
  5
276
100
AcDbEntity
100
AcDbLine
  8
b
 62
256
370
-1
 48
1.0
  6
BYLAYER
 10
160.5
 20
-5.366025403784433
 30
0.0
 11
160.5
 21
-19.0
 31
0.0
  0
LINE
  5
277
100
AcDbEntity
100
AcDbLine
  8
b
 62
256
370
-1
 48
1.0
  6
BYLAYER
 10
39.0
 20
-5.3660254037844375
 30
0.0
 11
39.0
 21
-17.0
 31
0.0
  0
LINE
  5
278
100
AcDbEntity
100
AcDbLine
  8
b
 62
256
370
-1
 48
1.0
  6
BYLAYER
 10
99.0
 20
-5.3660254037844375
 30
0.0
 11
99.0
 21
-17.0
 31
0.0
  0
LINE
  5
279
100
AcDbEntity
100
AcDbLine
  8
b
 62
256
370
-1
 48
1.0
  6
BYLAYER
 10
159.0
 20
-5.3660254037844375
 30
0.0
 11
159.0
 21
-17.0
 31
0.0
  0
LINE
  5
27A
100
AcDbEntity
100
AcDbLine
  8
b
 62
256
370
-1
 48
1.0
  6
BYLAYER
 10
38.0
 20
-15.9999999999999982
 30
0.0
 11
38.0
 21
-5.3660254037844375
 31
0.0
  0
LINE
  5
27B
100
AcDbEntity
100
AcDbLine
  8
b
 62
256
370
-1
 48
1.0
  6
BYLAYER
 10
98.0
 20
-15.9999999999999982
 30
0.0
 11
98.0
 21
-5.3660254037844375
 31
0.0
  0
LINE
  5
27C
100
AcDbEntity
100
AcDbLine
  8
b
 62
256
370
-1
 48
1.0
  6
BYLAYER
 10
158.0
 20
-15.9999999999999982
 30
0.0
 11
158.0
 21
-5.3660254037844375
 31
0.0
  0
LINE
  5
27D
100
AcDbEntity
100
AcDbLine
  8
b
 62
256
370
-1
 48
1.0
  6
BYLAYER
 10
36.5
 20
-7.8660254037844366
 30
0.0
 11
36.5
 21
-14.9999999999999982
 31
0.0
  0
LINE
  5
27E
100
AcDbEntity
100
AcDbLine
  8
b
 62
256
370
-1
 48
1.0
  6
BYLAYER
 10
96.5
 20
-7.8660254037844366
 30
0.0
 11
96.5
 21
-14.9999999999999982
 31
0.0
  0
LINE
  5
27F
100
AcDbEntity
100
AcDbLine
  8
b
 62
256
370
-1
 48
1.0
  6
BYLAYER
 10
156.5
 20
-7.8660254037844366
 30
0.0
 11
156.5
 21
-14.9999999999999982
 31
0.0
  0
LINE
  5
280
100
AcDbEntity
100
AcDbLine
  8
b
 62
256
370
-1
 48
1.0
  6
BYLAYER
 10
36.5
 20
-14.9999999999999982
 30
0.0
 11
19.0
 21
-14.9999999999999982
 31
0.0
  0
LINE
  5
281
100
AcDbEntity
100
AcDbLine
  8
b
 62
256
370
-1
 48
1.0
  6
BYLAYER
 10
96.5
 20
-14.9999999999999982
 30
0.0
 11
79.0
 21
-14.9999999999999982
 31
0.0
  0
LINE
  5
282
100
AcDbEntity
100
AcDbLine
  8
b
 62
256
370
-1
 48
1.0
  6
BYLAYER
 10
156.5
 20
-14.9999999999999982
 30
0.0
 11
139.0
 21
-14.9999999999999982
 31
0.0
  0
LINE
  5
283
100
AcDbEntity
100
AcDbLine
  8
b
 62
256
370
-1
 48
1.0
  6
BYLAYER
 10
35.5
 20
-13.9999999999999982
 30
0.0
 11
35.5
 21
-7.8660254037844402
 31
0.0
  0
LINE
  5
284
100
AcDbEntity
100
AcDbLine
  8
b
 62
256
370
-1
 48
1.0
  6
BYLAYER
 10
95.5
 20
-13.9999999999999982
 30
0.0
 11
95.5
 21
-7.8660254037844402
 31
0.0
  0
LINE
  5
285
100
AcDbEntity
100
AcDbLine
  8
b
 62
256
370
-1
 48
1.0
  6
BYLAYER
 10
155.5
 20
-13.9999999999999982
 30
0.0
 11
155.5
 21
-7.8660254037844402
 31
0.0
  0
LINE
  5
286
100
AcDbEntity
100
AcDbLine
  8
b
 62
256
370
-1
 48
1.0
  6
BYLAYER
 10
33.0
 20
-5.3660254037844384
 30
0.0
 11
33.0
 21
-6.1339745962155616
 31
0.0
  0
LINE
  5
287
100
AcDbEntity
100
AcDbLine
  8
b
 62
256
370
-1
 48
1.0
  6
BYLAYER
 10
35.5
 20
-5.3660254037844375
 30
0.0
 11
35.5
 21
-6.1339745962155607
 31
0.0
  0
LINE
  5
288
100
AcDbEntity
100
AcDbLine
  8
b
 62
256
370
-1
 48
1.0
  6
BYLAYER
 10
93.0
 20
-5.3660254037844384
 30
0.0
 11
93.0
 21
-6.1339745962155616
 31
0.0
  0
LINE
  5
289
100
AcDbEntity
100
AcDbLine
  8
b
 62
256
370
-1
 48
1.0
  6
BYLAYER
 10
95.5
 20
-5.3660254037844375
 30
0.0
 11
95.5
 21
-6.1339745962155607
 31
0.0
  0
LINE
  5
28A
100
AcDbEntity
100
AcDbLine
  8
b
 62
256
370
-1
 48
1.0
  6
BYLAYER
 10
153.0
 20
-5.3660254037844384
 30
0.0
 11
153.0
 21
-6.1339745962155616
 31
0.0
  0
LINE
  5
28B
100
AcDbEntity
100
AcDbLine
  8
b
 62
256
370
-1
 48
1.0
  6
BYLAYER
 10
155.5
 20
-5.3660254037844375
 30
0.0
 11
155.5
 21
-6.1339745962155607
 31
0.0
  0
LINE
  5
28C
100
AcDbEntity
100
AcDbLine
  8
b
 62
256
370
-1
 48
1.0
  6
BYLAYER
 10
34.0
 20
-5.3660254037844384
 30
0.0
 11
34.0
 21
-6.1339745962155616
 31
0.0
  0
LINE
  5
28D
100
AcDbEntity
100
AcDbLine
  8
b
 62
256
370
-1
 48
1.0
  6
BYLAYER
 10
36.5
 20
-5.3660254037844375
 30
0.0
 11
36.5
 21
-6.1339745962155607
 31
0.0
  0
LINE
  5
28E
100
AcDbEntity
100
AcDbLine
  8
b
 62
256
370
-1
 48
1.0
  6
BYLAYER
 10
94.0
 20
-5.3660254037844384
 30
0.0
 11
94.0
 21
-6.1339745962155616
 31
0.0
  0
LINE
  5
28F
100
AcDbEntity
100
AcDbLine
  8
b
 62
256
370
-1
 48
1.0
  6
BYLAYER
 10
96.5
 20
-5.3660254037844375
 30
0.0
 11
96.5
 21
-6.1339745962155607
 31
0.0
  0
LINE
  5
290
100
AcDbEntity
100
AcDbLine
  8
b
 62
256
370
-1
 48
1.0
  6
BYLAYER
 10
154.0
 20
-5.3660254037844384
 30
0.0
 11
154.0
 21
-6.1339745962155616
 31
0.0
  0
LINE
  5
291
100
AcDbEntity
100
AcDbLine
  8
b
 62
256
370
-1
 48
1.0
  6
BYLAYER
 10
156.5
 20
-5.3660254037844375
 30
0.0
 11
156.5
 21
-6.1339745962155607
 31
0.0
  0
LINE
  5
292
100
AcDbEntity
100
AcDbLine
  8
b
 62
256
370
-1
 48
1.0
  6
BYLAYER
 10
34.0
 20
-7.8660254037844384
 30
0.0
 11
34.0
 21
-12.9999999999999982
 31
0.0
  0
LINE
  5
293
100
AcDbEntity
100
AcDbLine
  8
b
 62
256
370
-1
 48
1.0
  6
BYLAYER
 10
94.0
 20
-7.8660254037844384
 30
0.0
 11
94.0
 21
-12.9999999999999982
 31
0.0
  0
LINE
  5
294
100
AcDbEntity
100
AcDbLine
  8
b
 62
256
370
-1
 48
1.0
  6
BYLAYER
 10
154.0
 20
-7.8660254037844384
 30
0.0
 11
154.0
 21
-12.9999999999999982
 31
0.0
  0
LINE
  5
295
100
AcDbEntity
100
AcDbLine
  8
b
 62
256
370
-1
 48
1.0
  6
BYLAYER
 10
34.0
 20
-12.9999999999999964
 30
0.0
 11
9.5
 21
-12.9999999999999982
 31
0.0
  0
LINE
  5
296
100
AcDbEntity
100
AcDbLine
  8
b
 62
256
370
-1
 48
1.0
  6
BYLAYER
 10
94.0
 20
-12.9999999999999964
 30
0.0
 11
69.5
 21
-12.9999999999999982
 31
0.0
  0
LINE
  5
297
100
AcDbEntity
100
AcDbLine
  8
b
 62
256
370
-1
 48
1.0
  6
BYLAYER
 10
154.0
 20
-12.9999999999999964
 30
0.0
 11
129.5
 21
-12.9999999999999982
 31
0.0
  0
LINE
  5
298
100
AcDbEntity
100
AcDbLine
  8
b
 62
256
370
-1
 48
1.0
  6
BYLAYER
 10
9.5
 20
-12.9999999999999982
 30
0.0
 11
9.5
 21
-10.9999999999999982
 31
0.0
  0
LINE
  5
299
100
AcDbEntity
100
AcDbLine
  8
b
 62
256
370
-1
 48
1.0
  6
BYLAYER
 10
69.5
 20
-12.9999999999999982
 30
0.0
 11
69.5
 21
-10.9999999999999982
 31
0.0
  0
LINE
  5
29A
100
AcDbEntity
100
AcDbLine
  8
b
 62
256
370
-1
 48
1.0
  6
BYLAYER
 10
129.5
 20
-12.9999999999999982
 30
0.0
 11
129.5
 21
-10.9999999999999982
 31
0.0
  0
LINE
  5
29B
100
AcDbEntity
100
AcDbLine
  8
b
 62
256
370
-1
 48
1.0
  6
BYLAYER
 10
9.5
 20
-10.9999999999999982
 30
0.0
 11
10.5
 21
-10.9999999999999982
 31
0.0
  0
LINE
  5
29C
100
AcDbEntity
100
AcDbLine
  8
b
 62
256
370
-1
 48
1.0
  6
BYLAYER
 10
69.5
 20
-10.9999999999999982
 30
0.0
 11
70.5
 21
-10.9999999999999982
 31
0.0
  0
LINE
  5
29D
100
AcDbEntity
100
AcDbLine
  8
b
 62
256
370
-1
 48
1.0
  6
BYLAYER
 10
129.5
 20
-10.9999999999999982
 30
0.0
 11
130.5
 21
-10.9999999999999982
 31
0.0
  0
LINE
  5
29E
100
AcDbEntity
100
AcDbLine
  8
b
 62
256
370
-1
 48
1.0
  6
BYLAYER
 10
10.5
 20
-10.9999999999999982
 30
0.0
 11
10.5
 21
-11.9999999999999982
 31
0.0
  0
LINE
  5
29F
100
AcDbEntity
100
AcDbLine
  8
b
 62
256
370
-1
 48
1.0
  6
BYLAYER
 10
70.5
 20
-10.9999999999999982
 30
0.0
 11
70.5
 21
-11.9999999999999982
 31
0.0
  0
LINE
  5
2A0
100
AcDbEntity
100
AcDbLine
  8
b
 62
256
370
-1
 48
1.0
  6
BYLAYER
 10
130.5
 20
-10.9999999999999982
 30
0.0
 11
130.5
 21
-11.9999999999999982
 31
0.0
  0
LINE
  5
2A1
100
AcDbEntity
100
AcDbLine
  8
b
 62
256
370
-1
 48
1.0
  6
BYLAYER
 10
10.5
 20
-11.9999999999999982
 30
0.0
 11
32.9999999999999929
 21
-11.9999999999999964
 31
0.0
  0
LINE
  5
2A2
100
AcDbEntity
100
AcDbLine
  8
b
 62
256
370
-1
 48
1.0
  6
BYLAYER
 10
70.5
 20
-11.9999999999999982
 30
0.0
 11
93.0
 21
-11.9999999999999964
 31
0.0
  0
LINE
  5
2A3
100
AcDbEntity
100
AcDbLine
  8
b
 62
256
370
-1
 48
1.0
  6
BYLAYER
 10
130.5
 20
-11.9999999999999982
 30
0.0
 11
153.0
 21
-11.9999999999999964
 31
0.0
  0
LINE
  5
2A4
100
AcDbEntity
100
AcDbLine
  8
b
 62
256
370
-1
 48
1.0
  6
BYLAYER
 10
33.0
 20
-11.9999999999999982
 30
0.0
 11
33.0
 21
-7.8660254037844375
 31
0.0
  0
LINE
  5
2A5
100
AcDbEntity
100
AcDbLine
  8
b
 62
256
370
-1
 48
1.0
  6
BYLAYER
 10
93.0
 20
-11.9999999999999982
 30
0.0
 11
93.0
 21
-7.8660254037844375
 31
0.0
  0
LINE
  5
2A6
100
AcDbEntity
100
AcDbLine
  8
b
 62
256
370
-1
 48
1.0
  6
BYLAYER
 10
153.0
 20
-11.9999999999999982
 30
0.0
 11
153.0
 21
-7.8660254037844375
 31
0.0
  0
LINE
  5
2A7
100
AcDbEntity
100
AcDbLine
  8
b
 62
256
370
-1
 48
1.0
  6
BYLAYER
 10
7.3999999999999995
 20
-10.9999999999999982
 30
0.0
 11
7.3999999999999995
 21
-12.9999999999999982
 31
0.0
  0
LINE
  5
2A8
100
AcDbEntity
100
AcDbLine
  8
b
 62
256
370
-1
 48
1.0
  6
BYLAYER
 10
67.4000000000000057
 20
-10.9999999999999982
 30
0.0
 11
67.4000000000000057
 21
-12.9999999999999982
 31
0.0
  0
LINE
  5
2A9
100
AcDbEntity
100
AcDbLine
  8
b
 62
256
370
-1
 48
1.0
  6
BYLAYER
 10
127.4000000000000057
 20
-10.9999999999999982
 30
0.0
 11
127.4000000000000057
 21
-12.9999999999999982
 31
0.0
  0
LINE
  5
2AA
100
AcDbEntity
100
AcDbLine
  8
b
 62
256
370
-1
 48
1.0
  6
BYLAYER
 10
7.3999999999999995
 20
-12.9999999999999982
 30
0.0
 11
6.4999999999999991
 21
-12.9999999999999982
 31
0.0
  0
LINE
  5
2AB
100
AcDbEntity
100
AcDbLine
  8
b
 62
256
370
-1
 48
1.0
  6
BYLAYER
 10
67.4000000000000057
 20
-12.9999999999999982
 30
0.0
 11
66.5
 21
-12.9999999999999982
 31
0.0
  0
LINE
  5
2AC
100
AcDbEntity
100
AcDbLine
  8
b
 62
256
370
-1
 48
1.0
  6
BYLAYER
 10
127.4000000000000057
 20
-12.9999999999999982
 30
0.0
 11
126.5
 21
-12.9999999999999982
 31
0.0
  0
LINE
  5
2AD
100
AcDbEntity
100
AcDbLine
  8
b
 62
256
370
-1
 48
1.0
  6
BYLAYER
 10
7.3999999999999995
 20
-10.9999999999999982
 30
0.0
 11
6.4999999999999991
 21
-10.9999999999999982
 31
0.0
  0
LINE
  5
2AE
100
AcDbEntity
100
AcDbLine
  8
b
 62
256
370
-1
 48
1.0
  6
BYLAYER
 10
67.4000000000000057
 20
-10.9999999999999982
 30
0.0
 11
66.5
 21
-10.9999999999999982
 31
0.0
  0
LINE
  5
2AF
100
AcDbEntity
100
AcDbLine
  8
b
 62
256
370
-1
 48
1.0
  6
BYLAYER
 10
127.4000000000000057
 20
-10.9999999999999982
 30
0.0
 11
126.5
 21
-10.9999999999999982
 31
0.0
  0
LINE
  5
2B0
100
AcDbEntity
100
AcDbLine
  8
b
 62
256
370
-1
 48
1.0
  6
BYLAYER
 10
36.5
 20
-17.0
 30
0.0
 11
39.0
 21
-17.0
 31
0.0
  0
LINE
  5
2B1
100
AcDbEntity
100
AcDbLine
  8
b
 62
256
370
-1
 48
1.0
  6
BYLAYER
 10
96.5
 20
-17.0
 30
0.0
 11
99.0
 21
-17.0
 31
0.0
  0
LINE
  5
2B2
100
AcDbEntity
100
AcDbLine
  8
b
 62
256
370
-1
 48
1.0
  6
BYLAYER
 10
156.5
 20
-17.0
 30
0.0
 11
159.0
 21
-17.0
 31
0.0
  0
HATCH
  5
2B3
  8
b
 62
256
370
-1
 48
1.0
  6
BYLAYER
100
AcDbEntity
100
AcDbHatch
 10
0.0
 20
0.0
 30
0.0
210
0.0
220
0.0
230
1.0
  2
SOLID
 70
1
 71
0
 91
94
 92
1
 93
12
 72
1
 10
34.0
 20
-5.3660254037844384
 11
34.0
 21
-6.1339745962155616
 72
2
 10
33.5
 20
-7.0
 40
1.0
 50
300.0
 51
59.9999999999999858
 73
0
 72
1
 10
34.0
 20
-7.8660254037844384
 11
34.0
 21
-12.9999999999999982
 72
1
 10
34.0
 20
-12.9999999999999964
 11
9.5
 21
-12.9999999999999982
 72
1
 10
9.5
 20
-12.9999999999999982
 11
9.5
 21
-10.9999999999999982
 72
1
 10
9.5
 20
-10.9999999999999982
 11
10.5
 21
-10.9999999999999982
 72
1
 10
10.5
 20
-10.9999999999999982
 11
10.5
 21
-11.9999999999999982
 72
1
 10
10.5
 20
-11.9999999999999982
 11
32.9999999999999929
 21
-11.9999999999999964
 72
1
 10
33.0
 20
-11.9999999999999982
 11
33.0
 21
-7.8660254037844375
 72
2
 10
33.5
 20
-7.0
 40
1.0
 50
120.0000000000000711
 51
240.0
 73
0
 72
1
 10
33.0
 20
-6.1339745962155616
 11
33.0
 21
-5.3660254037844384
 72
2
 10
33.5
 20
-4.5
 40
1.0
 50
120.0000000000000142
 51
59.9999999999999858
 73
0
 97
0
 92
1
 93
22
 72
1
 10
35.5
 20
-17.0
 11
21.4999999999999964
 21
-17.0
 72
1
 10
21.4999999999999964
 20
-17.0
 11
21.4999999999999964
 21
-18.633974596215559
 72
2
 10
21.0
 20
-19.5
 40
1.0
 50
299.9999999999997726
 51
239.9999999999999432
 73
0
 72
1
 10
20.5
 20
-18.6339745962155625
 11
20.5
 21
-15.9999999999999982
 72
1
 10
20.5
 20
-15.9999999999999982
 11
38.0
 21
-15.9999999999999982
 72
1
 10
38.0
 20
-15.9999999999999982
 11
38.0
 21
-5.3660254037844375
 72
2
 10
38.5
 20
-4.4999999999999991
 40
1.0
 50
120.0000000000001705
 51
240.0000000000000284
 73
0
 72
1
 10
38.0
 20
-3.6339745962155607
 11
38.0
 21
-1.4999999999999998
 72
1
 10
38.0
 20
-1.4999999999999998
 11
46.4999999999999929
 21
-1.4999999999999998
 72
1
 10
46.4999999999999929
 20
-1.4999999999999998
 11
46.4999999999999929
 21
-14.9999999999999982
 72
1
 10
46.4999999999999929
 20
-14.9999999999999982
 11
44.3660254037844339
 21
-14.9999999999999982
 72
2
 10
43.4999999999999929
 20
-14.5
 40
1.0
 50
29.999999999999865
 51
329.9999999999996589
 73
0
 72
1
 10
44.3660254037844268
 20
-13.9999999999999964
 11
45.5
 21
-14.0
 72
1
 10
45.5
 20
-14.0
 11
45.4999999999999929
 21
-2.5
 72
1
 10
45.4999999999999929
 20
-2.5
 11
39.0
 21
-2.5
 72
1
 10
39.0
 20
-2.5
 11
39.0
 21
-3.6339745962155603
 72
2
 10
38.5
 20
-4.4999999999999991
 40
1.0
 50
300.0
 51
59.9999999999999858
 73
0
 72
1
 10
39.0
 20
-5.3660254037844375
 11
39.0
 21
-17.0
 72
1
 10
39.0
 20
-17.0
 11
36.5
 21
-17.0
 72
1
 10
36.5
 20
-17.0
 11
36.5
 21
-21.1339745962155554
 72
2
 10
36.0
 20
-21.9999999999999964
 40
1.0
 50
299.9999999999999432
 51
239.9999999999999432
 73
0
 72
1
 10
35.5
 20
-21.133974596215559
 11
35.5
 21
-17.0
 97
0
 92
1
 93
17
 72
1
 10
19.0
 20
-14.9999999999999964
 11
19.0
 21
-18.6339745962155625
 72
2
 10
18.5
 20
-19.5
 40
1.0
 50
300.0000000000001137
 51
239.9999999999999432
 73
0
 72
1
 10
18.0
 20
-18.6339745962155625
 11
18.0
 21
-15.4999999999999982
 72
1
 10
18.0
 20
-15.4999999999999982
 11
18.0
 21
-14.9999999999999982
 72
1
 10
18.0
 20
-14.9999999999999982
 11
7.9999999999999991
 21
-14.9999999999999964
 72
1
 10
8.0
 20
-14.9999999999999982
 11
7.9999999999999991
 21
-2.8660254037844379
 72
2
 10
8.5
 20
-2.0
 40
1.0
 50
120.0000000000000711
 51
60.0000000000000355
 73
0
 72
1
 10
9.0
 20
-2.8660254037843895
 11
9.0
 21
-13.9999999999999982
 72
1
 10
9.0
 20
-13.9999999999999982
 11
35.5
 21
-13.9999999999999982
 72
1
 10
35.5
 20
-13.9999999999999982
 11
35.5
 21
-7.8660254037844402
 72
2
 10
36.0
 20
-6.9999999999999991
 40
1.0
 50
120.0000000000000711
 51
240.0
 73
0
 72
1
 10
35.5
 20
-6.1339745962155607
 11
35.5
 21
-5.3660254037844375
 72
2
 10
36.0
 20
-4.4999999999999991
 40
1.0
 50
120.0000000000000142
 51
59.9999999999999858
 73
0
 72
1
 10
36.5
 20
-5.3660254037844375
 11
36.5
 21
-6.1339745962155607
 72
2
 10
36.0
 20
-6.9999999999999991
 40
1.0
 50
300.0
 51
59.9999999999999858
 73
0
 72
1
 10
36.5
 20
-7.8660254037844366
 11
36.5
 21
-14.9999999999999982
 72
1
 10
36.5
 20
-14.9999999999999982
 11
19.0
 21
-14.9999999999999982
 97
0
 92
1
 93
12
 72
2
 10
16.0
 20
-19.5
 40
1.0
 50
120.0000000000001137
 51
59.9999999999999645
 73
1
 72
1
 10
16.5
 20
-18.6339745962155625
 11
16.5
 21
-15.9999999999999982
 72
1
 10
16.5
 20
-15.9999999999999982
 11
6.4999999999999991
 21
-15.9999999999999982
 72
1
 10
6.4999999999999991
 20
-15.9999999999999982
 11
6.4999999999999991
 21
-12.9999999999999964
 72
1
 10
6.4999999999999991
 20
-12.9999999999999982
 11
7.3999999999999995
 21
-12.9999999999999982
 72
1
 10
7.3999999999999995
 20
-12.9999999999999982
 11
7.3999999999999995
 21
-10.9999999999999982
 72
1
 10
7.3999999999999995
 20
-10.9999999999999982
 11
6.4999999999999991
 21
-10.9999999999999982
 72
1
 10
6.4999999999999991
 20
-10.9999999999999982
 11
6.4999999999999991
 21
-2.8660254037844379
 72
2
 10
6.0
 20
-2.0
 40
1.0
 50
300.0
 51
239.9999999999999432
 73
1
 72
1
 10
5.4999999999999991
 20
-2.8660254037844286
 11
5.4999999999999991
 21
-17.0
 72
1
 10
5.4999999999999991
 20
-17.0
 11
15.4999999999999982
 21
-17.0
 72
1
 10
15.4999999999999982
 20
-17.0
 11
15.4999999999999982
 21
-18.6339745962155625
 97
0
 92
1
 93
6
 72
1
 10
34.0
 20
-18.0
 11
34.0
 21
-19.0
 72
1
 10
34.0
 20
-19.0
 11
24.3660254037844268
 21
-19.0
 72
2
 10
23.5
 20
-19.4999999999999964
 40
1.0
 50
29.9999999999999538
 51
329.9999999999998295
 73
1
 72
1
 10
24.3660254037844375
 20
-20.0
 11
35.0
 21
-20.0
 72
1
 10
35.0
 20
-20.0
 11
35.0
 21
-18.0
 72
1
 10
35.0
 20
-18.0
 11
34.0
 21
-18.0
 97
0
 92
1
 93
1
 72
2
 10
6.0
 20
-22.0
 40
1.0
 50
0.0
 51
360.0
 73
1
 97
0
 92
1
 93
1
 72
2
 10
8.5
 20
-22.0
 40
0.5
 50
0.0
 51
360.0
 73
1
 97
0
 92
1
 93
1
 72
2
 10
8.5
 20
-1.9999999999999998
 40
0.5
 50
0.0
 51
360.0
 73
1
 97
0
 92
1
 93
1
 72
2
 10
6.0
 20
-22.0
 40
0.5
 50
0.0
 51
360.0
 73
1
 97
0
 92
1
 93
1
 72
2
 10
6.0
 20
-2.0
 40
0.5
 50
0.0
 51
360.0
 73
1
 97
0
 92
1
 93
1
 72
2
 10
18.5
 20
-22.0
 40
0.5
 50
0.0
 51
360.0
 73
1
 97
0
 92
1
 93
1
 72
2
 10
18.5
 20
-1.9999999999999989
 40
0.5
 50
0.0
 51
360.0
 73
1
 97
0
 92
1
 93
1
 72
2
 10
16.0
 20
-22.0
 40
0.5
 50
0.0
 51
360.0
 73
1
 97
0
 92
1
 93
1
 72
2
 10
16.0
 20
-1.9999999999999991
 40
0.5
 50
0.0
 51
360.0
 73
1
 97
0
 92
1
 93
1
 72
2
 10
13.5
 20
-22.0
 40
0.5
 50
0.0
 51
360.0
 73
1
 97
0
 92
1
 93
1
 72
2
 10
13.5
 20
-1.9999999999999993
 40
0.5
 50
0.0
 51
360.0
 73
1
 97
0
 92
1
 93
1
 72
2
 10
11.0
 20
-22.0
 40
0.5
 50
0.0
 51
360.0
 73
1
 97
0
 92
1
 93
1
 72
2
 10
11.0
 20
-1.9999999999999996
 40
0.5
 50
0.0
 51
360.0
 73
1
 97
0
 92
1
 93
15
 72
1
 10
38.0
 20
-19.0
 11
40.4999999999999929
 21
-19.0
 72
1
 10
40.4999999999999929
 20
-19.0
 11
40.4999999999999929
 21
-5.366025403784433
 72
2
 10
41.0
 20
-4.4999999999999982
 40
1.0
 50
120.000000000000469
 51
60.0000000000004334
 73
0
 72
1
 10
41.4999999999999929
 20
-5.3660254037844375
 11
41.4999999999999929
 21
-9.0
 72
1
 10
41.4999999999999929
 20
-9.0
 11
42.6339745962155519
 21
-9.0
 72
2
 10
43.4999999999999929
 20
-9.5
 40
1.0
 50
209.9999999999999432
 51
150.0000000000000853
 73
0
 72
1
 10
42.6339745962155519
 20
-10.0
 11
41.4999999999999929
 21
-10.0
 72
1
 10
41.4999999999999929
 20
-10.0
 11
41.4999999999999929
 21
-20.0
 72
1
 10
41.5
 20
-20.0
 11
41.5
 21
-21.133974596215559
 72
2
 10
41.0
 20
-21.9999999999999964
 40
1.0
 50
300.0
 51
246.4218215217978241
 73
0
 72
1
 10
40.5999999999999943
 20
-21.0834848610088308
 11
40.5999999999999943
 21
-20.0
 72
1
 10
40.5999999999999943
 20
-19.9999999999999964
 11
37.0
 21
-20.0
 72
1
 10
37.0
 20
-20.0
 11
37.0
 21
-18.0
 72
1
 10
37.0
 20
-18.0
 11
38.0
 21
-18.0
 72
1
 10
38.0
 20
-18.0
 11
38.0
 21
-19.0
 97
0
 92
1
 93
1
 72
2
 10
43.5
 20
-21.9999999999999964
 40
1.0
 50
0.0
 51
360.0
 73
1
 97
0
 92
1
 93
1
 72
2
 10
38.5
 20
-21.9999999999999964
 40
1.0
 50
0.0
 51
360.0
 73
1
 97
0
 92
1
 93
1
 72
2
 10
36.0
 20
-6.9999999999999991
 40
0.5
 50
0.0
 51
360.0
 73
1
 97
0
 92
1
 93
1
 72
2
 10
13.5
 20
-22.0
 40
1.0
 50
0.0
 51
360.0
 73
1
 97
0
 92
1
 93
1
 72
2
 10
11.0
 20
-22.0
 40
1.0
 50
0.0
 51
360.0
 73
1
 97
0
 92
1
 93
1
 72
2
 10
8.5
 20
-22.0
 40
1.0
 50
0.0
 51
360.0
 73
1
 97
0
 92
1
 93
1
 72
2
 10
33.5
 20
-1.9999999999999973
 40
1.0
 50
0.0
 51
360.0
 73
1
 97
0
 92
1
 93
4
 72
2
 10
45.9999999999999929
 20
-19.5
 40
1.0
 50
209.9999999999999432
 51
150.0000000000000853
 73
1
 72
1
 10
45.1339745962155519
 20
-19.0
 11
44.3660254037844339
 21
-19.0
 72
2
 10
43.4999999999999929
 20
-19.5
 40
1.0
 50
29.9999999999999289
 51
330.0000000000000568
 73
1
 72
1
 10
44.3660254037844339
 20
-20.0
 11
45.1339745962155519
 21
-20.0
 97
0
 92
1
 93
1
 72
2
 10
31.0
 20
-1.9999999999999978
 40
1.0
 50
0.0
 51
360.0
 73
1
 97
0
 92
1
 93
1
 72
2
 10
28.5
 20
-1.9999999999999982
 40
1.0
 50
0.0
 51
360.0
 73
1
 97
0
 92
1
 93
4
 72
2
 10
45.9999999999999929
 20
-17.0
 40
1.0
 50
209.9999999999999432
 51
150.0000000000000853
 73
1
 72
1
 10
45.1339745962155519
 20
-16.5
 11
44.3660254037844339
 21
-16.5
 72
2
 10
43.4999999999999929
 20
-17.0
 40
1.0
 50
29.9999999999999289
 51
330.0000000000000568
 73
1
 72
1
 10
44.3660254037844339
 20
-17.5
 11
45.1339745962155519
 21
-17.5
 97
0
 92
1
 93
1
 72
2
 10
26.0
 20
-1.9999999999999982
 40
1.0
 50
0.0
 51
360.0
 73
1
 97
0
 92
1
 93
1
 72
2
 10
33.5
 20
-21.9999999999999964
 40
1.0
 50
0.0
 51
360.0
 73
1
 97
0
 92
1
 93
1
 72
2
 10
31.0
 20
-21.9999999999999964
 40
1.0
 50
0.0
 51
360.0
 73
1
 97
0
 92
1
 93
1
 72
2
 10
28.5
 20
-21.9999999999999964
 40
1.0
 50
0.0
 51
360.0
 73
1
 97
0
 92
1
 93
1
 72
2
 10
26.0
 20
-22.0
 40
1.0
 50
0.0
 51
360.0
 73
1
 97
0
 92
1
 93
1
 72
2
 10
23.5
 20
-22.0
 40
1.0
 50
0.0
 51
360.0
 73
1
 97
0
 92
1
 93
1
 72
2
 10
21.0
 20
-22.0
 40
1.0
 50
0.0
 51
360.0
 73
1
 97
0
 92
1
 93
1
 72
2
 10
18.5
 20
-22.0
 40
1.0
 50
0.0
 51
360.0
 73
1
 97
0
 92
1
 93
1
 72
2
 10
16.0
 20
-22.0
 40
1.0
 50
0.0
 51
360.0
 73
1
 97
0
 92
1
 93
1
 72
2
 10
45.9999999999999929
 20
-17.0
 40
0.5
 50
0.0
 51
360.0
 73
1
 97
0
 92
1
 93
1
 72
2
 10
45.9999999999999929
 20
-19.5
 40
0.5
 50
0.0
 51
360.0
 73
1
 97
0
 92
1
 93
1
 72
2
 10
43.5
 20
-21.9999999999999964
 40
0.5
 50
0.0
 51
360.0
 73
1
 97
0
 92
1
 93
1
 72
2
 10
23.5
 20
-1.9999999999999982
 40
1.0
 50
0.0
 51
360.0
 73
1
 97
0
 92
1
 93
1
 72
2
 10
21.0
 20
-1.9999999999999987
 40
1.0
 50
0.0
 51
360.0
 73
1
 97
0
 92
1
 93
1
 72
2
 10
18.5
 20
-1.9999999999999991
 40
1.0
 50
0.0
 51
360.0
 73
1
 97
0
 92
1
 93
1
 72
2
 10
16.0
 20
-1.9999999999999991
 40
1.0
 50
0.0
 51
360.0
 73
1
 97
0
 92
1
 93
1
 72
2
 10
13.5
 20
-1.9999999999999991
 40
1.0
 50
0.0
 51
360.0
 73
1
 97
0
 92
1
 93
1
 72
2
 10
11.0
 20
-1.9999999999999996
 40
1.0
 50
0.0
 51
360.0
 73
1
 97
0
 92
1
 93
1
 72
2
 10
28.5
 20
-21.9999999999999964
 40
0.5
 50
0.0
 51
360.0
 73
1
 97
0
 92
1
 93
1
 72
2
 10
28.5
 20
-1.999999999999998
 40
0.5
 50
0.0
 51
360.0
 73
1
 97
0
 92
1
 93
1
 72
2
 10
26.0
 20
-22.0
 40
0.5
 50
0.0
 51
360.0
 73
1
 97
0
 92
1
 93
1
 72
2
 10
26.0
 20
-1.9999999999999982
 40
0.5
 50
0.0
 51
360.0
 73
1
 97
0
 92
1
 93
1
 72
2
 10
23.5
 20
-22.0
 40
0.5
 50
0.0
 51
360.0
 73
1
 97
0
 92
1
 93
1
 72
2
 10
23.5
 20
-1.9999999999999984
 40
0.5
 50
0.0
 51
360.0
 73
1
 97
0
 92
1
 93
1
 72
2
 10
21.0
 20
-22.0
 40
0.5
 50
0.0
 51
360.0
 73
1
 97
0
 92
1
 93
1
 72
2
 10
21.0
 20
-1.9999999999999987
 40
0.5
 50
0.0
 51
360.0
 73
1
 97
0
 92
1
 93
1
 72
2
 10
41.0
 20
-21.9999999999999964
 40
0.5
 50
0.0
 51
360.0
 73
1
 97
0
 92
1
 93
1
 72
2
 10
38.5
 20
-21.9999999999999964
 40
0.5
 50
0.0
 51
360.0
 73
1
 97
0
 92
1
 93
1
 72
2
 10
36.0
 20
-21.9999999999999964
 40
0.5
 50
0.0
 51
360.0
 73
1
 97
0
 92
1
 93
1
 72
2
 10
33.5
 20
-21.9999999999999964
 40
0.5
 50
0.0
 51
360.0
 73
1
 97
0
 92
1
 93
1
 72
2
 10
33.5
 20
-1.9999999999999976
 40
0.5
 50
0.0
 51
360.0
 73
1
 97
0
 92
1
 93
1
 72
2
 10
31.0
 20
-21.9999999999999964
 40
0.5
 50
0.0
 51
360.0
 73
1
 97
0
 92
1
 93
1
 72
2
 10
31.0
 20
-1.9999999999999978
 40
0.5
 50
0.0
 51
360.0
 73
1
 97
0
 92
1
 93
1
 72
2
 10
43.4999999999999929
 20
-9.5
 40
0.5
 50
0.0
 51
360.0
 73
1
 97
0
 92
1
 93
1
 72
2
 10
43.4999999999999929
 20
-12.0
 40
0.5
 50
0.0
 51
360.0
 73
1
 97
0
 92
1
 93
1
 72
2
 10
43.4999999999999929
 20
-14.5
 40
0.5
 50
0.0
 51
360.0
 73
1
 97
0
 92
1
 93
1
 72
2
 10
43.4999999999999929
 20
-17.0
 40
0.5
 50
0.0
 51
360.0
 73
1
 97
0
 92
1
 93
1
 72
2
 10
43.4999999999999929
 20
-19.5
 40
0.5
 50
0.0
 51
360.0
 73
1
 97
0
 92
1
 93
1
 72
2
 10
43.4999999999999929
 20
-12.0
 40
1.0
 50
0.0
 51
360.0
 73
1
 97
0
 92
1
 93
1
 72
2
 10
13.5
 20
-19.5
 40
1.0
 50
0.0
 51
360.0
 73
1
 97
0
 92
1
 93
1
 72
2
 10
11.0
 20
-19.5
 40
1.0
 50
0.0
 51
360.0
 73
1
 97
0
 92
1
 93
1
 72
2
 10
8.5
 20
-19.5
 40
1.0
 50
0.0
 51
360.0
 73
1
 97
0
 92
1
 93
1
 72
2
 10
8.5
 20
-19.5
 40
0.5
 50
0.0
 51
360.0
 73
1
 97
0
 92
1
 93
1
 72
2
 10
31.0
 20
-4.4999999999999991
 40
1.0
 50
0.0
 51
360.0
 73
1
 97
0
 92
1
 93
1
 72
2
 10
28.5
 20
-4.4999999999999991
 40
1.0
 50
0.0
 51
360.0
 73
1
 97
0
 92
1
 93
1
 72
2
 10
25.9999999999999964
 20
-4.5
 40
1.0
 50
0.0
 51
360.0
 73
1
 97
0
 92
1
 93
1
 72
2
 10
5.9999999999999991
 20
-19.5
 40
1.0
 50
0.0
 51
360.0
 73
1
 97
0
 92
1
 93
1
 72
2
 10
5.9999999999999991
 20
-19.5
 40
0.5
 50
0.0
 51
360.0
 73
1
 97
0
 92
1
 93
1
 72
2
 10
18.5
 20
-19.5
 40
0.5
 50
0.0
 51
360.0
 73
1
 97
0
 92
1
 93
1
 72
2
 10
16.0
 20
-19.5
 40
0.5
 50
0.0
 51
360.0
 73
1
 97
0
 92
1
 93
1
 72
2
 10
13.5
 20
-19.5
 40
0.5
 50
0.0
 51
360.0
 73
1
 97
0
 92
1
 93
1
 72
2
 10
11.0
 20
-19.5
 40
0.5
 50
0.0
 51
360.0
 73
1
 97
0
 92
1
 93
1
 72
2
 10
23.5
 20
-19.4999999999999964
 40
0.5
 50
0.0
 51
360.0
 73
1
 97
0
 92
1
 93
1
 72
2
 10
21.0
 20
-19.5
 40
0.5
 50
0.0
 51
360.0
 73
1
 97
0
 92
1
 93
1
 72
2
 10
25.9999999999999964
 20
-4.5
 40
0.5
 50
0.0
 51
360.0
 73
1
 97
0
 92
1
 93
1
 72
2
 10
33.5
 20
-4.5
 40
0.5
 50
0.0
 51
360.0
 73
1
 97
0
 92
1
 93
1
 72
2
 10
33.5
 20
-7.0
 40
0.5
 50
0.0
 51
360.0
 73
1
 97
0
 92
1
 93
1
 72
2
 10
23.4999999999999964
 20
-4.5
 40
1.0
 50
0.0
 51
360.0
 73
1
 97
0
 92
1
 93
1
 72
2
 10
23.4999999999999964
 20
-4.5
 40
0.5
 50
0.0
 51
360.0
 73
1
 97
0
 92
1
 93
1
 72
2
 10
36.0
 20
-4.4999999999999991
 40
0.5
 50
0.0
 51
360.0
 73
1
 97
0
 92
1
 93
1
 72
2
 10
31.0
 20
-4.4999999999999991
 40
0.5
 50
0.0
 51
360.0
 73
1
 97
0
 92
1
 93
1
 72
2
 10
28.5
 20
-4.4999999999999991
 40
0.5
 50
0.0
 51
360.0
 73
1
 97
0
 92
1
 93
1
 72
2
 10
41.0
 20
-4.4999999999999982
 40
0.5
 50
0.0
 51
360.0
 73
1
 97
0
 92
1
 93
1
 72
2
 10
38.5
 20
-4.4999999999999991
 40
0.5
 50
0.0
 51
360.0
 73
1
 97
0
 75
0
 76
1
 98
0
1001
ACAD
1010
0.0
1020
0.0
1030
0
  0
HATCH
  5
2B4
  8
b
 62
256
370
-1
 48
1.0
  6
BYLAYER
100
AcDbEntity
100
AcDbHatch
 10
0.0
 20
0.0
 30
0.0
210
0.0
220
0.0
230
1.0
  2
SOLID
 70
1
 71
0
 91
94
 92
1
 93
12
 72
1
 10
94.0
 20
-5.3660254037844384
 11
94.0
 21
-6.1339745962155616
 72
2
 10
93.5
 20
-7.0
 40
1.0
 50
300.0
 51
59.9999999999999858
 73
0
 72
1
 10
94.0
 20
-7.8660254037844384
 11
94.0
 21
-12.9999999999999982
 72
1
 10
94.0
 20
-12.9999999999999964
 11
69.5
 21
-12.9999999999999982
 72
1
 10
69.5
 20
-12.9999999999999982
 11
69.5
 21
-10.9999999999999982
 72
1
 10
69.5
 20
-10.9999999999999982
 11
70.5
 21
-10.9999999999999982
 72
1
 10
70.5
 20
-10.9999999999999982
 11
70.5
 21
-11.9999999999999982
 72
1
 10
70.5
 20
-11.9999999999999982
 11
93.0
 21
-11.9999999999999964
 72
1
 10
93.0
 20
-11.9999999999999982
 11
93.0
 21
-7.8660254037844375
 72
2
 10
93.5
 20
-7.0
 40
1.0
 50
120.0000000000000711
 51
240.0
 73
0
 72
1
 10
93.0
 20
-6.1339745962155616
 11
93.0
 21
-5.3660254037844384
 72
2
 10
93.5
 20
-4.5
 40
1.0
 50
120.0000000000000142
 51
59.9999999999999858
 73
0
 97
0
 92
1
 93
22
 72
1
 10
95.5
 20
-17.0
 11
81.5
 21
-17.0
 72
1
 10
81.5
 20
-17.0
 11
81.5
 21
-18.633974596215559
 72
2
 10
81.0
 20
-19.5
 40
1.0
 50
299.9999999999997726
 51
239.9999999999999432
 73
0
 72
1
 10
80.5
 20
-18.6339745962155625
 11
80.5
 21
-15.9999999999999982
 72
1
 10
80.5
 20
-15.9999999999999982
 11
98.0
 21
-15.9999999999999982
 72
1
 10
98.0
 20
-15.9999999999999982
 11
98.0
 21
-5.3660254037844375
 72
2
 10
98.5
 20
-4.4999999999999991
 40
1.0
 50
120.0000000000001705
 51
240.0000000000000284
 73
0
 72
1
 10
98.0
 20
-3.6339745962155607
 11
98.0
 21
-1.4999999999999998
 72
1
 10
98.0
 20
-1.4999999999999998
 11
106.5
 21
-1.4999999999999998
 72
1
 10
106.5
 20
-1.4999999999999998
 11
106.5
 21
-14.9999999999999982
 72
1
 10
106.5
 20
-14.9999999999999982
 11
104.3660254037844339
 21
-14.9999999999999982
 72
2
 10
103.5
 20
-14.5
 40
1.0
 50
29.999999999999865
 51
329.9999999999996589
 73
0
 72
1
 10
104.3660254037844197
 20
-13.9999999999999964
 11
105.5
 21
-14.0
 72
1
 10
105.5
 20
-14.0
 11
105.5
 21
-2.5
 72
1
 10
105.5
 20
-2.5
 11
99.0
 21
-2.5
 72
1
 10
99.0
 20
-2.5
 11
99.0
 21
-3.6339745962155603
 72
2
 10
98.5
 20
-4.4999999999999991
 40
1.0
 50
300.0
 51
59.9999999999999858
 73
0
 72
1
 10
99.0
 20
-5.3660254037844375
 11
99.0
 21
-17.0
 72
1
 10
99.0
 20
-17.0
 11
96.5
 21
-17.0
 72
1
 10
96.5
 20
-17.0
 11
96.5
 21
-21.1339745962155554
 72
2
 10
96.0
 20
-21.9999999999999964
 40
1.0
 50
299.9999999999999432
 51
239.9999999999999432
 73
0
 72
1
 10
95.5
 20
-21.133974596215559
 11
95.5
 21
-17.0
 97
0
 92
1
 93
17
 72
1
 10
79.0
 20
-14.9999999999999964
 11
79.0
 21
-18.6339745962155625
 72
2
 10
78.5
 20
-19.5
 40
1.0
 50
300.0000000000001137
 51
239.9999999999999432
 73
0
 72
1
 10
78.0
 20
-18.6339745962155625
 11
78.0
 21
-15.4999999999999982
 72
1
 10
78.0
 20
-15.4999999999999982
 11
78.0
 21
-14.9999999999999982
 72
1
 10
78.0
 20
-14.9999999999999982
 11
68.0
 21
-14.9999999999999964
 72
1
 10
68.0
 20
-14.9999999999999982
 11
68.0
 21
-2.8660254037844379
 72
2
 10
68.5
 20
-2.0
 40
1.0
 50
120.0000000000000711
 51
60.0000000000000355
 73
0
 72
1
 10
69.0
 20
-2.8660254037843895
 11
69.0
 21
-13.9999999999999982
 72
1
 10
69.0
 20
-13.9999999999999982
 11
95.5
 21
-13.9999999999999982
 72
1
 10
95.5
 20
-13.9999999999999982
 11
95.5
 21
-7.8660254037844402
 72
2
 10
96.0
 20
-6.9999999999999991
 40
1.0
 50
120.0000000000000711
 51
240.0
 73
0
 72
1
 10
95.5
 20
-6.1339745962155607
 11
95.5
 21
-5.3660254037844375
 72
2
 10
96.0
 20
-4.4999999999999991
 40
1.0
 50
120.0000000000000142
 51
59.9999999999999858
 73
0
 72
1
 10
96.5
 20
-5.3660254037844375
 11
96.5
 21
-6.1339745962155607
 72
2
 10
96.0
 20
-6.9999999999999991
 40
1.0
 50
300.0
 51
59.9999999999999858
 73
0
 72
1
 10
96.5
 20
-7.8660254037844366
 11
96.5
 21
-14.9999999999999982
 72
1
 10
96.5
 20
-14.9999999999999982
 11
79.0
 21
-14.9999999999999982
 97
0
 92
1
 93
12
 72
2
 10
76.0
 20
-19.5
 40
1.0
 50
120.0000000000001137
 51
59.9999999999999645
 73
1
 72
1
 10
76.5
 20
-18.6339745962155625
 11
76.5
 21
-15.9999999999999982
 72
1
 10
76.5
 20
-15.9999999999999982
 11
66.5
 21
-15.9999999999999982
 72
1
 10
66.5
 20
-15.9999999999999982
 11
66.5
 21
-12.9999999999999964
 72
1
 10
66.5
 20
-12.9999999999999982
 11
67.4000000000000057
 21
-12.9999999999999982
 72
1
 10
67.4000000000000057
 20
-12.9999999999999982
 11
67.4000000000000057
 21
-10.9999999999999982
 72
1
 10
67.4000000000000057
 20
-10.9999999999999982
 11
66.5
 21
-10.9999999999999982
 72
1
 10
66.5
 20
-10.9999999999999982
 11
66.5
 21
-2.8660254037844379
 72
2
 10
66.0
 20
-2.0
 40
1.0
 50
300.0
 51
239.9999999999999432
 73
1
 72
1
 10
65.5
 20
-2.8660254037844286
 11
65.5
 21
-17.0
 72
1
 10
65.5
 20
-17.0
 11
75.5
 21
-17.0
 72
1
 10
75.5
 20
-17.0
 11
75.5
 21
-18.6339745962155625
 97
0
 92
1
 93
6
 72
1
 10
94.0
 20
-18.0
 11
94.0
 21
-19.0
 72
1
 10
94.0
 20
-19.0
 11
84.3660254037844197
 21
-19.0
 72
2
 10
83.5
 20
-19.4999999999999964
 40
1.0
 50
29.9999999999999538
 51
329.9999999999998295
 73
1
 72
1
 10
84.3660254037844339
 20
-20.0
 11
95.0
 21
-20.0
 72
1
 10
95.0
 20
-20.0
 11
95.0
 21
-18.0
 72
1
 10
95.0
 20
-18.0
 11
94.0
 21
-18.0
 97
0
 92
1
 93
1
 72
2
 10
66.0
 20
-22.0
 40
1.0
 50
0.0
 51
360.0
 73
1
 97
0
 92
1
 93
1
 72
2
 10
68.5
 20
-22.0
 40
0.5
 50
0.0
 51
360.0
 73
1
 97
0
 92
1
 93
1
 72
2
 10
68.5
 20
-1.9999999999999998
 40
0.5
 50
0.0
 51
360.0
 73
1
 97
0
 92
1
 93
1
 72
2
 10
66.0
 20
-22.0
 40
0.5
 50
0.0
 51
360.0
 73
1
 97
0
 92
1
 93
1
 72
2
 10
66.0
 20
-2.0
 40
0.5
 50
0.0
 51
360.0
 73
1
 97
0
 92
1
 93
1
 72
2
 10
78.5
 20
-22.0
 40
0.5
 50
0.0
 51
360.0
 73
1
 97
0
 92
1
 93
1
 72
2
 10
78.5
 20
-1.9999999999999989
 40
0.5
 50
0.0
 51
360.0
 73
1
 97
0
 92
1
 93
1
 72
2
 10
76.0
 20
-22.0
 40
0.5
 50
0.0
 51
360.0
 73
1
 97
0
 92
1
 93
1
 72
2
 10
76.0
 20
-1.9999999999999991
 40
0.5
 50
0.0
 51
360.0
 73
1
 97
0
 92
1
 93
1
 72
2
 10
73.5
 20
-22.0
 40
0.5
 50
0.0
 51
360.0
 73
1
 97
0
 92
1
 93
1
 72
2
 10
73.5
 20
-1.9999999999999993
 40
0.5
 50
0.0
 51
360.0
 73
1
 97
0
 92
1
 93
1
 72
2
 10
71.0
 20
-22.0
 40
0.5
 50
0.0
 51
360.0
 73
1
 97
0
 92
1
 93
1
 72
2
 10
71.0
 20
-1.9999999999999996
 40
0.5
 50
0.0
 51
360.0
 73
1
 97
0
 92
1
 93
15
 72
1
 10
98.0
 20
-19.0
 11
100.5
 21
-19.0
 72
1
 10
100.5
 20
-19.0
 11
100.5
 21
-5.366025403784433
 72
2
 10
101.0
 20
-4.4999999999999982
 40
1.0
 50
120.000000000000469
 51
60.0000000000004334
 73
0
 72
1
 10
101.5
 20
-5.3660254037844375
 11
101.5
 21
-9.0
 72
1
 10
101.5
 20
-9.0
 11
102.6339745962155519
 21
-9.0
 72
2
 10
103.5
 20
-9.5
 40
1.0
 50
209.9999999999999432
 51
150.0000000000000853
 73
0
 72
1
 10
102.6339745962155519
 20
-10.0
 11
101.5
 21
-10.0
 72
1
 10
101.5
 20
-10.0
 11
101.5
 21
-20.0
 72
1
 10
101.5
 20
-20.0
 11
101.5
 21
-21.133974596215559
 72
2
 10
101.0
 20
-21.9999999999999964
 40
1.0
 50
300.0
 51
246.4218215217978241
 73
0
 72
1
 10
100.5999999999999943
 20
-21.0834848610088308
 11
100.5999999999999943
 21
-20.0
 72
1
 10
100.5999999999999943
 20
-19.9999999999999964
 11
97.0
 21
-20.0
 72
1
 10
97.0
 20
-20.0
 11
97.0
 21
-18.0
 72
1
 10
97.0
 20
-18.0
 11
98.0
 21
-18.0
 72
1
 10
98.0
 20
-18.0
 11
98.0
 21
-19.0
 97
0
 92
1
 93
1
 72
2
 10
103.5
 20
-21.9999999999999964
 40
1.0
 50
0.0
 51
360.0
 73
1
 97
0
 92
1
 93
1
 72
2
 10
98.5
 20
-21.9999999999999964
 40
1.0
 50
0.0
 51
360.0
 73
1
 97
0
 92
1
 93
1
 72
2
 10
96.0
 20
-6.9999999999999991
 40
0.5
 50
0.0
 51
360.0
 73
1
 97
0
 92
1
 93
1
 72
2
 10
73.5
 20
-22.0
 40
1.0
 50
0.0
 51
360.0
 73
1
 97
0
 92
1
 93
1
 72
2
 10
71.0
 20
-22.0
 40
1.0
 50
0.0
 51
360.0
 73
1
 97
0
 92
1
 93
1
 72
2
 10
68.5
 20
-22.0
 40
1.0
 50
0.0
 51
360.0
 73
1
 97
0
 92
1
 93
1
 72
2
 10
93.5
 20
-1.9999999999999973
 40
1.0
 50
0.0
 51
360.0
 73
1
 97
0
 92
1
 93
4
 72
2
 10
106.0
 20
-19.5
 40
1.0
 50
209.9999999999999432
 51
150.0000000000000853
 73
1
 72
1
 10
105.1339745962155519
 20
-19.0
 11
104.3660254037844339
 21
-19.0
 72
2
 10
103.5
 20
-19.5
 40
1.0
 50
29.9999999999999289
 51
330.0000000000000568
 73
1
 72
1
 10
104.3660254037844339
 20
-20.0
 11
105.1339745962155519
 21
-20.0
 97
0
 92
1
 93
1
 72
2
 10
91.0
 20
-1.9999999999999978
 40
1.0
 50
0.0
 51
360.0
 73
1
 97
0
 92
1
 93
1
 72
2
 10
88.5
 20
-1.9999999999999982
 40
1.0
 50
0.0
 51
360.0
 73
1
 97
0
 92
1
 93
4
 72
2
 10
106.0
 20
-17.0
 40
1.0
 50
209.9999999999999432
 51
150.0000000000000853
 73
1
 72
1
 10
105.1339745962155519
 20
-16.5
 11
104.3660254037844339
 21
-16.5
 72
2
 10
103.5
 20
-17.0
 40
1.0
 50
29.9999999999999289
 51
330.0000000000000568
 73
1
 72
1
 10
104.3660254037844339
 20
-17.5
 11
105.1339745962155519
 21
-17.5
 97
0
 92
1
 93
1
 72
2
 10
86.0
 20
-1.9999999999999982
 40
1.0
 50
0.0
 51
360.0
 73
1
 97
0
 92
1
 93
1
 72
2
 10
93.5
 20
-21.9999999999999964
 40
1.0
 50
0.0
 51
360.0
 73
1
 97
0
 92
1
 93
1
 72
2
 10
91.0
 20
-21.9999999999999964
 40
1.0
 50
0.0
 51
360.0
 73
1
 97
0
 92
1
 93
1
 72
2
 10
88.5
 20
-21.9999999999999964
 40
1.0
 50
0.0
 51
360.0
 73
1
 97
0
 92
1
 93
1
 72
2
 10
86.0
 20
-22.0
 40
1.0
 50
0.0
 51
360.0
 73
1
 97
0
 92
1
 93
1
 72
2
 10
83.5
 20
-22.0
 40
1.0
 50
0.0
 51
360.0
 73
1
 97
0
 92
1
 93
1
 72
2
 10
81.0
 20
-22.0
 40
1.0
 50
0.0
 51
360.0
 73
1
 97
0
 92
1
 93
1
 72
2
 10
78.5
 20
-22.0
 40
1.0
 50
0.0
 51
360.0
 73
1
 97
0
 92
1
 93
1
 72
2
 10
76.0
 20
-22.0
 40
1.0
 50
0.0
 51
360.0
 73
1
 97
0
 92
1
 93
1
 72
2
 10
106.0
 20
-17.0
 40
0.5
 50
0.0
 51
360.0
 73
1
 97
0
 92
1
 93
1
 72
2
 10
106.0
 20
-19.5
 40
0.5
 50
0.0
 51
360.0
 73
1
 97
0
 92
1
 93
1
 72
2
 10
103.5
 20
-21.9999999999999964
 40
0.5
 50
0.0
 51
360.0
 73
1
 97
0
 92
1
 93
1
 72
2
 10
83.5
 20
-1.9999999999999982
 40
1.0
 50
0.0
 51
360.0
 73
1
 97
0
 92
1
 93
1
 72
2
 10
81.0
 20
-1.9999999999999987
 40
1.0
 50
0.0
 51
360.0
 73
1
 97
0
 92
1
 93
1
 72
2
 10
78.5
 20
-1.9999999999999991
 40
1.0
 50
0.0
 51
360.0
 73
1
 97
0
 92
1
 93
1
 72
2
 10
76.0
 20
-1.9999999999999991
 40
1.0
 50
0.0
 51
360.0
 73
1
 97
0
 92
1
 93
1
 72
2
 10
73.5
 20
-1.9999999999999991
 40
1.0
 50
0.0
 51
360.0
 73
1
 97
0
 92
1
 93
1
 72
2
 10
71.0
 20
-1.9999999999999996
 40
1.0
 50
0.0
 51
360.0
 73
1
 97
0
 92
1
 93
1
 72
2
 10
88.5
 20
-21.9999999999999964
 40
0.5
 50
0.0
 51
360.0
 73
1
 97
0
 92
1
 93
1
 72
2
 10
88.5
 20
-1.999999999999998
 40
0.5
 50
0.0
 51
360.0
 73
1
 97
0
 92
1
 93
1
 72
2
 10
86.0
 20
-22.0
 40
0.5
 50
0.0
 51
360.0
 73
1
 97
0
 92
1
 93
1
 72
2
 10
86.0
 20
-1.9999999999999982
 40
0.5
 50
0.0
 51
360.0
 73
1
 97
0
 92
1
 93
1
 72
2
 10
83.5
 20
-22.0
 40
0.5
 50
0.0
 51
360.0
 73
1
 97
0
 92
1
 93
1
 72
2
 10
83.5
 20
-1.9999999999999984
 40
0.5
 50
0.0
 51
360.0
 73
1
 97
0
 92
1
 93
1
 72
2
 10
81.0
 20
-22.0
 40
0.5
 50
0.0
 51
360.0
 73
1
 97
0
 92
1
 93
1
 72
2
 10
81.0
 20
-1.9999999999999987
 40
0.5
 50
0.0
 51
360.0
 73
1
 97
0
 92
1
 93
1
 72
2
 10
101.0
 20
-21.9999999999999964
 40
0.5
 50
0.0
 51
360.0
 73
1
 97
0
 92
1
 93
1
 72
2
 10
98.5
 20
-21.9999999999999964
 40
0.5
 50
0.0
 51
360.0
 73
1
 97
0
 92
1
 93
1
 72
2
 10
96.0
 20
-21.9999999999999964
 40
0.5
 50
0.0
 51
360.0
 73
1
 97
0
 92
1
 93
1
 72
2
 10
93.5
 20
-21.9999999999999964
 40
0.5
 50
0.0
 51
360.0
 73
1
 97
0
 92
1
 93
1
 72
2
 10
93.5
 20
-1.9999999999999976
 40
0.5
 50
0.0
 51
360.0
 73
1
 97
0
 92
1
 93
1
 72
2
 10
91.0
 20
-21.9999999999999964
 40
0.5
 50
0.0
 51
360.0
 73
1
 97
0
 92
1
 93
1
 72
2
 10
91.0
 20
-1.9999999999999978
 40
0.5
 50
0.0
 51
360.0
 73
1
 97
0
 92
1
 93
1
 72
2
 10
103.5
 20
-9.5
 40
0.5
 50
0.0
 51
360.0
 73
1
 97
0
 92
1
 93
1
 72
2
 10
103.5
 20
-12.0
 40
0.5
 50
0.0
 51
360.0
 73
1
 97
0
 92
1
 93
1
 72
2
 10
103.5
 20
-14.5
 40
0.5
 50
0.0
 51
360.0
 73
1
 97
0
 92
1
 93
1
 72
2
 10
103.5
 20
-17.0
 40
0.5
 50
0.0
 51
360.0
 73
1
 97
0
 92
1
 93
1
 72
2
 10
103.5
 20
-19.5
 40
0.5
 50
0.0
 51
360.0
 73
1
 97
0
 92
1
 93
1
 72
2
 10
103.5
 20
-12.0
 40
1.0
 50
0.0
 51
360.0
 73
1
 97
0
 92
1
 93
1
 72
2
 10
73.5
 20
-19.5
 40
1.0
 50
0.0
 51
360.0
 73
1
 97
0
 92
1
 93
1
 72
2
 10
71.0
 20
-19.5
 40
1.0
 50
0.0
 51
360.0
 73
1
 97
0
 92
1
 93
1
 72
2
 10
68.5
 20
-19.5
 40
1.0
 50
0.0
 51
360.0
 73
1
 97
0
 92
1
 93
1
 72
2
 10
68.5
 20
-19.5
 40
0.5
 50
0.0
 51
360.0
 73
1
 97
0
 92
1
 93
1
 72
2
 10
91.0
 20
-4.4999999999999991
 40
1.0
 50
0.0
 51
360.0
 73
1
 97
0
 92
1
 93
1
 72
2
 10
88.5
 20
-4.4999999999999991
 40
1.0
 50
0.0
 51
360.0
 73
1
 97
0
 92
1
 93
1
 72
2
 10
86.0
 20
-4.5
 40
1.0
 50
0.0
 51
360.0
 73
1
 97
0
 92
1
 93
1
 72
2
 10
66.0
 20
-19.5
 40
1.0
 50
0.0
 51
360.0
 73
1
 97
0
 92
1
 93
1
 72
2
 10
66.0
 20
-19.5
 40
0.5
 50
0.0
 51
360.0
 73
1
 97
0
 92
1
 93
1
 72
2
 10
78.5
 20
-19.5
 40
0.5
 50
0.0
 51
360.0
 73
1
 97
0
 92
1
 93
1
 72
2
 10
76.0
 20
-19.5
 40
0.5
 50
0.0
 51
360.0
 73
1
 97
0
 92
1
 93
1
 72
2
 10
73.5
 20
-19.5
 40
0.5
 50
0.0
 51
360.0
 73
1
 97
0
 92
1
 93
1
 72
2
 10
71.0
 20
-19.5
 40
0.5
 50
0.0
 51
360.0
 73
1
 97
0
 92
1
 93
1
 72
2
 10
83.5
 20
-19.4999999999999964
 40
0.5
 50
0.0
 51
360.0
 73
1
 97
0
 92
1
 93
1
 72
2
 10
81.0
 20
-19.5
 40
0.5
 50
0.0
 51
360.0
 73
1
 97
0
 92
1
 93
1
 72
2
 10
86.0
 20
-4.5
 40
0.5
 50
0.0
 51
360.0
 73
1
 97
0
 92
1
 93
1
 72
2
 10
93.5
 20
-4.5
 40
0.5
 50
0.0
 51
360.0
 73
1
 97
0
 92
1
 93
1
 72
2
 10
93.5
 20
-7.0
 40
0.5
 50
0.0
 51
360.0
 73
1
 97
0
 92
1
 93
1
 72
2
 10
83.5
 20
-4.5
 40
1.0
 50
0.0
 51
360.0
 73
1
 97
0
 92
1
 93
1
 72
2
 10
83.5
 20
-4.5
 40
0.5
 50
0.0
 51
360.0
 73
1
 97
0
 92
1
 93
1
 72
2
 10
96.0
 20
-4.4999999999999991
 40
0.5
 50
0.0
 51
360.0
 73
1
 97
0
 92
1
 93
1
 72
2
 10
91.0
 20
-4.4999999999999991
 40
0.5
 50
0.0
 51
360.0
 73
1
 97
0
 92
1
 93
1
 72
2
 10
88.5
 20
-4.4999999999999991
 40
0.5
 50
0.0
 51
360.0
 73
1
 97
0
 92
1
 93
1
 72
2
 10
101.0
 20
-4.4999999999999982
 40
0.5
 50
0.0
 51
360.0
 73
1
 97
0
 92
1
 93
1
 72
2
 10
98.5
 20
-4.4999999999999991
 40
0.5
 50
0.0
 51
360.0
 73
1
 97
0
 75
0
 76
1
 98
0
1001
ACAD
1010
0.0
1020
0.0
1030
0
  0
HATCH
  5
2B5
  8
b
 62
256
370
-1
 48
1.0
  6
BYLAYER
100
AcDbEntity
100
AcDbHatch
 10
0.0
 20
0.0
 30
0.0
210
0.0
220
0.0
230
1.0
  2
SOLID
 70
1
 71
0
 91
94
 92
1
 93
12
 72
1
 10
154.0
 20
-5.3660254037844384
 11
154.0
 21
-6.1339745962155616
 72
2
 10
153.5
 20
-7.0
 40
1.0
 50
300.0
 51
59.9999999999999858
 73
0
 72
1
 10
154.0
 20
-7.8660254037844384
 11
154.0
 21
-12.9999999999999982
 72
1
 10
154.0
 20
-12.9999999999999964
 11
129.5
 21
-12.9999999999999982
 72
1
 10
129.5
 20
-12.9999999999999982
 11
129.5
 21
-10.9999999999999982
 72
1
 10
129.5
 20
-10.9999999999999982
 11
130.5
 21
-10.9999999999999982
 72
1
 10
130.5
 20
-10.9999999999999982
 11
130.5
 21
-11.9999999999999982
 72
1
 10
130.5
 20
-11.9999999999999982
 11
153.0
 21
-11.9999999999999964
 72
1
 10
153.0
 20
-11.9999999999999982
 11
153.0
 21
-7.8660254037844375
 72
2
 10
153.5
 20
-7.0
 40
1.0
 50
120.0000000000000711
 51
240.0
 73
0
 72
1
 10
153.0
 20
-6.1339745962155616
 11
153.0
 21
-5.3660254037844384
 72
2
 10
153.5
 20
-4.5
 40
1.0
 50
120.0000000000000142
 51
59.9999999999999858
 73
0
 97
0
 92
1
 93
22
 72
1
 10
155.5
 20
-17.0
 11
141.5
 21
-17.0
 72
1
 10
141.5
 20
-17.0
 11
141.5
 21
-18.633974596215559
 72
2
 10
141.0
 20
-19.5
 40
1.0
 50
299.9999999999997726
 51
239.9999999999999432
 73
0
 72
1
 10
140.5
 20
-18.6339745962155625
 11
140.5
 21
-15.9999999999999982
 72
1
 10
140.5
 20
-15.9999999999999982
 11
158.0
 21
-15.9999999999999982
 72
1
 10
158.0
 20
-15.9999999999999982
 11
158.0
 21
-5.3660254037844375
 72
2
 10
158.5
 20
-4.4999999999999991
 40
1.0
 50
120.0000000000001705
 51
240.0000000000000284
 73
0
 72
1
 10
158.0
 20
-3.6339745962155607
 11
158.0
 21
-1.4999999999999998
 72
1
 10
158.0
 20
-1.4999999999999998
 11
166.5
 21
-1.4999999999999998
 72
1
 10
166.5
 20
-1.4999999999999998
 11
166.5
 21
-14.9999999999999982
 72
1
 10
166.5
 20
-14.9999999999999982
 11
164.3660254037844197
 21
-14.9999999999999982
 72
2
 10
163.5
 20
-14.5
 40
1.0
 50
29.999999999999865
 51
329.9999999999996589
 73
0
 72
1
 10
164.3660254037844197
 20
-13.9999999999999964
 11
165.5
 21
-14.0
 72
1
 10
165.5
 20
-14.0
 11
165.5
 21
-2.5
 72
1
 10
165.5
 20
-2.5
 11
159.0
 21
-2.5
 72
1
 10
159.0
 20
-2.5
 11
159.0
 21
-3.6339745962155603
 72
2
 10
158.5
 20
-4.4999999999999991
 40
1.0
 50
300.0
 51
59.9999999999999858
 73
0
 72
1
 10
159.0
 20
-5.3660254037844375
 11
159.0
 21
-17.0
 72
1
 10
159.0
 20
-17.0
 11
156.5
 21
-17.0
 72
1
 10
156.5
 20
-17.0
 11
156.5
 21
-21.1339745962155554
 72
2
 10
156.0
 20
-21.9999999999999964
 40
1.0
 50
299.9999999999999432
 51
239.9999999999999432
 73
0
 72
1
 10
155.5
 20
-21.133974596215559
 11
155.5
 21
-17.0
 97
0
 92
1
 93
17
 72
1
 10
139.0
 20
-14.9999999999999964
 11
139.0
 21
-18.6339745962155625
 72
2
 10
138.5
 20
-19.5
 40
1.0
 50
300.0000000000001137
 51
239.9999999999999432
 73
0
 72
1
 10
138.0
 20
-18.6339745962155625
 11
138.0
 21
-15.4999999999999982
 72
1
 10
138.0
 20
-15.4999999999999982
 11
138.0
 21
-14.9999999999999982
 72
1
 10
138.0
 20
-14.9999999999999982
 11
128.0
 21
-14.9999999999999964
 72
1
 10
128.0
 20
-14.9999999999999982
 11
128.0
 21
-2.8660254037844379
 72
2
 10
128.5
 20
-2.0
 40
1.0
 50
120.0000000000000711
 51
60.0000000000000355
 73
0
 72
1
 10
129.0
 20
-2.8660254037843895
 11
129.0
 21
-13.9999999999999982
 72
1
 10
129.0
 20
-13.9999999999999982
 11
155.5
 21
-13.9999999999999982
 72
1
 10
155.5
 20
-13.9999999999999982
 11
155.5
 21
-7.8660254037844402
 72
2
 10
156.0
 20
-6.9999999999999991
 40
1.0
 50
120.0000000000000711
 51
240.0
 73
0
 72
1
 10
155.5
 20
-6.1339745962155607
 11
155.5
 21
-5.3660254037844375
 72
2
 10
156.0
 20
-4.4999999999999991
 40
1.0
 50
120.0000000000000142
 51
59.9999999999999858
 73
0
 72
1
 10
156.5
 20
-5.3660254037844375
 11
156.5
 21
-6.1339745962155607
 72
2
 10
156.0
 20
-6.9999999999999991
 40
1.0
 50
300.0
 51
59.9999999999999858
 73
0
 72
1
 10
156.5
 20
-7.8660254037844366
 11
156.5
 21
-14.9999999999999982
 72
1
 10
156.5
 20
-14.9999999999999982
 11
139.0
 21
-14.9999999999999982
 97
0
 92
1
 93
12
 72
2
 10
136.0
 20
-19.5
 40
1.0
 50
120.0000000000001137
 51
59.9999999999999645
 73
1
 72
1
 10
136.5
 20
-18.6339745962155625
 11
136.5
 21
-15.9999999999999982
 72
1
 10
136.5
 20
-15.9999999999999982
 11
126.5
 21
-15.9999999999999982
 72
1
 10
126.5
 20
-15.9999999999999982
 11
126.5
 21
-12.9999999999999964
 72
1
 10
126.5
 20
-12.9999999999999982
 11
127.4000000000000057
 21
-12.9999999999999982
 72
1
 10
127.4000000000000057
 20
-12.9999999999999982
 11
127.4000000000000057
 21
-10.9999999999999982
 72
1
 10
127.4000000000000057
 20
-10.9999999999999982
 11
126.5
 21
-10.9999999999999982
 72
1
 10
126.5
 20
-10.9999999999999982
 11
126.5
 21
-2.8660254037844379
 72
2
 10
126.0
 20
-2.0
 40
1.0
 50
300.0
 51
239.9999999999999432
 73
1
 72
1
 10
125.5
 20
-2.8660254037844286
 11
125.5
 21
-17.0
 72
1
 10
125.5
 20
-17.0
 11
135.5
 21
-17.0
 72
1
 10
135.5
 20
-17.0
 11
135.5
 21
-18.6339745962155625
 97
0
 92
1
 93
6
 72
1
 10
154.0
 20
-18.0
 11
154.0
 21
-19.0
 72
1
 10
154.0
 20
-19.0
 11
144.3660254037844197
 21
-19.0
 72
2
 10
143.5
 20
-19.4999999999999964
 40
1.0
 50
29.9999999999999538
 51
329.9999999999998295
 73
1
 72
1
 10
144.3660254037844481
 20
-20.0
 11
155.0
 21
-20.0
 72
1
 10
155.0
 20
-20.0
 11
155.0
 21
-18.0
 72
1
 10
155.0
 20
-18.0
 11
154.0
 21
-18.0
 97
0
 92
1
 93
1
 72
2
 10
126.0
 20
-22.0
 40
1.0
 50
0.0
 51
360.0
 73
1
 97
0
 92
1
 93
1
 72
2
 10
128.5
 20
-22.0
 40
0.5
 50
0.0
 51
360.0
 73
1
 97
0
 92
1
 93
1
 72
2
 10
128.5
 20
-1.9999999999999998
 40
0.5
 50
0.0
 51
360.0
 73
1
 97
0
 92
1
 93
1
 72
2
 10
126.0
 20
-22.0
 40
0.5
 50
0.0
 51
360.0
 73
1
 97
0
 92
1
 93
1
 72
2
 10
126.0
 20
-2.0
 40
0.5
 50
0.0
 51
360.0
 73
1
 97
0
 92
1
 93
1
 72
2
 10
138.5
 20
-22.0
 40
0.5
 50
0.0
 51
360.0
 73
1
 97
0
 92
1
 93
1
 72
2
 10
138.5
 20
-1.9999999999999989
 40
0.5
 50
0.0
 51
360.0
 73
1
 97
0
 92
1
 93
1
 72
2
 10
136.0
 20
-22.0
 40
0.5
 50
0.0
 51
360.0
 73
1
 97
0
 92
1
 93
1
 72
2
 10
136.0
 20
-1.9999999999999991
 40
0.5
 50
0.0
 51
360.0
 73
1
 97
0
 92
1
 93
1
 72
2
 10
133.5
 20
-22.0
 40
0.5
 50
0.0
 51
360.0
 73
1
 97
0
 92
1
 93
1
 72
2
 10
133.5
 20
-1.9999999999999993
 40
0.5
 50
0.0
 51
360.0
 73
1
 97
0
 92
1
 93
1
 72
2
 10
131.0
 20
-22.0
 40
0.5
 50
0.0
 51
360.0
 73
1
 97
0
 92
1
 93
1
 72
2
 10
131.0
 20
-1.9999999999999996
 40
0.5
 50
0.0
 51
360.0
 73
1
 97
0
 92
1
 93
15
 72
1
 10
158.0
 20
-19.0
 11
160.5
 21
-19.0
 72
1
 10
160.5
 20
-19.0
 11
160.5
 21
-5.366025403784433
 72
2
 10
161.0
 20
-4.4999999999999982
 40
1.0
 50
120.000000000000469
 51
60.0000000000004334
 73
0
 72
1
 10
161.5
 20
-5.3660254037844375
 11
161.5
 21
-9.0
 72
1
 10
161.5
 20
-9.0
 11
162.6339745962155519
 21
-9.0
 72
2
 10
163.5
 20
-9.5
 40
1.0
 50
209.9999999999999432
 51
150.0000000000000853
 73
0
 72
1
 10
162.6339745962155519
 20
-10.0
 11
161.5
 21
-10.0
 72
1
 10
161.5
 20
-10.0
 11
161.5
 21
-20.0
 72
1
 10
161.5
 20
-20.0
 11
161.5
 21
-21.133974596215559
 72
2
 10
161.0
 20
-21.9999999999999964
 40
1.0
 50
300.0
 51
246.4218215217978241
 73
0
 72
1
 10
160.5999999999999943
 20
-21.0834848610088308
 11
160.5999999999999943
 21
-20.0
 72
1
 10
160.5999999999999943
 20
-19.9999999999999964
 11
157.0
 21
-20.0
 72
1
 10
157.0
 20
-20.0
 11
157.0
 21
-18.0
 72
1
 10
157.0
 20
-18.0
 11
158.0
 21
-18.0
 72
1
 10
158.0
 20
-18.0
 11
158.0
 21
-19.0
 97
0
 92
1
 93
1
 72
2
 10
163.5
 20
-21.9999999999999964
 40
1.0
 50
0.0
 51
360.0
 73
1
 97
0
 92
1
 93
1
 72
2
 10
158.5
 20
-21.9999999999999964
 40
1.0
 50
0.0
 51
360.0
 73
1
 97
0
 92
1
 93
1
 72
2
 10
156.0
 20
-6.9999999999999991
 40
0.5
 50
0.0
 51
360.0
 73
1
 97
0
 92
1
 93
1
 72
2
 10
133.5
 20
-22.0
 40
1.0
 50
0.0
 51
360.0
 73
1
 97
0
 92
1
 93
1
 72
2
 10
131.0
 20
-22.0
 40
1.0
 50
0.0
 51
360.0
 73
1
 97
0
 92
1
 93
1
 72
2
 10
128.5
 20
-22.0
 40
1.0
 50
0.0
 51
360.0
 73
1
 97
0
 92
1
 93
1
 72
2
 10
153.5
 20
-1.9999999999999973
 40
1.0
 50
0.0
 51
360.0
 73
1
 97
0
 92
1
 93
4
 72
2
 10
166.0
 20
-19.5
 40
1.0
 50
209.9999999999999432
 51
150.0000000000000853
 73
1
 72
1
 10
165.1339745962155519
 20
-19.0
 11
164.3660254037844197
 21
-19.0
 72
2
 10
163.5
 20
-19.5
 40
1.0
 50
29.9999999999999289
 51
330.0000000000000568
 73
1
 72
1
 10
164.3660254037844197
 20
-20.0
 11
165.1339745962155519
 21
-20.0
 97
0
 92
1
 93
1
 72
2
 10
151.0
 20
-1.9999999999999978
 40
1.0
 50
0.0
 51
360.0
 73
1
 97
0
 92
1
 93
1
 72
2
 10
148.5
 20
-1.9999999999999982
 40
1.0
 50
0.0
 51
360.0
 73
1
 97
0
 92
1
 93
4
 72
2
 10
166.0
 20
-17.0
 40
1.0
 50
209.9999999999999432
 51
150.0000000000000853
 73
1
 72
1
 10
165.1339745962155519
 20
-16.5
 11
164.3660254037844197
 21
-16.5
 72
2
 10
163.5
 20
-17.0
 40
1.0
 50
29.9999999999999289
 51
330.0000000000000568
 73
1
 72
1
 10
164.3660254037844197
 20
-17.5
 11
165.1339745962155519
 21
-17.5
 97
0
 92
1
 93
1
 72
2
 10
146.0
 20
-1.9999999999999982
 40
1.0
 50
0.0
 51
360.0
 73
1
 97
0
 92
1
 93
1
 72
2
 10
153.5
 20
-21.9999999999999964
 40
1.0
 50
0.0
 51
360.0
 73
1
 97
0
 92
1
 93
1
 72
2
 10
151.0
 20
-21.9999999999999964
 40
1.0
 50
0.0
 51
360.0
 73
1
 97
0
 92
1
 93
1
 72
2
 10
148.5
 20
-21.9999999999999964
 40
1.0
 50
0.0
 51
360.0
 73
1
 97
0
 92
1
 93
1
 72
2
 10
146.0
 20
-22.0
 40
1.0
 50
0.0
 51
360.0
 73
1
 97
0
 92
1
 93
1
 72
2
 10
143.5
 20
-22.0
 40
1.0
 50
0.0
 51
360.0
 73
1
 97
0
 92
1
 93
1
 72
2
 10
141.0
 20
-22.0
 40
1.0
 50
0.0
 51
360.0
 73
1
 97
0
 92
1
 93
1
 72
2
 10
138.5
 20
-22.0
 40
1.0
 50
0.0
 51
360.0
 73
1
 97
0
 92
1
 93
1
 72
2
 10
136.0
 20
-22.0
 40
1.0
 50
0.0
 51
360.0
 73
1
 97
0
 92
1
 93
1
 72
2
 10
166.0
 20
-17.0
 40
0.5
 50
0.0
 51
360.0
 73
1
 97
0
 92
1
 93
1
 72
2
 10
166.0
 20
-19.5
 40
0.5
 50
0.0
 51
360.0
 73
1
 97
0
 92
1
 93
1
 72
2
 10
163.5
 20
-21.9999999999999964
 40
0.5
 50
0.0
 51
360.0
 73
1
 97
0
 92
1
 93
1
 72
2
 10
143.5
 20
-1.9999999999999982
 40
1.0
 50
0.0
 51
360.0
 73
1
 97
0
 92
1
 93
1
 72
2
 10
141.0
 20
-1.9999999999999987
 40
1.0
 50
0.0
 51
360.0
 73
1
 97
0
 92
1
 93
1
 72
2
 10
138.5
 20
-1.9999999999999991
 40
1.0
 50
0.0
 51
360.0
 73
1
 97
0
 92
1
 93
1
 72
2
 10
136.0
 20
-1.9999999999999991
 40
1.0
 50
0.0
 51
360.0
 73
1
 97
0
 92
1
 93
1
 72
2
 10
133.5
 20
-1.9999999999999991
 40
1.0
 50
0.0
 51
360.0
 73
1
 97
0
 92
1
 93
1
 72
2
 10
131.0
 20
-1.9999999999999996
 40
1.0
 50
0.0
 51
360.0
 73
1
 97
0
 92
1
 93
1
 72
2
 10
148.5
 20
-21.9999999999999964
 40
0.5
 50
0.0
 51
360.0
 73
1
 97
0
 92
1
 93
1
 72
2
 10
148.5
 20
-1.999999999999998
 40
0.5
 50
0.0
 51
360.0
 73
1
 97
0
 92
1
 93
1
 72
2
 10
146.0
 20
-22.0
 40
0.5
 50
0.0
 51
360.0
 73
1
 97
0
 92
1
 93
1
 72
2
 10
146.0
 20
-1.9999999999999982
 40
0.5
 50
0.0
 51
360.0
 73
1
 97
0
 92
1
 93
1
 72
2
 10
143.5
 20
-22.0
 40
0.5
 50
0.0
 51
360.0
 73
1
 97
0
 92
1
 93
1
 72
2
 10
143.5
 20
-1.9999999999999984
 40
0.5
 50
0.0
 51
360.0
 73
1
 97
0
 92
1
 93
1
 72
2
 10
141.0
 20
-22.0
 40
0.5
 50
0.0
 51
360.0
 73
1
 97
0
 92
1
 93
1
 72
2
 10
141.0
 20
-1.9999999999999987
 40
0.5
 50
0.0
 51
360.0
 73
1
 97
0
 92
1
 93
1
 72
2
 10
161.0
 20
-21.9999999999999964
 40
0.5
 50
0.0
 51
360.0
 73
1
 97
0
 92
1
 93
1
 72
2
 10
158.5
 20
-21.9999999999999964
 40
0.5
 50
0.0
 51
360.0
 73
1
 97
0
 92
1
 93
1
 72
2
 10
156.0
 20
-21.9999999999999964
 40
0.5
 50
0.0
 51
360.0
 73
1
 97
0
 92
1
 93
1
 72
2
 10
153.5
 20
-21.9999999999999964
 40
0.5
 50
0.0
 51
360.0
 73
1
 97
0
 92
1
 93
1
 72
2
 10
153.5
 20
-1.9999999999999976
 40
0.5
 50
0.0
 51
360.0
 73
1
 97
0
 92
1
 93
1
 72
2
 10
151.0
 20
-21.9999999999999964
 40
0.5
 50
0.0
 51
360.0
 73
1
 97
0
 92
1
 93
1
 72
2
 10
151.0
 20
-1.9999999999999978
 40
0.5
 50
0.0
 51
360.0
 73
1
 97
0
 92
1
 93
1
 72
2
 10
163.5
 20
-9.5
 40
0.5
 50
0.0
 51
360.0
 73
1
 97
0
 92
1
 93
1
 72
2
 10
163.5
 20
-12.0
 40
0.5
 50
0.0
 51
360.0
 73
1
 97
0
 92
1
 93
1
 72
2
 10
163.5
 20
-14.5
 40
0.5
 50
0.0
 51
360.0
 73
1
 97
0
 92
1
 93
1
 72
2
 10
163.5
 20
-17.0
 40
0.5
 50
0.0
 51
360.0
 73
1
 97
0
 92
1
 93
1
 72
2
 10
163.5
 20
-19.5
 40
0.5
 50
0.0
 51
360.0
 73
1
 97
0
 92
1
 93
1
 72
2
 10
163.5
 20
-12.0
 40
1.0
 50
0.0
 51
360.0
 73
1
 97
0
 92
1
 93
1
 72
2
 10
133.5
 20
-19.5
 40
1.0
 50
0.0
 51
360.0
 73
1
 97
0
 92
1
 93
1
 72
2
 10
131.0
 20
-19.5
 40
1.0
 50
0.0
 51
360.0
 73
1
 97
0
 92
1
 93
1
 72
2
 10
128.5
 20
-19.5
 40
1.0
 50
0.0
 51
360.0
 73
1
 97
0
 92
1
 93
1
 72
2
 10
128.5
 20
-19.5
 40
0.5
 50
0.0
 51
360.0
 73
1
 97
0
 92
1
 93
1
 72
2
 10
151.0
 20
-4.4999999999999991
 40
1.0
 50
0.0
 51
360.0
 73
1
 97
0
 92
1
 93
1
 72
2
 10
148.5
 20
-4.4999999999999991
 40
1.0
 50
0.0
 51
360.0
 73
1
 97
0
 92
1
 93
1
 72
2
 10
146.0
 20
-4.5
 40
1.0
 50
0.0
 51
360.0
 73
1
 97
0
 92
1
 93
1
 72
2
 10
126.0
 20
-19.5
 40
1.0
 50
0.0
 51
360.0
 73
1
 97
0
 92
1
 93
1
 72
2
 10
126.0
 20
-19.5
 40
0.5
 50
0.0
 51
360.0
 73
1
 97
0
 92
1
 93
1
 72
2
 10
138.5
 20
-19.5
 40
0.5
 50
0.0
 51
360.0
 73
1
 97
0
 92
1
 93
1
 72
2
 10
136.0
 20
-19.5
 40
0.5
 50
0.0
 51
360.0
 73
1
 97
0
 92
1
 93
1
 72
2
 10
133.5
 20
-19.5
 40
0.5
 50
0.0
 51
360.0
 73
1
 97
0
 92
1
 93
1
 72
2
 10
131.0
 20
-19.5
 40
0.5
 50
0.0
 51
360.0
 73
1
 97
0
 92
1
 93
1
 72
2
 10
143.5
 20
-19.4999999999999964
 40
0.5
 50
0.0
 51
360.0
 73
1
 97
0
 92
1
 93
1
 72
2
 10
141.0
 20
-19.5
 40
0.5
 50
0.0
 51
360.0
 73
1
 97
0
 92
1
 93
1
 72
2
 10
146.0
 20
-4.5
 40
0.5
 50
0.0
 51
360.0
 73
1
 97
0
 92
1
 93
1
 72
2
 10
153.5
 20
-4.5
 40
0.5
 50
0.0
 51
360.0
 73
1
 97
0
 92
1
 93
1
 72
2
 10
153.5
 20
-7.0
 40
0.5
 50
0.0
 51
360.0
 73
1
 97
0
 92
1
 93
1
 72
2
 10
143.5
 20
-4.5
 40
1.0
 50
0.0
 51
360.0
 73
1
 97
0
 92
1
 93
1
 72
2
 10
143.5
 20
-4.5
 40
0.5
 50
0.0
 51
360.0
 73
1
 97
0
 92
1
 93
1
 72
2
 10
156.0
 20
-4.4999999999999991
 40
0.5
 50
0.0
 51
360.0
 73
1
 97
0
 92
1
 93
1
 72
2
 10
151.0
 20
-4.4999999999999991
 40
0.5
 50
0.0
 51
360.0
 73
1
 97
0
 92
1
 93
1
 72
2
 10
148.5
 20
-4.4999999999999991
 40
0.5
 50
0.0
 51
360.0
 73
1
 97
0
 92
1
 93
1
 72
2
 10
161.0
 20
-4.4999999999999982
 40
0.5
 50
0.0
 51
360.0
 73
1
 97
0
 92
1
 93
1
 72
2
 10
158.5
 20
-4.4999999999999991
 40
0.5
 50
0.0
 51
360.0
 73
1
 97
0
 75
0
 76
1
 98
0
1001
ACAD
1010
0.0
1020
0.0
1030
0
  0
ENDSEC
  0
SECTION
  2
OBJECTS
  0
DICTIONARY
  5
C
100
AcDbDictionary
280
0
281
1
  3
ACAD_GROUP
350
D
  3
ACAD_LAYOUT
350
1A
  3
ACAD_MLINESTYLE
350
17
  3
ACAD_PLOTSETTINGS
350
19
  3
ACAD_PLOTSTYLENAME
350
E
  3
AcDbVariableDictionary
350
2B6
  3
QCAD_OBJECTS
350
2B7
  0
DICTIONARY
  5
D
100
AcDbDictionary
280
0
281
1
  0
ACDBDICTIONARYWDFLT
  5
E
100
AcDbDictionary
281
1
  3
Normal
350
F
100
AcDbDictionaryWithDefault
340
F
  0
ACDBPLACEHOLDER
  5
F
  0
DICTIONARY
  5
17
100
AcDbDictionary
280
0
281
1
  3
Standard
350
18
  0
MLINESTYLE
  5
18
100
AcDbMlineStyle
  2
STANDARD
 70
0
  3

 62
256
 51
90.0
 52
90.0
 71
2
 49
0.5
 62
256
  6
BYLAYER
 49
-0.5
 62
256
  6
BYLAYER
  0
DICTIONARY
  5
19
100
AcDbDictionary
280
0
281
1
  0
DICTIONARY
  5
1A
100
AcDbDictionary
281
1
  3
Layout1
350
1E
  3
Layout2
350
26
  3
Model
350
22
  0
LAYOUT
  5
1E
100
AcDbPlotSettings
  1

  2
none_device
  4

  6

 40
0.0
 41
0.0
 42
0.0
 43
0.0
 44
0.0
 45
0.0
 46
0.0
 47
0.0
 48
0.0
 49
0.0
140
0.0
141
0.0
142
1.0
143
1.0
 70
688
 72
0
 73
0
 74
5
  7

 75
16
147
1.0
148
0.0
149
0.0
100
AcDbLayout
  1
Layout1
 70
1
 71
1
 10
0.0
 20
0.0
 11
420.0
 21
297.0
 12
0.0
 22
0.0
 32
0.0
 14
100000000000000000000.0
 24
100000000000000000000.0
 34
100000000000000000000.0
 15
-100000000000000000000.0
 25
-100000000000000000000.0
 35
-100000000000000000000.0
146
0.0
 13
0.0
 23
0.0
 33
0.0
 16
1.0
 26
0.0
 36
0.0
 17
0.0
 27
1.0
 37
0.0
 76
0
330
1B
  0
LAYOUT
  5
22
100
AcDbPlotSettings
  1

  2
none_device
  4

  6

 40
0.0
 41
0.0
 42
0.0
 43
0.0
 44
0.0
 45
0.0
 46
0.0
 47
0.0
 48
0.0
 49
0.0
140
0.0
141
0.0
142
1.0
143
1.0
 70
1712
 72
0
 73
0
 74
0
  7

 75
0
147
1.0
148
0.0
149
0.0
100
AcDbLayout
  1
Model
 70
1
 71
0
 10
0.0
 20
0.0
 11
12.0
 21
9.0
 12
0.0
 22
0.0
 32
0.0
 14
0.0
 24
0.0
 34
0.0
 15
0.0
 25
0.0
 35
0.0
146
0.0
 13
0.0
 23
0.0
 33
0.0
 16
1.0
 26
0.0
 36
0.0
 17
0.0
 27
1.0
 37
0.0
 76
0
330
1F
  0
LAYOUT
  5
26
100
AcDbPlotSettings
  1

  2
none_device
  4

  6

 40
0.0
 41
0.0
 42
0.0
 43
0.0
 44
0.0
 45
0.0
 46
0.0
 47
0.0
 48
0.0
 49
0.0
140
0.0
141
0.0
142
1.0
143
1.0
 70
688
 72
0
 73
0
 74
5
  7

 75
16
147
1.0
148
0.0
149
0.0
100
AcDbLayout
  1
Layout2
 70
1
 71
2
 10
0.0
 20
0.0
 11
12.0
 21
9.0
 12
0.0
 22
0.0
 32
0.0
 14
0.0
 24
0.0
 34
0.0
 15
0.0
 25
0.0
 35
0.0
146
0.0
 13
0.0
 23
0.0
 33
0.0
 16
1.0
 26
0.0
 36
0.0
 17
0.0
 27
1.0
 37
0.0
 76
0
330
23
  0
DICTIONARY
  5
2B6
100
AcDbDictionary
281
1
  3
DIMASSOC
350
2B9
  3
HIDETEXT
350
2B8
  0
DICTIONARYVAR
  5
2B8
100
DictionaryVariables
280
0
  1
2
  0
DICTIONARYVAR
  5
2B9
100
DictionaryVariables
280
0
  1
1
  0
DICTIONARY
  5
2B7
100
AcDbDictionary
281
1
  3
ColorSettings/BackgroundColor
350
2BA
  3
ColorSettings/ColorMode
350
2BB
  3
Grid/DisplayGrid00
350
2BC
  3
Grid/DisplayGrid01
350
2BD
  3
Grid/DisplayGrid02
350
2BE
  3
Grid/DisplayGrid03
350
2BF
  3
Grid/GridSpacingX00
350
2C0
  3
Grid/GridSpacingX01
350
2C1
  3
Grid/GridSpacingX02
350
2C2
  3
Grid/GridSpacingX03
350
2C3
  3
Grid/GridSpacingY00
350
2C4
  3
Grid/GridSpacingY01
350
2C5
  3
Grid/GridSpacingY02
350
2C6
  3
Grid/GridSpacingY03
350
2C7
  3
Grid/IsometricGrid00
350
2C8
  3
Grid/IsometricGrid01
350
2C9
  3
Grid/IsometricGrid02
350
2CA
  3
Grid/IsometricGrid03
350
2CB
  3
Grid/IsometricProjection00
350
2CC
  3
Grid/IsometricProjection01
350
2CD
  3
Grid/IsometricProjection02
350
2CE
  3
Grid/IsometricProjection03
350
2CF
  3
Grid/MetaGridSpacingX00
350
2D0
  3
Grid/MetaGridSpacingX01
350
2D1
  3
Grid/MetaGridSpacingX02
350
2D2
  3
Grid/MetaGridSpacingX03
350
2D3
  3
Grid/MetaGridSpacingY00
350
2D4
  3
Grid/MetaGridSpacingY01
350
2D5
  3
Grid/MetaGridSpacingY02
350
2D6
  3
Grid/MetaGridSpacingY03
350
2D7
  3
MultiPageSettings/Columns
350
2D8
  3
MultiPageSettings/GlueMarginsBottom
350
2D9
  3
MultiPageSettings/GlueMarginsLeft
350
2DA
  3
MultiPageSettings/GlueMarginsRight
350
2DB
  3
MultiPageSettings/GlueMarginsTop
350
2DC
  3
MultiPageSettings/PrintCropMarks
350
2DD
  3
MultiPageSettings/Rows
350
2DE
  3
PageSettings/OffsetX
350
2DF
  3
PageSettings/OffsetY
350
2E0
  3
PageSettings/PageOrientation
350
2E1
  3
PageSettings/PaperHeight
350
2E2
  3
PageSettings/PaperWidth
350
2E3
  3
PageSettings/Scale
350
2E4
  3
PageSettings/ShowPaperBorders
350
2E5
  3
QCADVersion
350
2E6
  3
UnitSettings/PaperUnit
350
2E7
  3
ViewportCenter
350
2E8
  3
ViewportHeight
350
2E9
  3
ViewportWidth
350
2EA
  0
XRECORD
  5
2BA
330
2B7
100
AcDbXrecord
280
1
1000
White
  0
XRECORD
  5
2BB
330
2B7
100
AcDbXrecord
280
1
1000
FullColor
  0
XRECORD
  5
2BC
330
2B7
100
AcDbXrecord
280
1
290
1
  0
XRECORD
  5
2BD
330
2B7
100
AcDbXrecord
280
1
290
1
  0
XRECORD
  5
2BE
330
2B7
100
AcDbXrecord
280
1
290
1
  0
XRECORD
  5
2BF
330
2B7
100
AcDbXrecord
280
1
290
1
  0
XRECORD
  5
2C0
330
2B7
100
AcDbXrecord
280
1
1000
auto
  0
XRECORD
  5
2C1
330
2B7
100
AcDbXrecord
280
1
1000
auto
  0
XRECORD
  5
2C2
330
2B7
100
AcDbXrecord
280
1
1000
auto
  0
XRECORD
  5
2C3
330
2B7
100
AcDbXrecord
280
1
1000
auto
  0
XRECORD
  5
2C4
330
2B7
100
AcDbXrecord
280
1
1000
auto
  0
XRECORD
  5
2C5
330
2B7
100
AcDbXrecord
280
1
1000
auto
  0
XRECORD
  5
2C6
330
2B7
100
AcDbXrecord
280
1
1000
auto
  0
XRECORD
  5
2C7
330
2B7
100
AcDbXrecord
280
1
1000
auto
  0
XRECORD
  5
2C8
330
2B7
100
AcDbXrecord
280
1
290
0
  0
XRECORD
  5
2C9
330
2B7
100
AcDbXrecord
280
1
290
0
  0
XRECORD
  5
2CA
330
2B7
100
AcDbXrecord
280
1
290
0
  0
XRECORD
  5
2CB
330
2B7
100
AcDbXrecord
280
1
290
0
  0
XRECORD
  5
2CC
330
2B7
100
AcDbXrecord
280
1
 90
0
  0
XRECORD
  5
2CD
330
2B7
100
AcDbXrecord
280
1
 90
0
  0
XRECORD
  5
2CE
330
2B7
100
AcDbXrecord
280
1
 90
0
  0
XRECORD
  5
2CF
330
2B7
100
AcDbXrecord
280
1
 90
0
  0
XRECORD
  5
2D0
330
2B7
100
AcDbXrecord
280
1
1000
auto
  0
XRECORD
  5
2D1
330
2B7
100
AcDbXrecord
280
1
1000
auto
  0
XRECORD
  5
2D2
330
2B7
100
AcDbXrecord
280
1
1000
auto
  0
XRECORD
  5
2D3
330
2B7
100
AcDbXrecord
280
1
1000
auto
  0
XRECORD
  5
2D4
330
2B7
100
AcDbXrecord
280
1
1000
auto
  0
XRECORD
  5
2D5
330
2B7
100
AcDbXrecord
280
1
1000
auto
  0
XRECORD
  5
2D6
330
2B7
100
AcDbXrecord
280
1
1000
auto
  0
XRECORD
  5
2D7
330
2B7
100
AcDbXrecord
280
1
1000
auto
  0
XRECORD
  5
2D8
330
2B7
100
AcDbXrecord
280
1
 90
1
  0
XRECORD
  5
2D9
330
2B7
100
AcDbXrecord
280
1
 40
10.0
  0
XRECORD
  5
2DA
330
2B7
100
AcDbXrecord
280
1
 40
10.0
  0
XRECORD
  5
2DB
330
2B7
100
AcDbXrecord
280
1
 40
10.0
  0
XRECORD
  5
2DC
330
2B7
100
AcDbXrecord
280
1
 40
10.0
  0
XRECORD
  5
2DD
330
2B7
100
AcDbXrecord
280
1
290
0
  0
XRECORD
  5
2DE
330
2B7
100
AcDbXrecord
280
1
 90
1
  0
XRECORD
  5
2DF
330
2B7
100
AcDbXrecord
280
1
 40
-20.11788587257616
  0
XRECORD
  5
2E0
330
2B7
100
AcDbXrecord
280
1
 40
-267.5253074792243524
  0
XRECORD
  5
2E1
330
2B7
100
AcDbXrecord
280
1
1000
Portrait
  0
XRECORD
  5
2E2
330
2B7
100
AcDbXrecord
280
1
 40
297.0
  0
XRECORD
  5
2E3
330
2B7
100
AcDbXrecord
280
1
 40
210.0
  0
XRECORD
  5
2E4
330
2B7
100
AcDbXrecord
280
1
1000
1:1
  0
XRECORD
  5
2E5
330
2B7
100
AcDbXrecord
280
1
290
1
  0
XRECORD
  5
2E6
330
2B7
100
AcDbXrecord
280
1
1000
3.15.4.3
  0
XRECORD
  5
2E7
330
2B7
100
AcDbXrecord
280
1
 90
4
  0
XRECORD
  5
2E9
330
2B7
100
AcDbXrecord
280
1
 40
46.4205332409972442
  0
XRECORD
  5
2EA
330
2B7
100
AcDbXrecord
280
1
 40
61.715503808864284
  0
ENDSEC
  0
EOF
